StickNoBills-tamil-1.ufo
<glyph name="tml_A" format="1">
  <advance width="1013"/>
  <unicode hex="0B85"/>
  <outline>
    <contour>
      <point x="261" y="486" type="curve" smooth="yes"/>
      <point x="261" y="606"/>
      <point x="363" y="695"/>
      <point x="518" y="695" type="curve" smooth="yes"/>
      <point x="698" y="695"/>
      <point x="803" y="585"/>
      <point x="803" y="393" type="curve"/>
      <point x="803" y="262" type="line"/>
      <point x="681" y="262" type="line"/>
      <point x="681" y="396" type="line" smooth="yes"/>
      <point x="681" y="502"/>
      <point x="640" y="573"/>
      <point x="518" y="573" type="curve" smooth="yes"/>
      <point x="428" y="573"/>
      <point x="383" y="532"/>
      <point x="383" y="486" type="curve" smooth="yes"/>
      <point x="383" y="440"/>
      <point x="412" y="411"/>
      <point x="452" y="411" type="curve" smooth="yes"/>
      <point x="497" y="411"/>
      <point x="537" y="433"/>
      <point x="537" y="498" type="curve" smooth="yes"/>
      <point x="621" y="409" type="line" smooth="yes"/>
      <point x="616" y="346"/>
      <point x="542" y="289"/>
      <point x="452" y="289" type="curve" smooth="yes"/>
      <point x="362" y="289"/>
      <point x="261" y="352"/>
    </contour>
    <contour>
      <point x="443" y="150" type="curve"/>
      <point x="443" y="270" type="line"/>
      <point x="525" y="270"/>
      <point x="721" y="270"/>
      <point x="803" y="270" type="curve"/>
      <point x="804" y="67" type="line"/>
      <point x="804" y="-35"/>
      <point x="733" y="-127"/>
      <point x="607" y="-127" type="curve" smooth="yes"/>
      <point x="445" y="-127" type="line" smooth="yes"/>
      <point x="445" y="-5" type="line"/>
      <point x="596" y="-5" type="line" smooth="yes"/>
      <point x="662" y="-4"/>
      <point x="681" y="33"/>
      <point x="681" y="67" type="curve"/>
      <point x="681" y="150" type="line"/>
      <point x="640" y="150"/>
      <point x="484" y="150"/>
    </contour>
    <contour>
      <point x="39" y="72" type="curve" smooth="yes"/>
      <point x="39" y="188"/>
      <point x="123" y="271"/>
      <point x="253" y="271" type="curve" smooth="yes"/>
      <point x="389" y="271" type="line"/>
      <point x="389" y="149" type="line"/>
      <point x="235" y="149" type="line" smooth="yes"/>
      <point x="211" y="149"/>
      <point x="161" y="129"/>
      <point x="161" y="72" type="curve" smooth="yes"/>
      <point x="161" y="19"/>
      <point x="207" y="-5"/>
      <point x="253" y="-5" type="curve" smooth="yes"/>
      <point x="390" y="-5" type="line"/>
      <point x="390" y="-127" type="line"/>
      <point x="242" y="-127" type="line" smooth="yes"/>
      <point x="130" y="-127"/>
      <point x="39" y="-47"/>
    </contour>
    <contour>
      <point x="762" y="150" type="line"/>
      <point x="762" y="270" type="line"/>
      <point x="855" y="270" type="line"/>
      <point x="855" y="150" type="line"/>
    </contour>
    <contour>
      <point x="853" y="-107" type="line"/>
      <point x="853" y="578" type="line"/>
      <point x="975" y="578" type="line"/>
      <point x="975" y="-107" type="line"/>
    </contour>
  </outline>
</glyph>
<glyph name="tml_I" format="1">
  <advance width="1143"/>
  <unicode hex="0B87"/>
  <outline>
    <contour>
      <point x="365" y="436" type="curve" smooth="yes"/>
      <point x="365" y="556"/>
      <point x="467" y="645"/>
      <point x="622" y="645" type="curve" smooth="yes"/>
      <point x="802" y="645"/>
      <point x="907" y="534"/>
      <point x="907" y="342" type="curve"/>
      <point x="907" y="211" type="line"/>
      <point x="785" y="211" type="line"/>
      <point x="785" y="346" type="line" smooth="yes"/>
      <point x="785" y="452"/>
      <point x="744" y="522"/>
      <point x="622" y="522" type="curve" smooth="yes"/>
      <point x="532" y="522"/>
      <point x="487" y="482"/>
      <point x="487" y="436" type="curve" smooth="yes"/>
      <point x="487" y="390"/>
      <point x="517" y="360"/>
      <point x="557" y="360" type="curve" smooth="yes"/>
      <point x="602" y="360"/>
      <point x="642" y="382"/>
      <point x="642" y="447" type="curve" smooth="yes"/>
      <point x="726" y="358" type="line" smooth="yes"/>
      <point x="721" y="295"/>
      <point x="647" y="238"/>
      <point x="557" y="238" type="curve" smooth="yes"/>
      <point x="467" y="238"/>
      <point x="365" y="302"/>
    </contour>
    <contour>
      <point x="37" y="21" type="curve" smooth="yes"/>
      <point x="37" y="137"/>
      <point x="121" y="221"/>
      <point x="251" y="221" type="curve" smooth="yes"/>
      <point x="493" y="221" type="line"/>
      <point x="493" y="99" type="line"/>
      <point x="233" y="99" type="line" smooth="yes"/>
      <point x="209" y="99"/>
      <point x="159" y="78"/>
      <point x="159" y="21" type="curve" smooth="yes"/>
      <point x="159" y="-32"/>
      <point x="205" y="-56"/>
      <point x="251" y="-56" type="curve" smooth="yes"/>
      <point x="494" y="-56" type="line"/>
      <point x="494" y="-178" type="line"/>
      <point x="240" y="-178" type="line" smooth="yes"/>
      <point x="128" y="-178"/>
      <point x="37" y="-98"/>
    </contour>
    <contour>
      <point x="548" y="100" type="curve"/>
      <point x="548" y="219" type="line"/>
      <point x="630" y="219"/>
      <point x="825" y="219"/>
      <point x="907" y="219" type="curve"/>
      <point x="908" y="17" type="line"/>
      <point x="908" y="-85"/>
      <point x="838" y="-178"/>
      <point x="712" y="-178" type="curve" smooth="yes"/>
      <point x="550" y="-178" type="line" smooth="yes"/>
      <point x="550" y="-56" type="line"/>
      <point x="700" y="-56" type="line" smooth="yes"/>
      <point x="766" y="-55"/>
      <point x="785" y="-17"/>
      <point x="785" y="17" type="curve"/>
      <point x="785" y="100" type="line"/>
      <point x="744" y="100"/>
      <point x="589" y="100"/>
    </contour>
    <contour>
      <point x="873" y="-169" type="curve"/>
      <point x="930" y="-49" type="line"/>
      <point x="976" y="-37"/>
      <point x="981" y="-2"/>
      <point x="981" y="29" type="curve" smooth="yes"/>
      <point x="981" y="75"/>
      <point x="945" y="99"/>
      <point x="906" y="99" type="curve"/>
      <point x="906" y="221" type="line"/>
      <point x="1045" y="221"/>
      <point x="1104" y="140"/>
      <point x="1104" y="36" type="curve" smooth="yes"/>
      <point x="1104" y="2" type="line"/>
      <point x="1104" y="-74"/>
      <point x="1025" y="-188"/>
    </contour>
    <contour>
      <point x="222" y="117" type="line"/>
      <point x="115" y="509"/>
      <point x="265" y="803"/>
      <point x="614" y="803" type="curve" smooth="yes"/>
      <point x="908" y="803"/>
      <point x="1083" y="636"/>
      <point x="1075" y="244" type="curve"/>
      <point x="953" y="244" type="line"/>
      <point x="961" y="542"/>
      <point x="867" y="680"/>
      <point x="618" y="680" type="curve" smooth="yes"/>
      <point x="315" y="680"/>
      <point x="244" y="421"/>
      <point x="351" y="131" type="curve"/>
    </contour>
    <contour>
      <point x="229" y="104" type="curve"/>
      <point x="365" y="104" type="line"/>
      <point x="387" y="54"/>
      <point x="425" y="-14"/>
      <point x="494" y="-56" type="curve"/>
      <point x="374" y="-119" type="line" smooth="yes"/>
      <point x="312" y="-54"/>
      <point x="265" y="16"/>
    </contour>
  </outline>
</glyph>
<glyph name="tml_Ii" format="1">
  <advance width="629"/>
  <unicode hex="0B88"/>
  <outline>
    <contour>
      <point x="466" y="248" type="curve" smooth="yes"/>
      <point x="466" y="214"/>
      <point x="494" y="186"/>
      <point x="528" y="186" type="curve" smooth="yes"/>
      <point x="562" y="186"/>
      <point x="591" y="214"/>
      <point x="591" y="248" type="curve" smooth="yes"/>
      <point x="591" y="282"/>
      <point x="562" y="311"/>
      <point x="528" y="311" type="curve" smooth="yes"/>
      <point x="494" y="311"/>
      <point x="466" y="282"/>
    </contour>
    <contour>
      <point x="178" y="249" type="curve" smooth="yes"/>
      <point x="178" y="215"/>
      <point x="206" y="187"/>
      <point x="240" y="187" type="curve" smooth="yes"/>
      <point x="274" y="187"/>
      <point x="303" y="215"/>
      <point x="303" y="249" type="curve" smooth="yes"/>
      <point x="303" y="283"/>
      <point x="274" y="312"/>
      <point x="240" y="312" type="curve" smooth="yes"/>
      <point x="206" y="312"/>
      <point x="178" y="283"/>
    </contour>
    <contour>
      <point x="323" y="0" type="line"/>
      <point x="445" y="0" type="line"/>
      <point x="445" y="593" type="line"/>
      <point x="323" y="593" type="line"/>
    </contour>
    <contour>
      <point x="39" y="1" type="line"/>
      <point x="161" y="1" type="line"/>
      <point x="161" y="593" type="line"/>
      <point x="39" y="592" type="line"/>
    </contour>
    <contour>
      <point x="271" y="473" type="line"/>
      <point x="587" y="473" type="line"/>
      <point x="587" y="595" type="line"/>
      <point x="271" y="595" type="line"/>
    </contour>
    <contour>
      <point x="39" y="473" type="line"/>
      <point x="217" y="473" type="line"/>
      <point x="217" y="595" type="line"/>
      <point x="39" y="595" type="line"/>
    </contour>
  </outline>
</glyph>
<glyph name="tml_U" format="1">
  <advance width="1071"/>
  <unicode hex="0B89"/>
  <outline>
    <contour>
      <point x="39" y="472" type="curve" smooth="yes"/>
      <point x="39" y="593"/>
      <point x="137" y="696"/>
      <point x="302" y="696" type="curve" smooth="yes"/>
      <point x="467" y="696"/>
      <point x="594" y="598"/>
      <point x="594" y="457" type="curve" smooth="yes"/>
      <point x="594" y="430" type="line"/>
      <point x="471" y="430" type="line"/>
      <point x="471" y="457" type="line" smooth="yes"/>
      <point x="471" y="543"/>
      <point x="382" y="574"/>
      <point x="302" y="574" type="curve" smooth="yes"/>
      <point x="210" y="574"/>
      <point x="160" y="521"/>
      <point x="161" y="469" type="curve" smooth="yes"/>
      <point x="162" y="424"/>
      <point x="200" y="407"/>
      <point x="226" y="407" type="curve" smooth="yes"/>
      <point x="275" y="407"/>
      <point x="302" y="459"/>
      <point x="287" y="504" type="curve"/>
      <point x="409" y="504" type="line"/>
      <point x="434" y="388"/>
      <point x="338" y="285"/>
      <point x="227" y="285" type="curve" smooth="yes"/>
      <point x="135" y="285"/>
      <point x="39" y="345"/>
    </contour>
    <contour>
      <point x="259" y="0" type="line"/>
      <point x="259" y="122" type="line"/>
      <point x="1033" y="122" type="line"/>
      <point x="1033" y="0" type="line"/>
    </contour>
    <contour>
      <point x="57" y="122" type="curve"/>
      <point x="205" y="122" type="line"/>
      <point x="205" y="0" type="line"/>
      <point x="116" y="0" type="line" smooth="yes"/>
      <point x="48" y="0"/>
      <point x="57" y="71"/>
    </contour>
    <contour>
      <point x="57" y="110" type="line" smooth="yes"/>
      <point x="57" y="164" type="line" smooth="yes"/>
      <point x="58" y="226"/>
      <point x="75" y="264"/>
      <point x="138" y="264" type="curve" smooth="yes"/>
      <point x="338" y="264" type="line" smooth="yes"/>
      <point x="455" y="265"/>
      <point x="471" y="268"/>
      <point x="471" y="339" type="curve" smooth="yes"/>
      <point x="471" y="376" type="line"/>
      <point x="594" y="376" type="line"/>
      <point x="594" y="339" type="line" smooth="yes"/>
      <point x="595" y="245"/>
      <point x="564" y="142"/>
      <point x="370" y="142" type="curve" smooth="yes"/>
      <point x="319" y="142"/>
      <point x="189" y="141"/>
      <point x="179" y="141" type="curve"/>
      <point x="179" y="128"/>
      <point x="179" y="110"/>
      <point x="179" y="110" type="curve" smooth="yes"/>
    </contour>
    <contour>
      <point x="594" y="457" type="move"/>
    </contour>
  </outline>
</glyph>
<glyph name="tml_Uu" format="1">
  <advance width="1435"/>
  <unicode hex="0B8A"/>
  <outline>
    <contour>
      <point x="846" y="149" type="curve"/>
      <point x="846" y="249" type="line" smooth="yes"/>
      <point x="872" y="249"/>
      <point x="884" y="272"/>
      <point x="883" y="297" type="curve" smooth="yes"/>
      <point x="882" y="319"/>
      <point x="869" y="342"/>
      <point x="847" y="343" type="curve"/>
      <point x="847" y="444" type="line" smooth="yes"/>
      <point x="933" y="444"/>
      <point x="983" y="382"/>
      <point x="983" y="333" type="curve" smooth="yes"/>
      <point x="983" y="298"/>
      <point x="983" y="326"/>
      <point x="984" y="261" type="curve" smooth="yes"/>
      <point x="985" y="209"/>
      <point x="926" y="150"/>
    </contour>
    <contour>
      <point x="659" y="330" type="curve" smooth="yes"/>
      <point x="658" y="415"/>
      <point x="759" y="444"/>
      <point x="799" y="444" type="curve"/>
      <point x="799" y="343" type="line" smooth="yes"/>
      <point x="776" y="342"/>
      <point x="761" y="321"/>
      <point x="761" y="297" type="curve" smooth="yes"/>
      <point x="761" y="271"/>
      <point x="773" y="249"/>
      <point x="799" y="249" type="curve"/>
      <point x="799" y="149" type="line" smooth="yes"/>
      <point x="712" y="149"/>
      <point x="660" y="210"/>
      <point x="660" y="259" type="curve" smooth="yes"/>
      <point x="660" y="294"/>
      <point x="659" y="264"/>
    </contour>
    <contour>
      <point x="659" y="334" type="curve"/>
      <point x="659" y="415" type="line"/>
      <point x="659" y="498"/>
      <point x="724" y="637"/>
      <point x="869" y="637" type="curve" smooth="yes"/>
      <point x="871" y="637" type="line"/>
      <point x="870" y="537" type="line" smooth="yes"/>
      <point x="867" y="537" type="line" smooth="yes"/>
      <point x="817" y="537"/>
      <point x="767" y="498"/>
      <point x="767" y="418" type="curve" smooth="yes"/>
      <point x="767" y="371"/>
      <point x="664" y="359"/>
    </contour>
    <contour>
      <point x="917" y="538" type="line"/>
      <point x="917" y="638" type="line"/>
      <point x="918" y="638" type="line" smooth="yes"/>
      <point x="1055" y="638"/>
      <point x="1115" y="522"/>
      <point x="1116" y="441" type="curve"/>
      <point x="1120" y="149" type="line"/>
      <point x="1016" y="149" type="line"/>
      <point x="1015" y="440" type="line"/>
      <point x="1014" y="491"/>
      <point x="963" y="538"/>
      <point x="919" y="538" type="curve" smooth="yes"/>
    </contour>
    <contour>
      <point x="1015" y="429" type="line"/>
      <point x="1015" y="498"/>
      <point x="1026" y="638"/>
      <point x="1148" y="638" type="curve" smooth="yes"/>
      <point x="1167" y="638" type="line"/>
      <point x="1167" y="537" type="line"/>
      <point x="1123" y="537"/>
      <point x="1116" y="482"/>
      <point x="1116" y="429" type="curve"/>
    </contour>
    <contour>
      <point x="1215" y="537" type="line"/>
      <point x="1215" y="638" type="line"/>
      <point x="1396" y="638" type="line"/>
      <point x="1396" y="537" type="line"/>
    </contour>
    <contour>
      <point x="1236" y="149" type="line"/>
      <point x="1236" y="621" type="line"/>
      <point x="1336" y="621" type="line"/>
      <point x="1336" y="149" type="line"/>
    </contour>
    <contour>
      <point x="259" y="0" type="line"/>
      <point x="259" y="112" type="line"/>
      <point x="1381" y="112" type="line"/>
      <point x="1381" y="0" type="line"/>
    </contour>
    <component base="tml_U"/>
  </outline>
</glyph>
<glyph name="tml_E" format="1">
  <advance width="746"/>
  <unicode hex="0B8E"/>
  <outline>
    <contour>
      <point x="265" y="1" type="curve"/>
      <point x="265" y="123" type="line" smooth="yes"/>
      <point x="299" y="123"/>
      <point x="318" y="146"/>
      <point x="317" y="182" type="curve" smooth="yes"/>
      <point x="316" y="216"/>
      <point x="305" y="238"/>
      <point x="265" y="238" type="curve"/>
      <point x="265" y="360" type="line" smooth="yes"/>
      <point x="364" y="360"/>
      <point x="439" y="281"/>
      <point x="439" y="220" type="curve" smooth="yes"/>
      <point x="439" y="148" type="line" smooth="yes"/>
      <point x="439" y="86"/>
      <point x="364" y="1"/>
    </contour>
    <contour>
      <point x="39" y="149" type="curve" smooth="yes"/>
      <point x="39" y="221" type="line" smooth="yes"/>
      <point x="38" y="325"/>
      <point x="160" y="360"/>
      <point x="210" y="360" type="curve"/>
      <point x="210" y="238" type="line" smooth="yes"/>
      <point x="181" y="238"/>
      <point x="163" y="218"/>
      <point x="163" y="182" type="curve" smooth="yes"/>
      <point x="163" y="145"/>
      <point x="180" y="123"/>
      <point x="210" y="123" type="curve"/>
      <point x="210" y="1" type="line" smooth="yes"/>
      <point x="108" y="1"/>
      <point x="39" y="96"/>
    </contour>
    <contour>
      <point x="359" y="472" type="line"/>
      <point x="359" y="595" type="line"/>
      <point x="707" y="595" type="line"/>
      <point x="707" y="472" type="line"/>
    </contour>
    <contour>
      <point x="484" y="0" type="line"/>
      <point x="484" y="577" type="line"/>
      <point x="606" y="577" type="line"/>
      <point x="606" y="0" type="line"/>
    </contour>
    <contour>
      <point x="265" y="1" type="curve"/>
      <point x="265" y="123" type="line" smooth="yes"/>
      <point x="299" y="123"/>
      <point x="318" y="146"/>
      <point x="317" y="182" type="curve" smooth="yes"/>
      <point x="316" y="216"/>
      <point x="305" y="238"/>
      <point x="265" y="238" type="curve"/>
      <point x="265" y="360" type="line" smooth="yes"/>
      <point x="364" y="360"/>
      <point x="439" y="281"/>
      <point x="439" y="220" type="curve" smooth="yes"/>
      <point x="439" y="148" type="line" smooth="yes"/>
      <point x="439" y="86"/>
      <point x="364" y="1"/>
    </contour>
    <contour>
      <point x="39" y="228" type="curve"/>
      <point x="39" y="281" type="line" smooth="yes"/>
      <point x="39" y="396"/>
      <point x="101" y="595"/>
      <point x="304" y="595" type="curve"/>
      <point x="304" y="472" type="line"/>
      <point x="217" y="472"/>
      <point x="177" y="406"/>
      <point x="170" y="329" type="curve" smooth="yes"/>
      <point x="165" y="272"/>
      <point x="45" y="258"/>
    </contour>
    <contour>
      <point x="39" y="149" type="curve" smooth="yes"/>
      <point x="39" y="221" type="line" smooth="yes"/>
      <point x="38" y="325"/>
      <point x="160" y="360"/>
      <point x="210" y="360" type="curve"/>
      <point x="210" y="238" type="line" smooth="yes"/>
      <point x="181" y="238"/>
      <point x="163" y="218"/>
      <point x="163" y="182" type="curve" smooth="yes"/>
      <point x="163" y="145"/>
      <point x="180" y="123"/>
      <point x="210" y="123" type="curve"/>
      <point x="210" y="1" type="line" smooth="yes"/>
      <point x="108" y="1"/>
      <point x="39" y="96"/>
    </contour>
  </outline>
</glyph>
<glyph name="tml_Ee" format="1">
  <advance width="746"/>
  <unicode hex="0B8F"/>
  <outline>
    <contour>
      <point x="315" y="-176" type="line"/>
      <point x="484" y="32" type="line"/>
      <point x="484" y="577" type="line"/>
      <point x="609" y="577" type="line"/>
      <point x="607" y="1" type="line" smooth="yes"/>
      <point x="459" y="-176" type="line"/>
    </contour>
    <component base="tml_E"/>
  </outline>
</glyph>
<glyph name="tml_Ai" format="1">
  <advance width="948"/>
  <unicode hex="0B90"/>
  <outline>
    <contour>
      <point x="717" y="158" type="line"/>
      <point x="717" y="281" type="line"/>
      <point x="721" y="281" type="line" smooth="yes"/>
      <point x="792" y="281"/>
      <point x="785" y="362"/>
      <point x="785" y="419" type="curve"/>
      <point x="785" y="461" type="line"/>
      <point x="785" y="525"/>
      <point x="764" y="567"/>
      <point x="717" y="574" type="curve"/>
      <point x="717" y="696" type="line"/>
      <point x="819" y="688"/>
      <point x="909" y="610"/>
      <point x="909" y="461" type="curve"/>
      <point x="909" y="387" type="line" smooth="yes"/>
      <point x="907" y="218"/>
      <point x="815" y="158"/>
      <point x="735" y="158" type="curve" smooth="yes"/>
    </contour>
    <contour>
      <point x="54" y="11" type="line" smooth="yes"/>
      <point x="54" y="-92"/>
      <point x="163" y="-180"/>
      <point x="285" y="-180" type="curve"/>
      <point x="285" y="-58" type="line"/>
      <point x="209" y="-58"/>
      <point x="176" y="-19"/>
      <point x="176" y="46" type="curve" smooth="yes"/>
      <point x="176" y="93"/>
      <point x="195" y="157"/>
      <point x="254" y="157" type="curve" smooth="yes"/>
      <point x="663" y="158" type="line"/>
      <point x="663" y="280" type="line" smooth="yes"/>
      <point x="261" y="280" type="line" smooth="yes"/>
      <point x="124" y="280"/>
      <point x="54" y="164"/>
      <point x="54" y="83" type="curve" smooth="yes"/>
    </contour>
    <contour>
      <point x="460" y="371" type="line"/>
      <point x="460" y="480" type="line" smooth="yes"/>
      <point x="460" y="613"/>
      <point x="570" y="687"/>
      <point x="663" y="696" type="curve"/>
      <point x="663" y="573" type="line"/>
      <point x="623" y="565"/>
      <point x="582" y="530"/>
      <point x="582" y="464" type="curve" smooth="yes"/>
      <point x="582" y="371" type="line"/>
    </contour>
    <contour>
      <point x="39" y="471" type="curve" smooth="yes"/>
      <point x="40" y="496" type="line" smooth="yes"/>
      <point x="40" y="581"/>
      <point x="135" y="674"/>
      <point x="228" y="686" type="curve" smooth="yes"/>
      <point x="341" y="700"/>
      <point x="423" y="588"/>
      <point x="423" y="499" type="curve" smooth="yes"/>
      <point x="423" y="471" type="line" smooth="yes"/>
      <point x="423" y="410"/>
      <point x="341" y="307"/>
      <point x="259" y="307" type="curve"/>
      <point x="259" y="432" type="line"/>
      <point x="281" y="440"/>
      <point x="301" y="467"/>
      <point x="301" y="499" type="curve" smooth="yes"/>
      <point x="301" y="538"/>
      <point x="270" y="569"/>
      <point x="231" y="569" type="curve" smooth="yes"/>
      <point x="192" y="569"/>
      <point x="161" y="538"/>
      <point x="161" y="499" type="curve" smooth="yes"/>
      <point x="161" y="466"/>
      <point x="182" y="439"/>
      <point x="205" y="431" type="curve"/>
      <point x="205" y="307" type="line"/>
      <point x="118" y="307"/>
      <point x="39" y="402"/>
    </contour>
    <contour>
      <point x="39" y="472" type="line"/>
      <point x="39" y="482" type="line" smooth="yes"/>
      <point x="39" y="537"/>
      <point x="71" y="696"/>
      <point x="300" y="696" type="curve"/>
      <point x="457" y="696"/>
      <point x="582" y="612"/>
      <point x="582" y="408" type="curve" smooth="yes"/>
      <point x="582" y="320" type="line"/>
      <point x="460" y="320" type="line"/>
      <point x="460" y="408" type="line" smooth="yes"/>
      <point x="460" y="543"/>
      <point x="351" y="582"/>
      <point x="303" y="582" type="curve" smooth="yes"/>
      <point x="262" y="582"/>
      <point x="158" y="587"/>
      <point x="158" y="483" type="curve"/>
    </contour>
    <contour>
      <point x="717" y="-57" type="curve"/>
      <point x="717" y="-180" type="line"/>
      <point x="839" y="-180"/>
      <point x="905" y="-87"/>
      <point x="905" y="-3" type="curve" smooth="yes"/>
      <point x="905" y="118" type="line"/>
      <point x="783" y="118" type="line"/>
      <point x="783" y="-3" type="line" smooth="yes"/>
      <point x="783" y="-40"/>
      <point x="756" y="-57"/>
    </contour>
    <contour>
      <point x="339" y="-58" type="line"/>
      <point x="407" y="-58"/>
      <point x="460" y="-59"/>
      <point x="460" y="-4" type="curve" smooth="yes"/>
      <point x="460" y="118" type="line" smooth="yes"/>
      <point x="582" y="118" type="line" smooth="yes"/>
      <point x="582" y="-4" type="line" smooth="yes"/>
      <point x="582" y="-47"/>
      <point x="613" y="-57"/>
      <point x="663" y="-57" type="curve"/>
      <point x="663" y="-180" type="line"/>
      <point x="611" y="-180"/>
      <point x="540" y="-174"/>
      <point x="526" y="-130" type="curve"/>
      <point x="503" y="-180"/>
      <point x="415" y="-180"/>
      <point x="339" y="-180" type="curve"/>
    </contour>
  </outline>
</glyph>
<glyph name="tml_O" format="1">
  <advance width="895"/>
  <unicode hex="0B92"/>
  <outline>
    <contour>
      <point x="479" y="573" type="curve"/>
      <point x="479" y="695" type="line"/>
      <point x="745" y="695"/>
      <point x="857" y="494"/>
      <point x="857" y="398" type="curve" smooth="yes"/>
      <point x="857" y="165" type="line" smooth="yes"/>
      <point x="857" y="-17"/>
      <point x="483" y="-16"/>
      <point x="483" y="166" type="curve" smooth="yes"/>
      <point x="483" y="350" type="line" smooth="yes"/>
      <point x="606" y="350" type="line"/>
      <point x="606" y="196" type="line"/>
      <point x="606" y="137"/>
      <point x="732" y="136"/>
      <point x="733" y="196" type="curve" smooth="yes"/>
      <point x="733" y="398" type="line" smooth="yes"/>
      <point x="733" y="458"/>
      <point x="641" y="573"/>
    </contour>
    <contour>
      <point x="39" y="177" type="curve" smooth="yes"/>
      <point x="39" y="250" type="line" smooth="yes"/>
      <point x="38" y="354"/>
      <point x="160" y="389"/>
      <point x="210" y="389" type="curve"/>
      <point x="210" y="266" type="line" smooth="yes"/>
      <point x="181" y="266"/>
      <point x="163" y="246"/>
      <point x="163" y="210" type="curve" smooth="yes"/>
      <point x="163" y="173"/>
      <point x="180" y="152"/>
      <point x="210" y="152" type="curve"/>
      <point x="210" y="29" type="line" smooth="yes"/>
      <point x="108" y="29"/>
      <point x="39" y="124"/>
    </contour>
    <contour>
      <point x="265" y="29" type="curve"/>
      <point x="265" y="152" type="line" smooth="yes"/>
      <point x="299" y="152"/>
      <point x="318" y="174"/>
      <point x="317" y="210" type="curve" smooth="yes"/>
      <point x="316" y="244"/>
      <point x="305" y="266"/>
      <point x="265" y="266" type="curve"/>
      <point x="265" y="389" type="line" smooth="yes"/>
      <point x="364" y="389"/>
      <point x="439" y="309"/>
      <point x="439" y="248" type="curve" smooth="yes"/>
      <point x="439" y="177" type="line" smooth="yes"/>
      <point x="439" y="115"/>
      <point x="364" y="29"/>
    </contour>
    <contour>
      <point x="39" y="256" type="curve"/>
      <point x="39" y="310" type="line"/>
      <point x="39" y="452"/>
      <point x="121" y="695"/>
      <point x="426" y="695" type="curve" smooth="yes"/>
      <point x="426" y="695" type="line"/>
      <point x="426" y="573" type="line"/>
      <point x="243" y="573"/>
      <point x="179" y="456"/>
      <point x="179" y="357" type="curve" smooth="yes"/>
      <point x="179" y="300"/>
      <point x="45" y="286"/>
    </contour>
    <contour>
      <point x="483" y="25" type="curve" smooth="yes"/>
      <point x="483" y="276" type="line"/>
      <point x="604" y="171" type="line" smooth="yes"/>
      <point x="604" y="52" type="line" smooth="yes"/>
      <point x="604" y="3"/>
      <point x="678" y="-9"/>
      <point x="752" y="-9" type="curve" smooth="yes"/>
      <point x="752" y="-132" type="line"/>
      <point x="589" y="-132"/>
      <point x="483" y="-66"/>
    </contour>
    <contour>
      <point x="189" y="-124" type="curve"/>
      <point x="308" y="-94" type="line"/>
      <point x="336" y="-151"/>
      <point x="430" y="-156"/>
      <point x="462" y="-94" type="curve" smooth="yes"/>
      <point x="567" y="-155" type="line"/>
      <point x="501" y="-297"/>
      <point x="244" y="-298"/>
    </contour>
  </outline>
</glyph>
<glyph name="tml_Ka" format="1">
  <advance width="839"/>
  <unicode hex="0B95"/>
  <outline>
    <contour>
      <point x="662.548" y="205" type="line"/>
      <point x="658.312" y="237.215"/>
      <point x="644.115" y="254"/>
      <point x="611" y="254" type="curve" smooth="yes"/>
      <point x="229" y="254" type="line" smooth="yes"/>
      <point x="176" y="254"/>
      <point x="173.278" y="226"/>
      <point x="173.278" y="226" type="curve"/>
      <point x="48" y="226" type="line"/>
      <point x="48" y="240" type="line" smooth="yes"/>
      <point x="48" y="347"/>
      <point x="140" y="371"/>
      <point x="226" y="371" type="curve" smooth="yes"/>
      <point x="603" y="371" type="line" smooth="yes"/>
      <point x="709" y="371"/>
      <point x="786" y="350"/>
      <point x="786" y="236" type="curve" smooth="yes"/>
      <point x="786" y="205" type="line"/>
    </contour>
    <contour>
      <point x="785.998" y="155" type="curve"/>
      <point x="661.707" y="155" type="line"/>
      <point x="661.707" y="155"/>
      <point x="656" y="103"/>
      <point x="571" y="103" type="curve" smooth="yes"/>
      <point x="569" y="-11" type="line"/>
      <point x="724.551" y="-11"/>
      <point x="785.648" y="39.6839"/>
    </contour>
    <contour>
      <point x="785.998" y="155" type="move"/>
    </contour>
    <contour>
      <point x="169.156" y="179" type="curve"/>
      <point x="48" y="179" type="line"/>
      <point x="48" y="157" type="line" smooth="yes"/>
      <point x="48" y="68"/>
      <point x="120" y="-11"/>
      <point x="277" y="-11" type="curve"/>
      <point x="277" y="112" type="line"/>
      <point x="192.55" y="112"/>
      <point x="171.126" y="125.505"/>
    </contour>
    <contour>
      <point x="331" y="-11" type="curve"/>
      <point x="331" y="112" type="line"/>
      <point x="397" y="112"/>
      <point x="428" y="141"/>
      <point x="428" y="187" type="curve" smooth="yes"/>
      <point x="428" y="541" type="line"/>
      <point x="550" y="541" type="line"/>
      <point x="550" y="191" type="line" smooth="yes"/>
      <point x="550" y="95"/>
      <point x="498" y="-11"/>
    </contour>
    <contour>
      <point x="173" y="348" type="line"/>
      <point x="173" y="539" type="line"/>
      <point x="296" y="539" type="line"/>
      <point x="295" y="348" type="line"/>
    </contour>
    <contour>
      <point x="389" y="470" type="line"/>
      <point x="389" y="595" type="line"/>
      <point x="682" y="595" type="line"/>
      <point x="682" y="470" type="line"/>
    </contour>
    <contour>
      <point x="173" y="470" type="line"/>
      <point x="173" y="595" type="line"/>
      <point x="335" y="595" type="line"/>
      <point x="335" y="470" type="line"/>
    </contour>
  </outline>
</glyph>
<glyph name="tml_Ca" format="1">
  <advance width="744"/>
  <unicode hex="0B9A"/>
  <outline>
    <contour>
      <point x="372" y="-1" type="move" name="tml_virama"/>
    </contour>
    <contour>
      <point x="39" y="213" type="curve"/>
      <point x="39" y="324.97"/>
      <point x="145.4" y="371"/>
      <point x="235" y="371" type="curve" smooth="yes"/>
      <point x="643" y="371" type="line"/>
      <point x="643" y="249" type="line"/>
      <point x="238" y="249" type="line" smooth="yes"/>
      <point x="180" y="249"/>
      <point x="161.451" y="242"/>
      <point x="161.451" y="213" type="curve" smooth="yes"/>
      <point x="161.451" y="213"/>
      <point x="39" y="213"/>
    </contour>
    <contour>
      <point x="278" y="-1" type="curve"/>
      <point x="278" y="121" type="line"/>
      <point x="195.228" y="121"/>
      <point x="160.311" y="128"/>
      <point x="160.311" y="163" type="curve" smooth="yes"/>
      <point x="39" y="163" type="line"/>
      <point x="39" y="68.424"/>
      <point x="93.9604" y="0.0224424"/>
    </contour>
    <contour>
      <point x="331" y="-1" type="curve"/>
      <point x="331" y="121" type="line"/>
      <point x="397" y="121"/>
      <point x="419" y="141"/>
      <point x="419" y="187" type="curve" smooth="yes"/>
      <point x="419" y="588" type="line"/>
      <point x="541" y="588" type="line"/>
      <point x="541" y="191" type="line" smooth="yes"/>
      <point x="541" y="95"/>
      <point x="498" y="-1"/>
    </contour>
    <contour>
      <point x="164" y="348" type="line"/>
      <point x="164" y="586" type="line"/>
      <point x="287" y="586" type="line"/>
      <point x="286" y="348" type="line"/>
    </contour>
    <contour>
      <point x="381" y="470" type="line"/>
      <point x="381" y="589" type="line"/>
      <point x="688" y="589" type="line"/>
      <point x="688" y="470" type="line"/>
    </contour>
    <contour>
      <point x="164" y="470" type="line"/>
      <point x="164" y="589" type="line"/>
      <point x="327" y="589" type="line"/>
      <point x="327" y="470" type="line"/>
    </contour>
  </outline>
</glyph>
<glyph name="tml_Ja" format="1">
  <advance width="950"/>
  <unicode hex="0B9C"/>
  <outline>
    <contour>
      <point x="286" y="-180" type="line"/>
      <point x="164" y="-180"/>
      <point x="55" y="-92"/>
      <point x="55" y="11" type="curve" smooth="yes"/>
      <point x="55" y="83" type="line" smooth="yes"/>
      <point x="55" y="164"/>
      <point x="125" y="281"/>
      <point x="262" y="281" type="curve" smooth="yes"/>
      <point x="718" y="281" type="line" smooth="yes"/>
      <point x="793" y="281"/>
      <point x="786" y="349"/>
      <point x="786" y="409" type="curve" smooth="yes"/>
      <point x="786" y="448" type="line"/>
      <point x="786" y="512"/>
      <point x="765" y="554"/>
      <point x="718" y="561" type="curve"/>
      <point x="718" y="684" type="line"/>
      <point x="820" y="676"/>
      <point x="910" y="597"/>
      <point x="910" y="448" type="curve"/>
      <point x="910" y="387" type="line" smooth="yes"/>
      <point x="908" y="218"/>
      <point x="816" y="158"/>
      <point x="736" y="158" type="curve" smooth="yes"/>
      <point x="255" y="158" type="line" smooth="yes"/>
      <point x="196" y="158"/>
      <point x="177" y="93"/>
      <point x="177" y="46" type="curve" smooth="yes"/>
      <point x="177" y="-19"/>
      <point x="210" y="-58"/>
      <point x="286" y="-58" type="curve"/>
    </contour>
    <contour>
      <point x="40" y="471" type="curve" smooth="yes"/>
      <point x="41" y="496" type="line" smooth="yes"/>
      <point x="41" y="581"/>
      <point x="136" y="674"/>
      <point x="229" y="686" type="curve" smooth="yes"/>
      <point x="342" y="700"/>
      <point x="424" y="588"/>
      <point x="424" y="499" type="curve" smooth="yes"/>
      <point x="424" y="471" type="line" smooth="yes"/>
      <point x="424" y="410"/>
      <point x="342" y="307"/>
      <point x="260" y="307" type="curve"/>
      <point x="260" y="432" type="line"/>
      <point x="282" y="440"/>
      <point x="302" y="467"/>
      <point x="302" y="499" type="curve" smooth="yes"/>
      <point x="302" y="538"/>
      <point x="271" y="569"/>
      <point x="232" y="569" type="curve" smooth="yes"/>
      <point x="193" y="569"/>
      <point x="162" y="538"/>
      <point x="162" y="499" type="curve" smooth="yes"/>
      <point x="162" y="466"/>
      <point x="183" y="439"/>
      <point x="206" y="431" type="curve"/>
      <point x="206" y="307" type="line"/>
      <point x="119" y="307"/>
      <point x="40" y="402"/>
    </contour>
    <contour>
      <point x="40" y="472" type="line"/>
      <point x="40" y="482" type="line" smooth="yes"/>
      <point x="40" y="537"/>
      <point x="72" y="696"/>
      <point x="301" y="696" type="curve"/>
      <point x="446" y="696"/>
      <point x="583" y="612"/>
      <point x="583" y="408" type="curve" smooth="yes"/>
      <point x="583" y="320" type="line"/>
      <point x="461" y="320" type="line"/>
      <point x="461" y="408" type="line" smooth="yes"/>
      <point x="461" y="543"/>
      <point x="352" y="582"/>
      <point x="304" y="582" type="curve" smooth="yes"/>
      <point x="263" y="582"/>
      <point x="159" y="587"/>
      <point x="159" y="483" type="curve"/>
    </contour>
    <contour>
      <point x="347" y="-55" type="line"/>
      <point x="387" y="-55"/>
      <point x="409" y="-50"/>
      <point x="410" y="-1" type="curve" smooth="yes"/>
      <point x="412" y="90"/>
      <point x="501" y="140"/>
      <point x="598" y="140" type="curve"/>
      <point x="664" y="140" type="line"/>
      <point x="664" y="16" type="line"/>
      <point x="580" y="16" type="line"/>
      <point x="556" y="17"/>
      <point x="531" y="13"/>
      <point x="529" y="-59" type="curve" smooth="yes"/>
      <point x="528" y="-108"/>
      <point x="463" y="-178"/>
      <point x="347" y="-178" type="curve"/>
    </contour>
    <contour>
      <point x="461" y="371" type="line"/>
      <point x="461" y="468" type="line" smooth="yes"/>
      <point x="461" y="601"/>
      <point x="571" y="675"/>
      <point x="664" y="684" type="curve"/>
      <point x="664" y="561" type="line"/>
      <point x="624" y="553"/>
      <point x="583" y="517"/>
      <point x="583" y="451" type="curve" smooth="yes"/>
      <point x="583" y="371" type="line"/>
    </contour>
    <contour>
      <point x="619" y="-55" type="line" smooth="yes"/>
      <point x="682" y="-55"/>
      <point x="782" y="-60"/>
      <point x="782" y="-14" type="curve" smooth="yes"/>
      <point x="782" y="7"/>
      <point x="758" y="15"/>
      <point x="718" y="16" type="curve"/>
      <point x="718" y="140" type="line"/>
      <point x="805" y="140"/>
      <point x="904" y="97"/>
      <point x="904" y="-16" type="curve" smooth="yes"/>
      <point x="904" y="-151"/>
      <point x="774" y="-177"/>
      <point x="619" y="-177" type="curve" smooth="yes"/>
    </contour>
  </outline>
</glyph>
<glyph name="tml_Nya" format="1">
  <advance width="868"/>
  <unicode hex="0B9E"/>
  <outline>
    <contour>
      <point x="46" y="-43" type="line"/>
      <point x="643" y="-43" type="line" smooth="yes"/>
      <point x="705" y="-43"/>
      <point x="706" y="-23"/>
      <point x="706" y="26" type="curve" smooth="yes"/>
      <point x="707" y="154" type="line" smooth="yes"/>
      <point x="707" y="200"/>
      <point x="702" y="201"/>
      <point x="660" y="201" type="curve" smooth="yes"/>
      <point x="660" y="323" type="line"/>
      <point x="745" y="323"/>
      <point x="829" y="296"/>
      <point x="829" y="154" type="curve" smooth="yes"/>
      <point x="829" y="26" type="line" smooth="yes"/>
      <point x="829" y="-82"/>
      <point x="790" y="-165"/>
      <point x="616" y="-165" type="curve" smooth="yes"/>
      <point x="46" y="-165" type="line"/>
    </contour>
    <component base="tml_E"/>
  </outline>
</glyph>
<glyph name="tml_Nna" format="1">
  <advance width="1460"/>
  <unicode hex="0BA3"/>
  <outline>
    <contour>
      <point x="39" y="166" type="curve"/>
      <point x="39" y="289" type="line" smooth="yes"/>
      <point x="39" y="595"/>
      <point x="265" y="595"/>
      <point x="334" y="595" type="curve"/>
      <point x="334" y="472" type="line"/>
      <point x="254" y="472"/>
      <point x="161" y="475"/>
      <point x="161" y="289" type="curve" smooth="yes"/>
      <point x="161" y="167" type="line" smooth="yes"/>
      <point x="161" y="155"/>
      <point x="159" y="121"/>
      <point x="184" y="121" type="curve"/>
      <point x="184" y="-1" type="line" smooth="yes"/>
      <point x="89" y="-1"/>
      <point x="39" y="81"/>
    </contour>
    <contour>
      <point x="209" y="341" type="curve"/>
      <point x="206" y="375"/>
      <point x="237" y="431"/>
      <point x="294" y="436" type="curve"/>
      <point x="361" y="436"/>
      <point x="384" y="377"/>
      <point x="384" y="289" type="curve" smooth="yes"/>
      <point x="384" y="166" type="line" smooth="yes"/>
      <point x="384" y="74"/>
      <point x="335" y="-1"/>
      <point x="238" y="-1" type="curve"/>
      <point x="238" y="121" type="line" smooth="yes"/>
      <point x="266" y="121"/>
      <point x="262" y="155"/>
      <point x="262" y="166" type="curve" smooth="yes"/>
      <point x="262" y="289" type="line" smooth="yes"/>
      <point x="262" y="341"/>
      <point x="230" y="341"/>
    </contour>
    <contour>
      <point x="422" y="167" type="curve"/>
      <point x="422" y="287" type="line" smooth="yes"/>
      <point x="422" y="590"/>
      <point x="690" y="595"/>
      <point x="755" y="595" type="curve"/>
      <point x="755" y="472" type="line"/>
      <point x="666" y="472"/>
      <point x="544" y="475"/>
      <point x="544" y="289" type="curve" smooth="yes"/>
      <point x="544" y="168" type="line" smooth="yes"/>
      <point x="544" y="156"/>
      <point x="542" y="122"/>
      <point x="567" y="122" type="curve"/>
      <point x="567" y="0" type="line" smooth="yes"/>
      <point x="472" y="0"/>
      <point x="422" y="82"/>
    </contour>
    <contour>
      <point x="388" y="472" type="curve"/>
      <point x="388" y="595" type="line"/>
      <point x="530" y="595"/>
      <point x="767" y="585"/>
      <point x="767" y="300" type="curve" smooth="yes"/>
      <point x="767" y="167" type="line" smooth="yes"/>
      <point x="767" y="75"/>
      <point x="717" y="0"/>
      <point x="620" y="0" type="curve"/>
      <point x="620" y="122" type="line" smooth="yes"/>
      <point x="648" y="122"/>
      <point x="645" y="156"/>
      <point x="645" y="167" type="curve" smooth="yes"/>
      <point x="645" y="289" type="line" smooth="yes"/>
      <point x="645" y="475"/>
      <point x="521" y="471"/>
    </contour>
    <contour>
      <point x="809" y="473" type="curve"/>
      <point x="809" y="595" type="line"/>
      <point x="941" y="595"/>
      <point x="1152" y="586"/>
      <point x="1152" y="301" type="curve" smooth="yes"/>
      <point x="1152" y="168" type="line" smooth="yes"/>
      <point x="1152" y="76"/>
      <point x="1103" y="1"/>
      <point x="1006" y="1" type="curve"/>
      <point x="1006" y="123" type="line" smooth="yes"/>
      <point x="1034" y="123"/>
      <point x="1029" y="157"/>
      <point x="1029" y="168" type="curve" smooth="yes"/>
      <point x="1029" y="290" type="line" smooth="yes"/>
      <point x="1029" y="476"/>
      <point x="932" y="473"/>
    </contour>
    <contour>
      <point x="807" y="168" type="curve"/>
      <point x="807" y="288" type="line" smooth="yes"/>
      <point x="807" y="591"/>
      <point x="1075" y="595"/>
      <point x="1139" y="595" type="curve"/>
      <point x="1139" y="473" type="line"/>
      <point x="1051" y="473"/>
      <point x="929" y="476"/>
      <point x="929" y="290" type="curve" smooth="yes"/>
      <point x="929" y="169" type="line" smooth="yes"/>
      <point x="929" y="157"/>
      <point x="927" y="123"/>
      <point x="952" y="123" type="curve"/>
      <point x="952" y="1" type="line" smooth="yes"/>
      <point x="857" y="1"/>
      <point x="807" y="83"/>
    </contour>
    <contour>
      <point x="1203" y="1" type="line"/>
      <point x="1203" y="563" type="line"/>
      <point x="1325" y="563" type="line"/>
      <point x="1325" y="1" type="line"/>
    </contour>
    <contour>
      <point x="1194" y="473" type="line"/>
      <point x="1194" y="595" type="line"/>
      <point x="1422" y="595" type="line"/>
      <point x="1422" y="472" type="line"/>
    </contour>
  </outline>
</glyph>
<glyph name="tml_Ta" format="1">
  <advance width="790"/>
  <unicode hex="0BA4"/>
  <outline>
    <contour>
      <point x="130" y="-256" type="line"/>
      <point x="130" y="-107"/>
      <point x="193" y="-36"/>
      <point x="329" y="-36" type="curve" smooth="yes"/>
      <point x="559" y="-36" type="line" smooth="yes"/>
      <point x="608" y="-36"/>
      <point x="610" y="-6"/>
      <point x="610" y="24" type="curve" smooth="yes"/>
      <point x="611" y="151" type="line"/>
      <point x="733" y="151" type="line"/>
      <point x="733" y="24" type="line" smooth="yes"/>
      <point x="733" y="-42"/>
      <point x="713" y="-158"/>
      <point x="560" y="-158" type="curve" smooth="yes"/>
      <point x="312" y="-158" type="line" smooth="yes"/>
      <point x="271" y="-158"/>
      <point x="258" y="-180"/>
      <point x="258" y="-256" type="curve"/>
    </contour>
    <contour>
      <point x="39" y="165" type="curve"/>
      <point x="162" y="165" type="line"/>
      <point x="169" y="128"/>
      <point x="196" y="125"/>
      <point x="269" y="125" type="curve"/>
      <point x="269" y="2" type="line"/>
      <point x="109" y="2"/>
      <point x="39" y="72"/>
    </contour>
    <contour>
      <point x="39" y="205" type="curve"/>
      <point x="160" y="205" type="line"/>
      <point x="160" y="245"/>
      <point x="181" y="252"/>
      <point x="238" y="252" type="curve" smooth="yes"/>
      <point x="576" y="251" type="line"/>
      <point x="618" y="251"/>
      <point x="611" y="205"/>
      <point x="611" y="205" type="curve" smooth="yes"/>
      <point x="733" y="205" type="line"/>
      <point x="733" y="352"/>
      <point x="655" y="374"/>
      <point x="564" y="374" type="curve"/>
      <point x="235" y="374" type="line" smooth="yes"/>
      <point x="138" y="374"/>
      <point x="39" y="325"/>
    </contour>
    <contour>
      <point x="322" y="2" type="line"/>
      <point x="489" y="2"/>
      <point x="541" y="98"/>
      <point x="541" y="194" type="curve" smooth="yes"/>
      <point x="541" y="591" type="line"/>
      <point x="419" y="591" type="line"/>
      <point x="419" y="190" type="line" smooth="yes"/>
      <point x="419" y="144"/>
      <point x="388" y="125"/>
      <point x="322" y="125" type="curve"/>
    </contour>
    <contour>
      <point x="164" y="351" type="line"/>
      <point x="286" y="351" type="line"/>
      <point x="287" y="589" type="line"/>
      <point x="164" y="589" type="line"/>
    </contour>
    <contour>
      <point x="380" y="473" type="line"/>
      <point x="673" y="473" type="line"/>
      <point x="673" y="595" type="line"/>
      <point x="380" y="595" type="line"/>
    </contour>
    <contour>
      <point x="164" y="473" type="line"/>
      <point x="326" y="473" type="line"/>
      <point x="326" y="595" type="line"/>
      <point x="164" y="595" type="line"/>
    </contour>
  </outline>
</glyph>
<glyph name="tml_Na" format="1">
  <advance width="681"/>
  <unicode hex="0BA8"/>
  <outline>
    <contour>
      <point x="285" y="595" type="line"/>
      <point x="575" y="595" type="line"/>
      <point x="575" y="474" type="line"/>
      <point x="286" y="474" type="line"/>
    </contour>
    <contour>
      <point x="39" y="-308" type="line"/>
      <point x="39" y="-158"/>
      <point x="110" y="-86"/>
      <point x="247" y="-86" type="curve" smooth="yes"/>
      <point x="468" y="-86" type="line" smooth="yes"/>
      <point x="517" y="-86"/>
      <point x="520" y="-5"/>
      <point x="520" y="25" type="curve" smooth="yes"/>
      <point x="521" y="206" type="line" smooth="yes"/>
      <point x="521" y="252"/>
      <point x="516" y="253"/>
      <point x="489" y="253" type="curve" smooth="yes"/>
      <point x="489" y="375" type="line"/>
      <point x="565" y="375"/>
      <point x="643" y="353"/>
      <point x="643" y="206" type="curve" smooth="yes"/>
      <point x="643" y="25" type="line" smooth="yes"/>
      <point x="643" y="-41"/>
      <point x="622" y="-208"/>
      <point x="469" y="-208" type="curve" smooth="yes"/>
      <point x="226" y="-208" type="line" smooth="yes"/>
      <point x="184" y="-208"/>
      <point x="167" y="-233"/>
      <point x="167" y="-308" type="curve"/>
    </contour>
    <contour>
      <point x="312" y="0" type="line"/>
      <point x="313" y="588" type="line"/>
      <point x="436" y="588" type="line"/>
      <point x="437" y="0" type="line"/>
    </contour>
    <contour>
      <point x="71" y="0" type="line"/>
      <point x="71" y="590" type="line"/>
      <point x="193" y="590" type="line"/>
      <point x="193" y="0" type="line"/>
    </contour>
    <contour>
      <point x="71" y="595" type="line"/>
      <point x="221" y="595" type="line"/>
      <point x="221" y="474" type="line"/>
      <point x="72" y="474" type="line"/>
    </contour>
  </outline>
</glyph>
<glyph name="tml_Nnna" format="1">
  <advance width="1076"/>
  <unicode hex="0BA9"/>
  <outline>
    <contour>
      <point x="581" y="0" type="move" name="tml_virama"/>
    </contour>
    <contour>
      <point x="423" y="154" type="curve"/>
      <point x="423" y="288" type="line" smooth="yes"/>
      <point x="423" y="591"/>
      <point x="689" y="606"/>
      <point x="748" y="606" type="curve"/>
      <point x="748" y="484" type="line"/>
      <point x="667" y="484"/>
      <point x="545" y="477"/>
      <point x="545" y="290" type="curve" smooth="yes"/>
      <point x="545" y="155" type="line" smooth="yes"/>
      <point x="545" y="143"/>
      <point x="543" y="109"/>
      <point x="568" y="109" type="curve"/>
      <point x="568" y="-13" type="line" smooth="yes"/>
      <point x="473" y="-13"/>
      <point x="423" y="69"/>
    </contour>
    <contour>
      <point x="389" y="483" type="curve"/>
      <point x="389" y="605" type="line"/>
      <point x="531" y="605"/>
      <point x="768" y="586"/>
      <point x="768" y="301" type="curve" smooth="yes"/>
      <point x="768" y="154" type="line" smooth="yes"/>
      <point x="768" y="62"/>
      <point x="719" y="-13"/>
      <point x="622" y="-13" type="curve"/>
      <point x="622" y="109" type="line" smooth="yes"/>
      <point x="650" y="109"/>
      <point x="646" y="143"/>
      <point x="646" y="154" type="curve" smooth="yes"/>
      <point x="646" y="290" type="line" smooth="yes"/>
      <point x="646" y="476"/>
      <point x="522" y="482"/>
    </contour>
    <contour>
      <point x="40" y="153" type="curve"/>
      <point x="40" y="290" type="line" smooth="yes"/>
      <point x="40" y="596"/>
      <point x="266" y="605"/>
      <point x="335" y="605" type="curve"/>
      <point x="335" y="483" type="line"/>
      <point x="255" y="483"/>
      <point x="162" y="476"/>
      <point x="162" y="290" type="curve" smooth="yes"/>
      <point x="162" y="154" type="line" smooth="yes"/>
      <point x="162" y="142"/>
      <point x="161" y="108"/>
      <point x="186" y="108" type="curve"/>
      <point x="186" y="-14" type="line" smooth="yes"/>
      <point x="91" y="-14"/>
      <point x="40" y="68"/>
    </contour>
    <contour>
      <point x="210" y="342" type="curve"/>
      <point x="207" y="376"/>
      <point x="238" y="432"/>
      <point x="295" y="437" type="curve"/>
      <point x="362" y="437"/>
      <point x="385" y="378"/>
      <point x="385" y="290" type="curve" smooth="yes"/>
      <point x="385" y="154" type="line" smooth="yes"/>
      <point x="385" y="62"/>
      <point x="336" y="-14"/>
      <point x="239" y="-14" type="curve"/>
      <point x="239" y="109" type="line" smooth="yes"/>
      <point x="267" y="109"/>
      <point x="263" y="143"/>
      <point x="263" y="154" type="curve" smooth="yes"/>
      <point x="263" y="290" type="line" smooth="yes"/>
      <point x="263" y="342"/>
      <point x="231" y="342"/>
    </contour>
    <contour>
      <point x="801" y="483" type="line"/>
      <point x="801" y="605" type="line"/>
      <point x="1037" y="605" type="line"/>
      <point x="1037" y="482" type="line"/>
    </contour>
    <contour>
      <point x="819" y="0" type="line"/>
      <point x="819" y="573" type="line"/>
      <point x="941" y="573" type="line"/>
      <point x="941" y="0" type="line"/>
    </contour>
  </outline>
</glyph>
<glyph name="tml_Pa" format="1">
  <advance width="537"/>
  <unicode hex="0BAA"/>
  <outline>
    <contour>
      <point x="271" y="0" type="move" name="_@MARKS_CLASS_0_LUT0_SUB0"/>
    </contour>
    <contour>
      <point x="39" y="107" type="line"/>
      <point x="39" y="595" type="line"/>
      <point x="161" y="595" type="line"/>
      <point x="161" y="107" type="line"/>
    </contour>
    <contour>
      <point x="376" y="104" type="line"/>
      <point x="376" y="595" type="line"/>
      <point x="498" y="595" type="line"/>
      <point x="498" y="104" type="line"/>
    </contour>
    <contour>
      <point x="297" y="1" type="line"/>
      <point x="297" y="123" type="line"/>
      <point x="498" y="123" type="line"/>
      <point x="498" y="1" type="line"/>
    </contour>
    <contour>
      <point x="39" y="1" type="line"/>
      <point x="39" y="123" type="line"/>
      <point x="241" y="123" type="line"/>
      <point x="241" y="1" type="line"/>
    </contour>
  </outline>
</glyph>
<glyph name="tml_Ya" format="1">
  <advance width="724"/>
  <unicode hex="0BAF"/>
  <outline>
    <contour>
      <point x="401" y="0" type="move" name="_@MARKS_CLASS_0_LUT0_SUB0"/>
    </contour>
    <contour>
      <point x="529" y="0" type="line"/>
      <point x="529" y="119" type="line"/>
      <point x="535" y="119" type="line" smooth="yes"/>
      <point x="556" y="119"/>
      <point x="563" y="132"/>
      <point x="563" y="145" type="curve"/>
      <point x="563" y="595" type="line"/>
      <point x="686" y="595" type="line"/>
      <point x="686" y="0" type="line"/>
    </contour>
    <contour>
      <point x="39" y="140" type="curve" smooth="yes"/>
      <point x="39" y="595" type="line"/>
      <point x="161" y="595" type="line"/>
      <point x="161" y="145" type="line"/>
      <point x="161" y="134"/>
      <point x="166" y="119"/>
      <point x="189" y="119" type="curve" smooth="yes"/>
      <point x="195" y="119" type="line"/>
      <point x="195" y="0" type="line"/>
      <point x="189" y="0" type="line" smooth="yes"/>
      <point x="92" y="0"/>
      <point x="39" y="96"/>
    </contour>
    <contour>
      <point x="249" y="0" type="line"/>
      <point x="249" y="119" type="line"/>
      <point x="255" y="119" type="line" smooth="yes"/>
      <point x="277" y="119"/>
      <point x="319" y="121"/>
      <point x="319" y="145" type="curve"/>
      <point x="319" y="595" type="line"/>
      <point x="441" y="595" type="line"/>
      <point x="441" y="145" type="line" smooth="yes"/>
      <point x="441" y="134"/>
      <point x="448" y="119"/>
      <point x="470" y="119" type="curve" smooth="yes"/>
      <point x="476" y="119" type="line"/>
      <point x="476" y="0" type="line"/>
      <point x="319" y="0" type="line"/>
      <point x="314" y="33" type="line"/>
      <point x="309" y="12"/>
      <point x="288" y="0"/>
      <point x="255" y="0" type="curve" smooth="yes"/>
    </contour>
  </outline>
</glyph>
<glyph name="tml_Ra" format="1">
  <advance width="595"/>
  <unicode hex="0BB0"/>
  <outline>
    <contour>
      <point x="271" y="0" type="move" name="tml_virama"/>
    </contour>
    <contour>
      <point x="151" y="-177" type="line"/>
      <point x="320" y="33" type="line"/>
      <point x="320" y="591" type="line"/>
      <point x="445" y="591" type="line"/>
      <point x="443" y="0" type="line" smooth="yes"/>
      <point x="294" y="-177" type="line"/>
    </contour>
    <contour>
      <point x="39" y="0" type="line"/>
      <point x="39" y="595" type="line"/>
      <point x="161" y="595" type="line"/>
      <point x="161" y="0" type="line"/>
    </contour>
    <contour>
      <point x="271" y="473" type="line"/>
      <point x="271" y="595" type="line"/>
      <point x="557" y="595" type="line"/>
      <point x="557" y="473" type="line"/>
    </contour>
    <contour>
      <point x="41" y="473" type="line"/>
      <point x="41" y="595" type="line"/>
      <point x="217" y="595" type="line"/>
      <point x="217" y="473" type="line"/>
    </contour>
  </outline>
</glyph>
<glyph name="tml_Rra" format="1">
  <advance width="750"/>
  <unicode hex="0BB1"/>
  <outline>
    <contour>
      <point x="371" y="0" type="move" name="_@MARKS_CLASS_0_LUT0_SUB0"/>
    </contour>
    <contour>
      <point x="39" y="-311" type="line"/>
      <point x="39" y="-169"/>
      <point x="91" y="-88"/>
      <point x="233" y="-88" type="curve" smooth="yes"/>
      <point x="472" y="-88" type="line" smooth="yes"/>
      <point x="557" y="-88"/>
      <point x="569" y="-30"/>
      <point x="569" y="47" type="curve" smooth="yes"/>
      <point x="569" y="460" type="line" smooth="yes"/>
      <point x="569" y="481"/>
      <point x="549" y="484"/>
      <point x="527" y="484" type="curve"/>
      <point x="527" y="606" type="line"/>
      <point x="640" y="606"/>
      <point x="691" y="530"/>
      <point x="691" y="475" type="curve" smooth="yes"/>
      <point x="691" y="64" type="line" smooth="yes"/>
      <point x="691" y="-128"/>
      <point x="615" y="-210"/>
      <point x="498" y="-210" type="curve" smooth="yes"/>
      <point x="237" y="-210" type="line" smooth="yes"/>
      <point x="190" y="-210"/>
      <point x="161" y="-231"/>
      <point x="161" y="-311" type="curve"/>
    </contour>
    <contour>
      <point x="70" y="0" type="line"/>
      <point x="70" y="479" type="line" smooth="yes"/>
      <point x="70" y="529"/>
      <point x="111" y="606"/>
      <point x="223" y="606" type="curve"/>
      <point x="223" y="483" type="line"/>
      <point x="198" y="483"/>
      <point x="192" y="471"/>
      <point x="192" y="458" type="curve" smooth="yes"/>
      <point x="194" y="1" type="line"/>
    </contour>
    <contour>
      <point x="276" y="483" type="curve"/>
      <point x="276" y="606" type="line"/>
      <point x="322" y="606"/>
      <point x="352" y="597"/>
      <point x="376" y="576" type="curve"/>
      <point x="404" y="599"/>
      <point x="437" y="606"/>
      <point x="476" y="606" type="curve"/>
      <point x="476" y="484" type="line"/>
      <point x="458" y="484"/>
      <point x="436" y="481"/>
      <point x="436" y="459" type="curve" smooth="yes"/>
      <point x="438" y="2" type="line"/>
      <point x="316" y="1" type="line"/>
      <point x="314" y="458" type="line" smooth="yes"/>
      <point x="314" y="472"/>
      <point x="302" y="483"/>
    </contour>
  </outline>
</glyph>
<glyph name="tml_La" format="1">
  <advance width="892"/>
  <unicode hex="0BB2"/>
  <outline>
    <contour>
      <point x="551" y="0" type="move" name="tml_virama"/>
    </contour>
    <contour>
      <point x="265" y="0" type="line"/>
      <point x="374" y="0"/>
      <point x="435" y="89"/>
      <point x="434" y="152" type="curve" smooth="yes"/>
      <point x="434" y="224" type="line" smooth="yes"/>
      <point x="434" y="276"/>
      <point x="361" y="359"/>
      <point x="265" y="359" type="curve" smooth="yes"/>
      <point x="265" y="237" type="line"/>
      <point x="307" y="237"/>
      <point x="310" y="208"/>
      <point x="311" y="181" type="curve" smooth="yes"/>
      <point x="312" y="150"/>
      <point x="306" y="122"/>
      <point x="265" y="122" type="curve" smooth="yes"/>
    </contour>
    <contour>
      <point x="39" y="151" type="curve" smooth="yes"/>
      <point x="39" y="91"/>
      <point x="108" y="0"/>
      <point x="210" y="0" type="curve" smooth="yes"/>
      <point x="210" y="122" type="line"/>
      <point x="177" y="122"/>
      <point x="163" y="149"/>
      <point x="163" y="181" type="curve" smooth="yes"/>
      <point x="163" y="210"/>
      <point x="181" y="237"/>
      <point x="210" y="237" type="curve" smooth="yes"/>
      <point x="210" y="359" type="line"/>
      <point x="160" y="359"/>
      <point x="38" y="324"/>
      <point x="39" y="220" type="curve" smooth="yes"/>
      <point x="40" y="140"/>
      <point x="39" y="193"/>
    </contour>
    <contour>
      <point x="39" y="226" type="line"/>
      <point x="45" y="256"/>
      <point x="170" y="270"/>
      <point x="170" y="327" type="curve" smooth="yes"/>
      <point x="170" y="427"/>
      <point x="232" y="485"/>
      <point x="297" y="485" type="curve"/>
      <point x="297" y="606" type="line"/>
      <point x="118" y="606"/>
      <point x="39" y="424"/>
      <point x="39" y="323" type="curve" smooth="yes"/>
    </contour>
    <contour>
      <point x="351" y="484" type="line"/>
      <point x="429" y="484"/>
      <point x="470" y="418"/>
      <point x="471" y="354" type="curve" smooth="yes"/>
      <point x="472" y="165" type="line" smooth="yes"/>
      <point x="472" y="84"/>
      <point x="520" y="0"/>
      <point x="635" y="0" type="curve"/>
      <point x="635" y="123" type="line"/>
      <point x="610" y="123"/>
      <point x="594" y="138"/>
      <point x="594" y="165" type="curve" smooth="yes"/>
      <point x="594" y="353" type="line" smooth="yes"/>
      <point x="593" y="456"/>
      <point x="519" y="606"/>
      <point x="351" y="606" type="curve"/>
    </contour>
    <contour>
      <point x="680" y="594" type="curve"/>
      <point x="681" y="471" type="line"/>
      <point x="719" y="471"/>
      <point x="731" y="458"/>
      <point x="731" y="422" type="curve"/>
      <point x="731" y="166" type="line"/>
      <point x="731" y="139"/>
      <point x="715" y="123"/>
      <point x="688" y="123" type="curve"/>
      <point x="688" y="0" type="line"/>
      <point x="798" y="0"/>
      <point x="854" y="81"/>
      <point x="854" y="166" type="curve" smooth="yes"/>
      <point x="854" y="424" type="line" smooth="yes"/>
      <point x="854" y="541"/>
      <point x="800" y="595"/>
    </contour>
  </outline>
</glyph>
<glyph name="tml_Lla" format="1">
  <advance width="976"/>
  <unicode hex="0BB3"/>
  <outline>
    <contour>
      <point x="531" y="0" type="move" name="tml_virama"/>
    </contour>
    <contour>
      <point x="41" y="151" type="curve" smooth="yes"/>
      <point x="41" y="91"/>
      <point x="110" y="0"/>
      <point x="212" y="0" type="curve" smooth="yes"/>
      <point x="212" y="122" type="line"/>
      <point x="179" y="122"/>
      <point x="165" y="149"/>
      <point x="165" y="181" type="curve" smooth="yes"/>
      <point x="165" y="210"/>
      <point x="183" y="237"/>
      <point x="212" y="237" type="curve" smooth="yes"/>
      <point x="212" y="359" type="line"/>
      <point x="162" y="359"/>
      <point x="40" y="324"/>
      <point x="41" y="220" type="curve" smooth="yes"/>
      <point x="42" y="140"/>
      <point x="41" y="193"/>
    </contour>
    <contour>
      <point x="267" y="0" type="line"/>
      <point x="376" y="0"/>
      <point x="437" y="89"/>
      <point x="436" y="152" type="curve" smooth="yes"/>
      <point x="436" y="224" type="line" smooth="yes"/>
      <point x="436" y="276"/>
      <point x="363" y="359"/>
      <point x="267" y="359" type="curve" smooth="yes"/>
      <point x="267" y="237" type="line"/>
      <point x="309" y="237"/>
      <point x="312" y="208"/>
      <point x="313" y="181" type="curve" smooth="yes"/>
      <point x="314" y="150"/>
      <point x="308" y="122"/>
      <point x="267" y="122" type="curve" smooth="yes"/>
    </contour>
    <contour>
      <point x="353" y="484" type="line"/>
      <point x="422" y="484"/>
      <point x="473" y="417"/>
      <point x="474" y="354" type="curve"/>
      <point x="475" y="0" type="line"/>
      <point x="601" y="0" type="line"/>
      <point x="597" y="355" type="line"/>
      <point x="597" y="454"/>
      <point x="515" y="605"/>
      <point x="353" y="605" type="curve"/>
    </contour>
    <contour>
      <point x="41" y="226" type="line"/>
      <point x="47" y="256"/>
      <point x="172" y="270"/>
      <point x="172" y="327" type="curve" smooth="yes"/>
      <point x="172" y="427"/>
      <point x="234" y="484"/>
      <point x="299" y="484" type="curve"/>
      <point x="299" y="605" type="line"/>
      <point x="120" y="605"/>
      <point x="41" y="427"/>
      <point x="41" y="326" type="curve" smooth="yes"/>
    </contour>
    <contour>
      <point x="474" y="325" type="curve"/>
      <point x="597" y="326" type="line"/>
      <point x="597" y="454"/>
      <point x="619" y="482"/>
      <point x="660" y="482" type="curve"/>
      <point x="660" y="605" type="line"/>
      <point x="487" y="605"/>
      <point x="474" y="440"/>
    </contour>
    <contour>
      <point x="742" y="0" type="line"/>
      <point x="864" y="0" type="line"/>
      <point x="864" y="574" type="line"/>
      <point x="742" y="574" type="line"/>
    </contour>
    <contour>
      <point x="714" y="482" type="line"/>
      <point x="938" y="482" type="line"/>
      <point x="938" y="605" type="line"/>
      <point x="714" y="605" type="line"/>
    </contour>
  </outline>
</glyph>
<glyph name="tml_Llla" format="1">
  <advance width="663"/>
  <unicode hex="0BB4"/>
  <outline>
    <contour>
      <point x="441" y="0" type="move" name="tml_virama"/>
    </contour>
    <contour>
      <point x="175" y="-67" type="curve"/>
      <point x="53" y="-67" type="line"/>
      <point x="53" y="-191"/>
      <point x="183" y="-260"/>
      <point x="327" y="-165" type="curve"/>
      <point x="281" y="-160"/>
      <point x="235" y="-119"/>
      <point x="231" y="-87" type="curve"/>
      <point x="213" y="-103"/>
      <point x="176" y="-91"/>
    </contour>
    <contour>
      <point x="243" y="1" type="curve"/>
      <point x="365" y="1" type="line"/>
      <point x="365" y="-29"/>
      <point x="401" y="-22"/>
      <point x="559" y="-22" type="curve"/>
      <point x="559" y="-146" type="line" smooth="yes"/>
      <point x="429" y="-145" type="line"/>
      <point x="265" y="-146"/>
      <point x="243" y="-60"/>
    </contour>
    <component base="tml_Ma"/>
  </outline>
</glyph>
<glyph name="tml_Va" format="1">
  <advance width="873"/>
  <unicode hex="0BB5"/>
  <outline>
    <contour>
      <point x="267" y="0" type="curve"/>
      <point x="267" y="122" type="line"/>
      <point x="299" y="123"/>
      <point x="314" y="142"/>
      <point x="314" y="180" type="curve" smooth="yes"/>
      <point x="314" y="218"/>
      <point x="298" y="237"/>
      <point x="267" y="237" type="curve"/>
      <point x="267" y="359" type="line" smooth="yes"/>
      <point x="363" y="359"/>
      <point x="436" y="276"/>
      <point x="436" y="224" type="curve" smooth="yes"/>
      <point x="436" y="152" type="line" smooth="yes"/>
      <point x="437" y="89"/>
      <point x="376" y="0"/>
    </contour>
    <contour>
      <point x="40" y="151" type="curve" smooth="yes"/>
      <point x="40" y="220" type="line" smooth="yes"/>
      <point x="39" y="324"/>
      <point x="162" y="359"/>
      <point x="212" y="359" type="curve"/>
      <point x="212" y="237" type="line" smooth="yes"/>
      <point x="183" y="237"/>
      <point x="165" y="218"/>
      <point x="165" y="181" type="curve" smooth="yes"/>
      <point x="165" y="147"/>
      <point x="179" y="122"/>
      <point x="212" y="122" type="curve"/>
      <point x="212" y="0" type="line" smooth="yes"/>
      <point x="110" y="0"/>
      <point x="40" y="91"/>
    </contour>
    <contour>
      <point x="40" y="226" type="line"/>
      <point x="40" y="305" type="line"/>
      <point x="40" y="433"/>
      <point x="91" y="605"/>
      <point x="301" y="605" type="curve"/>
      <point x="301" y="483" type="line"/>
      <point x="237" y="483"/>
      <point x="178" y="439"/>
      <point x="176" y="354" type="curve" smooth="yes"/>
    </contour>
    <contour>
      <point x="352" y="483" type="curve"/>
      <point x="352" y="605" type="line"/>
      <point x="521" y="605"/>
      <point x="608" y="466"/>
      <point x="609" y="355" type="curve"/>
      <point x="609" y="123" type="line"/>
      <point x="656" y="123" type="line"/>
      <point x="656" y="0" type="line"/>
      <point x="455" y="0" type="line"/>
      <point x="455" y="123" type="line"/>
      <point x="462" y="124"/>
      <point x="488" y="127"/>
      <point x="488" y="146" type="curve" smooth="yes"/>
      <point x="488" y="354" type="line"/>
      <point x="487" y="423"/>
      <point x="429" y="483"/>
    </contour>
    <contour>
      <point x="711" y="0" type="line"/>
      <point x="711" y="595" type="line"/>
      <point x="834" y="595" type="line"/>
      <point x="834" y="0" type="line"/>
    </contour>
  </outline>
</glyph>
<glyph name="tml_Sha" format="1">
  <advance width="1258"/>
  <unicode hex="0BB6"/>
  <outline>
    <contour>
      <point x="302" y="473" type="line"/>
      <point x="930" y="473" type="line"/>
      <point x="930" y="595" type="line"/>
      <point x="302" y="595" type="line"/>
    </contour>
    <contour>
      <point x="764" y="-0" type="line"/>
      <point x="790" y="-0" type="line" smooth="yes"/>
      <point x="897" y="0"/>
      <point x="930" y="109"/>
      <point x="930" y="168" type="curve"/>
      <point x="930" y="582" type="line"/>
      <point x="808" y="582" type="line"/>
      <point x="808" y="168" type="line"/>
      <point x="808" y="141"/>
      <point x="790" y="124"/>
      <point x="764" y="124" type="curve"/>
    </contour>
    <contour>
      <point x="548" y="168" type="line" smooth="yes"/>
      <point x="548" y="112"/>
      <point x="571" y="0"/>
      <point x="688" y="-0" type="curve" smooth="yes"/>
      <point x="710" y="-0" type="line"/>
      <point x="710" y="124" type="line"/>
      <point x="683" y="124"/>
      <point x="670" y="138"/>
      <point x="670" y="168" type="curve" smooth="yes"/>
      <point x="670" y="582" type="line" smooth="yes"/>
      <point x="548" y="582" type="line"/>
    </contour>
    <contour>
      <point x="258" y="0" type="line"/>
      <point x="284" y="0" type="line" smooth="yes"/>
      <point x="391" y="0"/>
      <point x="424" y="109"/>
      <point x="424" y="168" type="curve"/>
      <point x="424" y="582" type="line"/>
      <point x="302" y="582" type="line"/>
      <point x="302" y="168" type="line"/>
      <point x="302" y="141"/>
      <point x="284" y="124"/>
      <point x="258" y="124" type="curve"/>
    </contour>
    <contour>
      <point x="42" y="168" type="line" smooth="yes"/>
      <point x="42" y="112"/>
      <point x="66" y="0"/>
      <point x="183" y="0" type="curve" smooth="yes"/>
      <point x="204" y="0" type="line"/>
      <point x="204" y="124" type="line"/>
      <point x="177" y="124"/>
      <point x="164" y="138"/>
      <point x="164" y="168" type="curve" smooth="yes"/>
      <point x="164" y="595" type="line" smooth="yes"/>
      <point x="42" y="595" type="line"/>
    </contour>
  </outline>
</glyph>
<glyph name="tml_Ssa" format="1">
  <advance width="1258"/>
  <unicode hex="0BB7"/>
  <outline>
    <contour>
      <point x="267" y="0" type="line"/>
      <point x="376" y="0"/>
      <point x="437" y="89"/>
      <point x="436" y="152" type="curve" smooth="yes"/>
      <point x="436" y="224" type="line" smooth="yes"/>
      <point x="436" y="276"/>
      <point x="363" y="359"/>
      <point x="267" y="359" type="curve" smooth="yes"/>
      <point x="267" y="237" type="line"/>
      <point x="298" y="237"/>
      <point x="314" y="218"/>
      <point x="314" y="180" type="curve" smooth="yes"/>
      <point x="314" y="142"/>
      <point x="299" y="123"/>
      <point x="267" y="122" type="curve"/>
    </contour>
    <contour>
      <point x="40" y="151" type="line" smooth="yes"/>
      <point x="40" y="91"/>
      <point x="110" y="0"/>
      <point x="212" y="0" type="curve" smooth="yes"/>
      <point x="212" y="122" type="line"/>
      <point x="179" y="122"/>
      <point x="165" y="147"/>
      <point x="165" y="181" type="curve" smooth="yes"/>
      <point x="165" y="218"/>
      <point x="183" y="237"/>
      <point x="212" y="237" type="curve" smooth="yes"/>
      <point x="212" y="359" type="line"/>
      <point x="162" y="359"/>
      <point x="39" y="324"/>
      <point x="40" y="220" type="curve" smooth="yes"/>
    </contour>
    <contour>
      <point x="40" y="226" type="line"/>
      <point x="176" y="354" type="line" smooth="yes"/>
      <point x="178" y="439"/>
      <point x="237" y="483"/>
      <point x="301" y="483" type="curve"/>
      <point x="301" y="605" type="line"/>
      <point x="91" y="605"/>
      <point x="40" y="433"/>
      <point x="40" y="305" type="curve"/>
    </contour>
    <contour>
      <point x="351" y="483" type="line"/>
      <point x="428" y="483"/>
      <point x="486" y="424"/>
      <point x="487" y="354" type="curve"/>
      <point x="487" y="146" type="line" smooth="yes"/>
      <point x="487" y="127"/>
      <point x="461" y="124"/>
      <point x="454" y="123" type="curve"/>
      <point x="454" y="0" type="line"/>
      <point x="850" y="0" type="line"/>
      <point x="850" y="123" type="line"/>
      <point x="608" y="123" type="line"/>
      <point x="608" y="355" type="line"/>
      <point x="607" y="466"/>
      <point x="520" y="605"/>
      <point x="351" y="605" type="curve"/>
    </contour>
    <contour>
      <point x="903" y="485" type="line"/>
      <point x="942" y="485"/>
      <point x="962" y="486"/>
      <point x="962" y="413" type="curve" smooth="yes"/>
      <point x="962" y="158" type="line"/>
      <point x="1084" y="158" type="line"/>
      <point x="1084" y="413" type="line" smooth="yes"/>
      <point x="1084" y="561"/>
      <point x="1006" y="607"/>
      <point x="903" y="607" type="curve"/>
    </contour>
    <contour>
      <point x="962" y="123" type="line"/>
      <point x="962" y="-178" type="line"/>
      <point x="1084" y="-178" type="line"/>
      <point x="1084" y="123" type="line"/>
    </contour>
    <contour>
      <point x="903" y="158" type="line"/>
      <point x="1220" y="158" type="line"/>
      <point x="1220" y="280" type="line" smooth="yes"/>
      <point x="903" y="280" type="line"/>
    </contour>
    <contour>
      <point x="669" y="334" type="line" smooth="yes"/>
      <point x="669" y="191"/>
      <point x="746" y="158"/>
      <point x="850" y="158" type="curve"/>
      <point x="850" y="279" type="line"/>
      <point x="806" y="279"/>
      <point x="792" y="287"/>
      <point x="792" y="340" type="curve" smooth="yes"/>
      <point x="792" y="424" type="line" smooth="yes"/>
      <point x="792" y="463"/>
      <point x="805" y="485"/>
      <point x="850" y="485" type="curve"/>
      <point x="850" y="607" type="line"/>
      <point x="746" y="607"/>
      <point x="669" y="570"/>
      <point x="669" y="433" type="curve" smooth="yes"/>
    </contour>
    <contour>
      <point x="1120" y="0" type="line"/>
      <point x="1220" y="0" type="line"/>
      <point x="1220" y="280" type="line"/>
      <point x="1120" y="280" type="line"/>
    </contour>
    <contour>
      <point x="903" y="1" type="line"/>
      <point x="1220" y="0" type="line"/>
      <point x="1220" y="123" type="line"/>
      <point x="903" y="123" type="line"/>
    </contour>
    <contour>
      <point x="621" y="0" type="move" name="tml_virama"/>
    </contour>
  </outline>
</glyph>
<glyph name="tml_Sa" format="1">
  <advance width="1187"/>
  <unicode hex="0BB8"/>
  <outline>
    <contour>
      <point x="707" y="483" type="line"/>
      <point x="751" y="483"/>
      <point x="761" y="469"/>
      <point x="762" y="402" type="curve" smooth="yes"/>
      <point x="762" y="168" type="line" smooth="yes"/>
      <point x="762" y="96"/>
      <point x="792" y="0"/>
      <point x="924" y="0" type="curve"/>
      <point x="924" y="124" type="line"/>
      <point x="897" y="124"/>
      <point x="884" y="138"/>
      <point x="884" y="168" type="curve" smooth="yes"/>
      <point x="884" y="402" type="line"/>
      <point x="883" y="503"/>
      <point x="869" y="606"/>
      <point x="707" y="606" type="curve"/>
    </contour>
    <contour>
      <point x="978" y="0" type="line"/>
      <point x="1103" y="0"/>
      <point x="1144" y="91"/>
      <point x="1144" y="168" type="curve" smooth="yes"/>
      <point x="1144" y="426" type="line" smooth="yes"/>
      <point x="1144" y="538"/>
      <point x="1098" y="596"/>
      <point x="971" y="596" type="curve"/>
      <point x="971" y="473" type="line"/>
      <point x="1009" y="473"/>
      <point x="1021" y="460"/>
      <point x="1021" y="424" type="curve"/>
      <point x="1021" y="168" type="line"/>
      <point x="1021" y="141"/>
      <point x="1004" y="124"/>
      <point x="978" y="124" type="curve"/>
    </contour>
    <contour>
      <point x="41" y="151" type="curve" smooth="yes"/>
      <point x="41" y="61"/>
      <point x="110" y="0"/>
      <point x="212" y="0" type="curve" smooth="yes"/>
      <point x="212" y="122" type="line"/>
      <point x="179" y="122"/>
      <point x="165" y="149"/>
      <point x="165" y="181" type="curve" smooth="yes"/>
      <point x="165" y="210"/>
      <point x="183" y="237"/>
      <point x="212" y="237" type="curve" smooth="yes"/>
      <point x="212" y="359" type="line"/>
      <point x="162" y="359"/>
      <point x="40" y="324"/>
      <point x="41" y="220" type="curve" smooth="yes"/>
      <point x="42" y="140"/>
      <point x="41" y="193"/>
    </contour>
    <contour>
      <point x="267" y="0" type="line"/>
      <point x="376" y="0"/>
      <point x="437" y="89"/>
      <point x="436" y="152" type="curve" smooth="yes"/>
      <point x="436" y="224" type="line" smooth="yes"/>
      <point x="436" y="276"/>
      <point x="363" y="359"/>
      <point x="267" y="359" type="curve" smooth="yes"/>
      <point x="267" y="237" type="line"/>
      <point x="309" y="237"/>
      <point x="312" y="208"/>
      <point x="313" y="181" type="curve" smooth="yes"/>
      <point x="314" y="150"/>
      <point x="308" y="122"/>
      <point x="267" y="122" type="curve" smooth="yes"/>
    </contour>
    <contour>
      <point x="353" y="484" type="line"/>
      <point x="422" y="484"/>
      <point x="473" y="417"/>
      <point x="474" y="354" type="curve"/>
      <point x="475" y="0" type="line"/>
      <point x="601" y="0" type="line"/>
      <point x="597" y="355" type="line"/>
      <point x="597" y="456"/>
      <point x="515" y="605"/>
      <point x="353" y="605" type="curve"/>
    </contour>
    <contour>
      <point x="41" y="226" type="line"/>
      <point x="47" y="256"/>
      <point x="172" y="270"/>
      <point x="172" y="327" type="curve" smooth="yes"/>
      <point x="172" y="427"/>
      <point x="234" y="484"/>
      <point x="299" y="484" type="curve"/>
      <point x="299" y="605" type="line"/>
      <point x="120" y="605"/>
      <point x="41" y="427"/>
      <point x="41" y="326" type="curve" smooth="yes"/>
    </contour>
    <contour>
      <point x="474" y="325" type="curve"/>
      <point x="597" y="326" type="line"/>
      <point x="597" y="470"/>
      <point x="604" y="482"/>
      <point x="653" y="482" type="curve"/>
      <point x="653" y="605" type="line"/>
      <point x="480" y="605"/>
      <point x="474" y="440"/>
    </contour>
    <contour>
      <point x="531" y="0" type="move" name="tml_virama"/>
    </contour>
  </outline>
</glyph>
<glyph name="tml_Ha" format="1">
  <advance width="1399"/>
  <unicode hex="0BB9"/>
  <outline>
    <contour>
      <point x="92" y="-256" type="line"/>
      <point x="92" y="-102.975"/>
      <point x="142.394" y="-33"/>
      <point x="298" y="-33" type="curve" smooth="yes"/>
      <point x="390" y="-33"/>
      <point x="1023" y="-33"/>
      <point x="1112" y="-33" type="curve" smooth="yes"/>
      <point x="1210" y="-33"/>
      <point x="1210" y="39"/>
      <point x="1210" y="70" type="curve" smooth="yes"/>
      <point x="1210" y="458" type="line" smooth="yes"/>
      <point x="1210" y="479"/>
      <point x="1189" y="482"/>
      <point x="1167" y="482" type="curve"/>
      <point x="1167" y="604" type="line"/>
      <point x="1280" y="604"/>
      <point x="1331" y="528"/>
      <point x="1332" y="473" type="curve" smooth="yes"/>
      <point x="1332" y="70" type="line" smooth="yes"/>
      <point x="1332" y="-44"/>
      <point x="1269" y="-153"/>
      <point x="1139" y="-155" type="curve" smooth="yes"/>
      <point x="272" y="-155" type="line" smooth="yes"/>
      <point x="229.418" y="-155"/>
      <point x="214" y="-182.725"/>
      <point x="214" y="-256" type="curve"/>
    </contour>
    <contour>
      <point x="351" y="474" type="curve"/>
      <point x="351" y="596" type="line"/>
      <point x="520.177" y="596"/>
      <point x="606.953" y="481.998"/>
      <point x="608" y="355" type="curve"/>
      <point x="608" y="123" type="line"/>
      <point x="655" y="123" type="line"/>
      <point x="655" y="0" type="line"/>
      <point x="454" y="0" type="line"/>
      <point x="454" y="123" type="line"/>
      <point x="461" y="124"/>
      <point x="487" y="127"/>
      <point x="487" y="146" type="curve" smooth="yes"/>
      <point x="487" y="354" type="line"/>
      <point x="485.975" y="423.732"/>
      <point x="427.923" y="474"/>
    </contour>
    <contour>
      <point x="916" y="481" type="curve"/>
      <point x="916" y="604" type="line"/>
      <point x="962" y="604"/>
      <point x="992" y="595"/>
      <point x="1016" y="574" type="curve"/>
      <point x="1044" y="597"/>
      <point x="1076" y="604"/>
      <point x="1115" y="604" type="curve"/>
      <point x="1115" y="482" type="line"/>
      <point x="1097" y="482"/>
      <point x="1075" y="479"/>
      <point x="1075" y="457" type="curve" smooth="yes"/>
      <point x="1078" y="0" type="line"/>
      <point x="955" y="-1" type="line"/>
      <point x="955" y="457" type="line" smooth="yes"/>
      <point x="955" y="471"/>
      <point x="942" y="481"/>
    </contour>
    <contour>
      <point x="39" y="151" type="curve" smooth="yes"/>
      <point x="39" y="193"/>
      <point x="40" y="140"/>
      <point x="39" y="220" type="curve" smooth="yes"/>
      <point x="38" y="324"/>
      <point x="161" y="359"/>
      <point x="211" y="359" type="curve"/>
      <point x="211" y="237" type="line" smooth="yes"/>
      <point x="182" y="237"/>
      <point x="164" y="210"/>
      <point x="164" y="181" type="curve" smooth="yes"/>
      <point x="164" y="149"/>
      <point x="178" y="122"/>
      <point x="211" y="122" type="curve"/>
      <point x="211" y="0" type="line" smooth="yes"/>
      <point x="109" y="0"/>
      <point x="39" y="91"/>
    </contour>
    <contour>
      <point x="266" y="0" type="curve"/>
      <point x="266" y="122" type="line" smooth="yes"/>
      <point x="307" y="122"/>
      <point x="313" y="150"/>
      <point x="312" y="181" type="curve" smooth="yes"/>
      <point x="311" y="208"/>
      <point x="308" y="237"/>
      <point x="266" y="237" type="curve"/>
      <point x="266" y="359" type="line" smooth="yes"/>
      <point x="362" y="359"/>
      <point x="435" y="276"/>
      <point x="435" y="224" type="curve" smooth="yes"/>
      <point x="435" y="152" type="line" smooth="yes"/>
      <point x="436" y="89"/>
      <point x="375" y="0"/>
    </contour>
    <contour>
      <point x="709" y="0" type="line"/>
      <point x="709" y="477" type="line" smooth="yes"/>
      <point x="709" y="527"/>
      <point x="750" y="604"/>
      <point x="862" y="604" type="curve"/>
      <point x="862" y="481" type="line"/>
      <point x="837" y="481"/>
      <point x="833" y="469"/>
      <point x="833" y="456" type="curve" smooth="yes"/>
      <point x="833" y="0" type="line"/>
    </contour>
    <contour>
      <point x="39" y="226" type="curve"/>
      <point x="39" y="282" type="line" smooth="yes"/>
      <point x="39" y="374.994"/>
      <point x="69.0057" y="596"/>
      <point x="297" y="596" type="curve"/>
      <point x="297" y="474" type="line"/>
      <point x="231.888" y="474"/>
      <point x="182.225" y="432.384"/>
      <point x="175" y="356" type="curve" smooth="yes"/>
      <point x="170" y="299"/>
      <point x="45" y="256"/>
    </contour>
  </outline>
</glyph>
<glyph name="tml_MatraE" format="1">
  <advance width="633"/>
  <unicode hex="0BC6"/>
  <outline>
    <contour>
      <point x="265" y="0" type="line"/>
      <point x="374" y="0"/>
      <point x="435" y="89"/>
      <point x="434" y="152" type="curve" smooth="yes"/>
      <point x="434" y="224" type="line" smooth="yes"/>
      <point x="434" y="276"/>
      <point x="361" y="359"/>
      <point x="265" y="359" type="curve" smooth="yes"/>
      <point x="265" y="237" type="line"/>
      <point x="307" y="237"/>
      <point x="310" y="208"/>
      <point x="311" y="181" type="curve" smooth="yes"/>
      <point x="312" y="150"/>
      <point x="306" y="122"/>
      <point x="265" y="122" type="curve" smooth="yes"/>
    </contour>
    <contour>
      <point x="39" y="151" type="curve" smooth="yes"/>
      <point x="39" y="91"/>
      <point x="108" y="0"/>
      <point x="210" y="0" type="curve" smooth="yes"/>
      <point x="210" y="122" type="line"/>
      <point x="177" y="122"/>
      <point x="163" y="149"/>
      <point x="163" y="181" type="curve" smooth="yes"/>
      <point x="163" y="210"/>
      <point x="181" y="237"/>
      <point x="210" y="237" type="curve" smooth="yes"/>
      <point x="210" y="359" type="line"/>
      <point x="160" y="359"/>
      <point x="38" y="324"/>
      <point x="39" y="220" type="curve" smooth="yes"/>
      <point x="40" y="140"/>
      <point x="39" y="193"/>
    </contour>
    <contour>
      <point x="350" y="596" type="line"/>
      <point x="461" y="596"/>
      <point x="473" y="514"/>
      <point x="473" y="451" type="curve" smooth="yes"/>
      <point x="473" y="-10" type="line"/>
      <point x="595" y="-10" type="line"/>
      <point x="595" y="451" type="line" smooth="yes"/>
      <point x="595" y="592"/>
      <point x="522" y="718"/>
      <point x="350" y="718" type="curve"/>
    </contour>
    <contour>
      <point x="39" y="214" type="line"/>
      <point x="45" y="244"/>
      <point x="163" y="258"/>
      <point x="162" y="315" type="curve" smooth="yes"/>
      <point x="162" y="451" type="line" smooth="yes"/>
      <point x="162" y="543"/>
      <point x="200" y="596"/>
      <point x="296" y="596" type="curve" smooth="yes"/>
      <point x="296" y="596" type="line" smooth="yes"/>
      <point x="296" y="718" type="line"/>
      <point x="296" y="718" type="line" smooth="yes"/>
      <point x="116" y="718"/>
      <point x="39" y="591"/>
      <point x="39" y="451" type="curve" smooth="yes"/>
      <point x="39" y="268" type="line"/>
    </contour>
  </outline>
</glyph>
<glyph name="tml_MatraEe" format="1">
  <advance width="621"/>
  <unicode hex="0BC7"/>
  <outline>
    <contour>
      <point x="413" y="376" type="line"/>
      <point x="522" y="376"/>
      <point x="583" y="465"/>
      <point x="582" y="528" type="curve" smooth="yes"/>
      <point x="582" y="599" type="line" smooth="yes"/>
      <point x="582" y="651"/>
      <point x="509" y="735"/>
      <point x="413" y="735" type="curve" smooth="yes"/>
      <point x="413" y="612" type="line"/>
      <point x="455" y="612"/>
      <point x="458" y="583"/>
      <point x="459" y="556" type="curve" smooth="yes"/>
      <point x="460" y="525"/>
      <point x="454" y="498"/>
      <point x="413" y="498" type="curve" smooth="yes"/>
    </contour>
    <contour>
      <point x="187" y="527" type="curve" smooth="yes"/>
      <point x="187" y="467"/>
      <point x="256" y="376"/>
      <point x="358" y="376" type="curve" smooth="yes"/>
      <point x="358" y="498" type="line"/>
      <point x="325" y="498"/>
      <point x="311" y="524"/>
      <point x="311" y="556" type="curve" smooth="yes"/>
      <point x="311" y="585"/>
      <point x="329" y="612"/>
      <point x="358" y="612" type="curve" smooth="yes"/>
      <point x="358" y="735" type="line"/>
      <point x="308" y="735"/>
      <point x="186" y="700"/>
      <point x="187" y="596" type="curve" smooth="yes"/>
      <point x="188" y="516"/>
      <point x="187" y="569"/>
    </contour>
    <contour>
      <point x="413" y="-12" type="line"/>
      <point x="522" y="-12"/>
      <point x="583" y="77"/>
      <point x="582" y="140" type="curve" smooth="yes"/>
      <point x="582" y="211" type="line" smooth="yes"/>
      <point x="582" y="263"/>
      <point x="509" y="347"/>
      <point x="413" y="347" type="curve" smooth="yes"/>
      <point x="413" y="224" type="line"/>
      <point x="455" y="224"/>
      <point x="458" y="195"/>
      <point x="459" y="168" type="curve" smooth="yes"/>
      <point x="460" y="137"/>
      <point x="454" y="110"/>
      <point x="413" y="110" type="curve" smooth="yes"/>
    </contour>
    <contour>
      <point x="187" y="139" type="curve" smooth="yes"/>
      <point x="187" y="79"/>
      <point x="256" y="-12"/>
      <point x="358" y="-12" type="curve" smooth="yes"/>
      <point x="358" y="110" type="line"/>
      <point x="325" y="110"/>
      <point x="311" y="136"/>
      <point x="311" y="168" type="curve" smooth="yes"/>
      <point x="311" y="197"/>
      <point x="329" y="224"/>
      <point x="358" y="224" type="curve" smooth="yes"/>
      <point x="358" y="347" type="line"/>
      <point x="308" y="347"/>
      <point x="186" y="312"/>
      <point x="187" y="208" type="curve" smooth="yes"/>
      <point x="188" y="128"/>
      <point x="187" y="181"/>
    </contour>
    <contour>
      <point x="39" y="225" type="line"/>
      <point x="39" y="25"/>
      <point x="255" y="-12"/>
      <point x="351" y="-12" type="curve" smooth="yes"/>
      <point x="356" y="-12" type="line" smooth="yes"/>
      <point x="356" y="109" type="line"/>
      <point x="306" y="109"/>
      <point x="160" y="143"/>
      <point x="160" y="238" type="curve" smooth="yes"/>
      <point x="160" y="492" type="line" smooth="yes"/>
      <point x="160" y="601"/>
      <point x="299" y="612"/>
      <point x="354" y="614" type="curve"/>
      <point x="354" y="735" type="line" smooth="yes"/>
      <point x="281" y="735"/>
      <point x="39" y="706"/>
      <point x="39" y="496" type="curve"/>
    </contour>
  </outline>
</glyph>
<glyph name="tml_Virama" format="1">
  <advance width="249"/>
  <unicode hex="0BCD"/>
  <outline>
    <contour>
      <point x="44.5527" y="728.01" type="curve" smooth="yes"/>
      <point x="44.5527" y="771.252"/>
      <point x="78.5293" y="806"/>
      <point x="121" y="806" type="curve" smooth="yes"/>
      <point x="163.47" y="806"/>
      <point x="197.446" y="771.252"/>
      <point x="197.446" y="728.01" type="curve" smooth="yes"/>
      <point x="197.446" y="684.767"/>
      <point x="163.47" y="650.019"/>
      <point x="121" y="650.019" type="curve" smooth="yes"/>
      <point x="78.5293" y="650.019"/>
      <point x="44.5527" y="684.767"/>
    </contour>
  </outline>
</glyph>
<glyph name="tml_Om" format="1">
  <advance width="895"/>
  <unicode hex="0BD0"/>
  <outline>
    <contour>
      <point x="265" y="389" type="curve" smooth="yes"/>
      <point x="265" y="266" type="line"/>
      <point x="305" y="266"/>
      <point x="316" y="244"/>
      <point x="317" y="210" type="curve" smooth="yes"/>
      <point x="318" y="174"/>
      <point x="299" y="152"/>
      <point x="265" y="152" type="curve" smooth="yes"/>
      <point x="265" y="29" type="line"/>
      <point x="364" y="29"/>
      <point x="439" y="115"/>
      <point x="439" y="177" type="curve" smooth="yes"/>
      <point x="439" y="248" type="line" smooth="yes"/>
      <point x="439" y="309"/>
      <point x="364" y="389"/>
    </contour>
    <contour>
      <point x="210" y="389" type="line"/>
      <point x="160" y="389"/>
      <point x="38" y="354"/>
      <point x="39" y="250" type="curve" smooth="yes"/>
      <point x="39" y="177" type="line" smooth="yes"/>
      <point x="39" y="124"/>
      <point x="108" y="29"/>
      <point x="210" y="29" type="curve" smooth="yes"/>
      <point x="210" y="152" type="line"/>
      <point x="180" y="152"/>
      <point x="163" y="173"/>
      <point x="163" y="210" type="curve" smooth="yes"/>
      <point x="163" y="246"/>
      <point x="181" y="266"/>
      <point x="210" y="266" type="curve" smooth="yes"/>
    </contour>
    <contour>
      <point x="39" y="256" type="line"/>
      <point x="45" y="286"/>
      <point x="179" y="300"/>
      <point x="179" y="357" type="curve" smooth="yes"/>
      <point x="179" y="456"/>
      <point x="243" y="573"/>
      <point x="426" y="573" type="curve"/>
      <point x="426" y="695" type="line"/>
      <point x="426" y="695" type="line" smooth="yes"/>
      <point x="121" y="695"/>
      <point x="39" y="452"/>
      <point x="39" y="310" type="curve"/>
    </contour>
    <contour>
      <point x="857" y="165" type="curve" smooth="yes"/>
      <point x="857" y="398" type="line" smooth="yes"/>
      <point x="857" y="494"/>
      <point x="745" y="695"/>
      <point x="479" y="695" type="curve"/>
      <point x="479" y="573" type="line"/>
      <point x="641" y="573"/>
      <point x="733" y="458"/>
      <point x="733" y="398" type="curve" smooth="yes"/>
      <point x="733" y="196" type="line" smooth="yes"/>
      <point x="732" y="136"/>
      <point x="606" y="137"/>
      <point x="606" y="196" type="curve"/>
      <point x="606" y="350" type="line"/>
      <point x="483" y="350" type="line" smooth="yes"/>
      <point x="483" y="166" type="line" smooth="yes"/>
      <point x="483" y="-16"/>
      <point x="857" y="-17"/>
    </contour>
    <contour>
      <point x="752" y="-132" type="curve"/>
      <point x="752" y="-9" type="line" smooth="yes"/>
      <point x="678" y="-9"/>
      <point x="604" y="3"/>
      <point x="604" y="52" type="curve" smooth="yes"/>
      <point x="604" y="171" type="line" smooth="yes"/>
      <point x="483" y="276" type="line"/>
      <point x="483" y="25" type="line" smooth="yes"/>
      <point x="483" y="-66"/>
      <point x="589" y="-132"/>
    </contour>
    <contour>
      <point x="664" y="-178" type="curve"/>
      <point x="538" y="-150" type="line"/>
      <point x="514" y="-294"/>
      <point x="281" y="-318"/>
      <point x="205" y="-195" type="curve"/>
      <point x="85" y="-231" type="line"/>
      <point x="200" y="-486"/>
      <point x="590" y="-444"/>
    </contour>
    <contour>
      <point x="260" y="-219" type="line"/>
      <point x="276" y="-219" type="line"/>
      <point x="276" y="-28" type="line"/>
      <point x="260" y="-28" type="line"/>
    </contour>
    <contour>
      <point x="260" y="-227" type="line"/>
      <point x="392" y="-227" type="line"/>
      <point x="392" y="-214" type="line"/>
      <point x="260" y="-214" type="line"/>
    </contour>
    <contour>
      <point x="415" y="-227" type="line" smooth="yes"/>
      <point x="441" y="-227"/>
      <point x="465" y="-211"/>
      <point x="465" y="-161" type="curve" smooth="yes"/>
      <point x="465" y="-82" type="line" smooth="yes"/>
      <point x="465" y="-37"/>
      <point x="439" y="-25"/>
      <point x="415" y="-25" type="curve"/>
      <point x="415" y="-38" type="line"/>
      <point x="451" y="-38"/>
      <point x="449" y="-79"/>
      <point x="449" y="-82" type="curve" smooth="yes"/>
      <point x="449" y="-162" type="line" smooth="yes"/>
      <point x="449" y="-172"/>
      <point x="448" y="-214"/>
      <point x="415" y="-214" type="curve"/>
    </contour>
    <contour>
      <point x="344" y="-214" type="line" smooth="yes"/>
      <point x="360" y="-214" type="line"/>
      <point x="360" y="-82" type="line" smooth="yes"/>
      <point x="360" y="-79"/>
      <point x="358" y="-38"/>
      <point x="392" y="-38" type="curve"/>
      <point x="392" y="-25" type="line"/>
      <point x="369" y="-25"/>
      <point x="344" y="-37"/>
      <point x="344" y="-82" type="curve" smooth="yes"/>
    </contour>
    <contour>
      <point x="394" y="12"/>
      <point x="404" y="12" type="curve" smooth="yes"/>
      <point x="414" y="12"/>
      <point x="422" y="19"/>
      <point x="422" y="28" type="curve" smooth="yes"/>
      <point x="422" y="37"/>
      <point x="414" y="44"/>
      <point x="404" y="44" type="curve" smooth="yes"/>
      <point x="394" y="44"/>
      <point x="386" y="37"/>
      <point x="386" y="28" type="curve" smooth="yes"/>
      <point x="386" y="19"/>
    </contour>
  </outline>
</glyph>
<glyph name="tml_Two" format="1">
  <advance width="1017"/>
  <unicode hex="0BE8"/>
  <outline>
    <contour>
      <point x="39" y="472" type="curve" smooth="yes"/>
      <point x="39" y="593"/>
      <point x="137" y="696"/>
      <point x="302" y="696" type="curve" smooth="yes"/>
      <point x="485" y="696"/>
      <point x="594" y="593"/>
      <point x="594" y="430" type="curve"/>
      <point x="471" y="430" type="line"/>
      <point x="471" y="538"/>
      <point x="402" y="574"/>
      <point x="302" y="574" type="curve" smooth="yes"/>
      <point x="210" y="574"/>
      <point x="160" y="521"/>
      <point x="161" y="469" type="curve" smooth="yes"/>
      <point x="162" y="424"/>
      <point x="200" y="407"/>
      <point x="226" y="407" type="curve" smooth="yes"/>
      <point x="275" y="407"/>
      <point x="302" y="459"/>
      <point x="287" y="504" type="curve"/>
      <point x="409" y="504" type="line"/>
      <point x="434" y="388"/>
      <point x="338" y="285"/>
      <point x="227" y="285" type="curve" smooth="yes"/>
      <point x="135" y="285"/>
      <point x="39" y="345"/>
    </contour>
    <contour>
      <point x="185" y="0" type="line"/>
      <point x="185" y="122" type="line"/>
      <point x="979" y="122" type="line"/>
      <point x="979" y="0" type="line"/>
    </contour>
    <contour>
      <point x="102" y="0" type="line"/>
      <point x="102" y="122" type="line"/>
      <point x="354" y="121"/>
      <point x="471" y="256"/>
      <point x="471" y="376" type="curve"/>
      <point x="594" y="376" type="line"/>
      <point x="594" y="161"/>
      <point x="324" y="0"/>
      <point x="231" y="0" type="curve"/>
    </contour>
  </outline>
</glyph>
<glyph name="tml_Three" format="1">
  <advance width="734"/>
  <unicode hex="0BE9"/>
  <outline>
    <contour>
      <point x="366" y="0" type="line"/>
      <point x="714" y="0" type="line"/>
      <point x="714" y="122" type="line"/>
      <point x="366" y="122" type="line"/>
    </contour>
    <contour>
      <point x="255" y="0" type="line"/>
      <point x="337" y="0"/>
      <point x="394" y="0"/>
      <point x="471" y="0" type="curve" smooth="yes"/>
      <point x="565" y="0"/>
      <point x="626" y="43"/>
      <point x="626" y="111" type="curve" smooth="yes"/>
      <point x="626" y="229" type="line" smooth="yes"/>
      <point x="626" y="322"/>
      <point x="543" y="354"/>
      <point x="457" y="354" type="curve"/>
      <point x="457" y="231" type="line" smooth="yes"/>
      <point x="507" y="231"/>
      <point x="503" y="232"/>
      <point x="503" y="211" type="curve" smooth="yes"/>
      <point x="503" y="145" type="line" smooth="yes"/>
      <point x="503" y="126"/>
      <point x="506" y="122"/>
      <point x="448" y="122" type="curve" smooth="yes"/>
      <point x="381" y="122"/>
      <point x="288" y="122"/>
      <point x="255" y="122" type="curve"/>
    </contour>
    <contour>
      <point x="281" y="177" type="line"/>
      <point x="403" y="177" type="line"/>
      <point x="403" y="589" type="line"/>
      <point x="281" y="589" type="line"/>
    </contour>
    <contour>
      <point x="39" y="0" type="line"/>
      <point x="161" y="0" type="line"/>
      <point x="161" y="591" type="line"/>
      <point x="39" y="591" type="line"/>
    </contour>
    <contour>
      <point x="39" y="595" type="line"/>
      <point x="40" y="473" type="line"/>
      <point x="512" y="473" type="line"/>
      <point x="512" y="595" type="line"/>
    </contour>
  </outline>
</glyph>
<glyph name="tml_Eight" format="1">
  <advance width="0"/>
  <unicode hex="0BEE"/>
  <outline>
    <contour>
      <point x="39" y="72" type="curve" smooth="yes"/>
      <point x="39" y="188"/>
      <point x="123" y="271"/>
      <point x="253" y="271" type="curve" smooth="yes"/>
      <point x="328" y="271" type="line"/>
      <point x="328" y="149" type="line"/>
      <point x="235" y="149" type="line" smooth="yes"/>
      <point x="211" y="149"/>
      <point x="161" y="129"/>
      <point x="161" y="72" type="curve" smooth="yes"/>
      <point x="161" y="19"/>
      <point x="207" y="-5"/>
      <point x="253" y="-5" type="curve" smooth="yes"/>
      <point x="329" y="-5" type="line"/>
      <point x="329" y="-127" type="line"/>
      <point x="242" y="-127" type="line" smooth="yes"/>
      <point x="130" y="-127"/>
      <point x="39" y="-47"/>
    </contour>
    <contour>
      <point x="383" y="150" type="curve"/>
      <point x="383" y="270" type="line"/>
      <point x="465" y="270"/>
      <point x="721" y="270"/>
      <point x="803" y="270" type="curve"/>
      <point x="804" y="67" type="line"/>
      <point x="804" y="-35"/>
      <point x="733" y="-127"/>
      <point x="607" y="-127" type="curve" smooth="yes"/>
      <point x="385" y="-127" type="line" smooth="yes"/>
      <point x="385" y="-5" type="line"/>
      <point x="596" y="-5" type="line" smooth="yes"/>
      <point x="662" y="-4"/>
      <point x="681" y="33"/>
      <point x="681" y="67" type="curve"/>
      <point x="681" y="150" type="line"/>
      <point x="640" y="150"/>
      <point x="424" y="150"/>
    </contour>
    <contour>
      <point x="530" y="228" type="line"/>
      <point x="471" y="264"/>
      <point x="329" y="338"/>
      <point x="329" y="486" type="curve" smooth="yes"/>
      <point x="329" y="632"/>
      <point x="408" y="734"/>
      <point x="565" y="734" type="curve" smooth="yes"/>
      <point x="725" y="734"/>
      <point x="803" y="638"/>
      <point x="803" y="486" type="curve"/>
      <point x="803" y="264" type="line"/>
      <point x="681" y="264" type="line"/>
      <point x="681" y="486" type="line" smooth="yes"/>
      <point x="681" y="563"/>
      <point x="643" y="612"/>
      <point x="565" y="612" type="curve" smooth="yes"/>
      <point x="486" y="612"/>
      <point x="451" y="562"/>
      <point x="451" y="486" type="curve" smooth="yes"/>
      <point x="451" y="382"/>
      <point x="625" y="290"/>
      <point x="684" y="228" type="curve"/>
    </contour>
    <contour>
      <point x="762" y="150" type="line"/>
      <point x="762" y="270" type="line"/>
      <point x="855" y="270" type="line"/>
      <point x="855" y="150" type="line"/>
    </contour>
    <contour>
      <point x="853" y="-107" type="line"/>
      <point x="853" y="578" type="line"/>
      <point x="975" y="578" type="line"/>
      <point x="975" y="-107" type="line"/>
    </contour>
  </outline>
</glyph>
<glyph name="tml_Ten" format="1">
  <advance width="744"/>
  <unicode hex="0BF0"/>
  <outline>
    <contour>
      <point x="457" y="729" type="line"/>
      <point x="580" y="729" type="line"/>
      <point x="681" y="595" type="line"/>
      <point x="559" y="595" type="line"/>
    </contour>
    <contour>
      <point x="520" y="0" type="curve"/>
      <point x="520" y="119" type="line"/>
      <point x="544" y="119"/>
      <point x="559" y="130"/>
      <point x="559" y="145" type="curve" smooth="yes"/>
      <point x="559" y="595" type="line"/>
      <point x="681" y="595" type="line"/>
      <point x="681" y="145" type="line" smooth="yes"/>
      <point x="680" y="97"/>
      <point x="650" y="0"/>
    </contour>
    <contour>
      <point x="52" y="146" type="curve" smooth="yes"/>
      <point x="52" y="595" type="line"/>
      <point x="174" y="595" type="line"/>
      <point x="174" y="146" type="line" smooth="yes"/>
      <point x="174" y="132"/>
      <point x="180" y="119"/>
      <point x="206" y="119" type="curve"/>
      <point x="206" y="0" type="line"/>
      <point x="106" y="0"/>
      <point x="52" y="68"/>
    </contour>
    <contour>
      <point x="260" y="0" type="curve"/>
      <point x="260" y="119" type="line"/>
      <point x="284" y="119"/>
      <point x="305" y="126"/>
      <point x="305" y="145" type="curve" smooth="yes"/>
      <point x="305" y="595" type="line"/>
      <point x="426" y="595" type="line"/>
      <point x="426" y="145" type="line" smooth="yes"/>
      <point x="426" y="132"/>
      <point x="437" y="119"/>
      <point x="466" y="119" type="curve"/>
      <point x="466" y="0" type="line"/>
      <point x="411" y="0"/>
      <point x="385" y="0"/>
      <point x="364" y="33" type="curve"/>
      <point x="340" y="0"/>
      <point x="309" y="0"/>
    </contour>
  </outline>
</glyph>
<glyph name="tml_Thousand" format="1">
  <advance width="1095"/>
  <unicode hex="0BF2"/>
  <outline>
    <contour>
      <point x="630" y="-258" type="curve"/>
      <point x="723" y="-258" type="line" smooth="yes"/>
      <point x="725" y="-193"/>
      <point x="734" y="-178"/>
      <point x="775" y="-178" type="curve" smooth="yes"/>
      <point x="860" y="-178" type="line" smooth="yes"/>
      <point x="965" y="-178"/>
      <point x="1057" y="-130"/>
      <point x="1057" y="16" type="curve" smooth="yes"/>
      <point x="1057" y="148"/>
      <point x="966" y="204"/>
      <point x="856" y="204" type="curve" smooth="yes"/>
      <point x="856" y="111" type="line"/>
      <point x="922" y="111"/>
      <point x="962" y="77"/>
      <point x="962" y="16" type="curve" smooth="yes"/>
      <point x="962" y="-46"/>
      <point x="920" y="-85"/>
      <point x="860" y="-85" type="curve" smooth="yes"/>
      <point x="775" y="-85" type="line" smooth="yes"/>
      <point x="665" y="-85"/>
      <point x="630" y="-165"/>
    </contour>
    <contour>
      <point x="568" y="69" type="curve" smooth="yes"/>
      <point x="568" y="128"/>
      <point x="608" y="193"/>
      <point x="694" y="193" type="curve"/>
      <point x="694" y="101" type="line" smooth="yes"/>
      <point x="674" y="101"/>
      <point x="661" y="83"/>
      <point x="661" y="65" type="curve" smooth="yes"/>
      <point x="661" y="46"/>
      <point x="679" y="32"/>
      <point x="693" y="32" type="curve" smooth="yes"/>
      <point x="724" y="32"/>
      <point x="738" y="57"/>
      <point x="738" y="100" type="curve" smooth="yes"/>
      <point x="738" y="350" type="line"/>
      <point x="830" y="350" type="line"/>
      <point x="830" y="96" type="line" smooth="yes"/>
      <point x="830" y="6"/>
      <point x="786" y="-61"/>
      <point x="694" y="-61" type="curve" smooth="yes"/>
      <point x="616" y="-61"/>
      <point x="568" y="-3"/>
    </contour>
    <contour>
      <point x="39" y="157" type="curve" smooth="yes"/>
      <point x="39" y="218" type="line" smooth="yes"/>
      <point x="39" y="326"/>
      <point x="149" y="371"/>
      <point x="235" y="371" type="curve" smooth="yes"/>
      <point x="958" y="371" type="line"/>
      <point x="958" y="249" type="line"/>
      <point x="238" y="249" type="line" smooth="yes"/>
      <point x="174" y="249"/>
      <point x="160" y="239"/>
      <point x="160" y="188" type="curve" smooth="yes"/>
      <point x="160" y="127"/>
      <point x="180" y="122"/>
      <point x="269" y="122" type="curve"/>
      <point x="269" y="-1" type="line"/>
      <point x="112" y="0"/>
      <point x="39" y="68"/>
    </contour>
    <contour>
      <point x="322" y="-1" type="curve"/>
      <point x="322" y="122" type="line"/>
      <point x="388" y="122"/>
      <point x="419" y="141"/>
      <point x="419" y="187" type="curve" smooth="yes"/>
      <point x="419" y="588" type="line"/>
      <point x="541" y="588" type="line"/>
      <point x="541" y="191" type="line" smooth="yes"/>
      <point x="541" y="95"/>
      <point x="489" y="-1"/>
    </contour>
    <contour>
      <point x="164" y="348" type="line"/>
      <point x="164" y="586" type="line"/>
      <point x="287" y="586" type="line"/>
      <point x="286" y="348" type="line"/>
    </contour>
    <contour>
      <point x="381" y="470" type="line"/>
      <point x="381" y="595" type="line"/>
      <point x="688" y="595" type="line"/>
      <point x="688" y="470" type="line"/>
    </contour>
    <contour>
      <point x="164" y="470" type="line"/>
      <point x="164" y="595" type="line"/>
      <point x="327" y="595" type="line"/>
      <point x="327" y="470" type="line"/>
    </contour>
  </outline>
</glyph>
<glyph name="tml_Day" format="1">
  <advance width="972"/>
  <unicode hex="0BF3"/>
  <outline>
    <contour>
      <point x="266" y="0" type="curve"/>
      <point x="266" y="122" type="line"/>
      <point x="298" y="123"/>
      <point x="313" y="142"/>
      <point x="313" y="180" type="curve" smooth="yes"/>
      <point x="313" y="218"/>
      <point x="297" y="237"/>
      <point x="266" y="237" type="curve"/>
      <point x="266" y="359" type="line" smooth="yes"/>
      <point x="362" y="359"/>
      <point x="435" y="276"/>
      <point x="435" y="224" type="curve" smooth="yes"/>
      <point x="435" y="152" type="line" smooth="yes"/>
      <point x="436" y="89"/>
      <point x="375" y="0"/>
    </contour>
    <contour>
      <point x="39" y="151" type="curve" smooth="yes"/>
      <point x="39" y="220" type="line" smooth="yes"/>
      <point x="38" y="324"/>
      <point x="161" y="359"/>
      <point x="211" y="359" type="curve"/>
      <point x="211" y="237" type="line" smooth="yes"/>
      <point x="182" y="237"/>
      <point x="164" y="218"/>
      <point x="164" y="181" type="curve" smooth="yes"/>
      <point x="164" y="147"/>
      <point x="178" y="122"/>
      <point x="211" y="122" type="curve"/>
      <point x="211" y="0" type="line" smooth="yes"/>
      <point x="109" y="0"/>
      <point x="39" y="91"/>
    </contour>
    <contour>
      <point x="39" y="226" type="line"/>
      <point x="39" y="305" type="line"/>
      <point x="39" y="433"/>
      <point x="90" y="605"/>
      <point x="300" y="605" type="curve"/>
      <point x="300" y="483" type="line"/>
      <point x="236" y="483"/>
      <point x="177" y="439"/>
      <point x="175" y="354" type="curve" smooth="yes"/>
    </contour>
    <contour>
      <point x="351" y="483" type="curve"/>
      <point x="351" y="605" type="line"/>
      <point x="520" y="605"/>
      <point x="607" y="466"/>
      <point x="608" y="355" type="curve"/>
      <point x="608" y="123" type="line"/>
      <point x="934" y="123" type="line"/>
      <point x="934" y="0" type="line"/>
      <point x="454" y="0" type="line"/>
      <point x="454" y="123" type="line"/>
      <point x="461" y="124"/>
      <point x="487" y="127"/>
      <point x="487" y="146" type="curve" smooth="yes"/>
      <point x="487" y="354" type="line"/>
      <point x="486" y="423"/>
      <point x="428" y="483"/>
    </contour>
  </outline>
</glyph>
<glyph name="tml_Month" format="1">
  <advance width="859"/>
  <unicode hex="0BF4"/>
  <outline>
    <contour>
      <point x="403" y="633" type="line" smooth="yes"/>
      <point x="403" y="748"/>
      <point x="467" y="814"/>
      <point x="531" y="814" type="curve" smooth="yes"/>
      <point x="592" y="814"/>
      <point x="632" y="786"/>
      <point x="632" y="719" type="curve" smooth="yes"/>
      <point x="632" y="672"/>
      <point x="593" y="635"/>
      <point x="539" y="635" type="curve" smooth="yes"/>
      <point x="480" y="635"/>
      <point x="462" y="690"/>
      <point x="462" y="724" type="curve" smooth="yes"/>
      <point x="462" y="813"/>
      <point x="525" y="881"/>
      <point x="593" y="881" type="curve" smooth="yes"/>
      <point x="666" y="881"/>
      <point x="723" y="830"/>
      <point x="723" y="715" type="curve" smooth="yes"/>
      <point x="820" y="715" type="line" smooth="yes"/>
      <point x="820" y="655" type="line" smooth="yes"/>
      <point x="666" y="655" type="line"/>
      <point x="672" y="723"/>
      <point x="665" y="821"/>
      <point x="591" y="821" type="curve" smooth="yes"/>
      <point x="527" y="821"/>
      <point x="513" y="753"/>
      <point x="513" y="727" type="curve" smooth="yes"/>
      <point x="513" y="684"/>
      <point x="572" y="686"/>
      <point x="572" y="727" type="curve" smooth="yes"/>
      <point x="572" y="737"/>
      <point x="563" y="753"/>
      <point x="539" y="753" type="curve" smooth="yes"/>
      <point x="504" y="753"/>
      <point x="463" y="710"/>
      <point x="463" y="633" type="curve"/>
    </contour>
    <contour>
      <point x="459" y="0" type="curve" smooth="yes"/>
      <point x="459" y="123" type="line"/>
      <point x="499" y="123"/>
      <point x="502" y="157"/>
      <point x="502" y="179" type="curve" smooth="yes"/>
      <point x="502" y="434" type="line" smooth="yes"/>
      <point x="502" y="457"/>
      <point x="500" y="483"/>
      <point x="459" y="483" type="curve"/>
      <point x="459" y="605" type="line"/>
      <point x="547" y="605"/>
      <point x="624" y="564"/>
      <point x="624" y="434" type="curve" smooth="yes"/>
      <point x="624" y="197" type="line" smooth="yes"/>
      <point x="624" y="51"/>
      <point x="540" y="0"/>
    </contour>
    <contour>
      <point x="243" y="122" type="line" smooth="yes"/>
      <point x="243" y="434" type="line" smooth="yes"/>
      <point x="242" y="571"/>
      <point x="324" y="605"/>
      <point x="405" y="605" type="curve"/>
      <point x="405" y="483" type="line"/>
      <point x="371" y="483"/>
      <point x="365" y="459"/>
      <point x="365" y="434" type="curve" smooth="yes"/>
      <point x="365" y="122" type="line"/>
    </contour>
    <contour>
      <point x="39" y="107" type="line"/>
      <point x="39" y="595" type="line"/>
      <point x="161" y="595" type="line"/>
      <point x="161" y="107" type="line"/>
    </contour>
    <contour>
      <point x="39" y="0" type="line"/>
      <point x="39" y="123" type="line"/>
      <point x="405" y="123" type="line"/>
      <point x="405" y="0" type="line"/>
    </contour>
  </outline>
</glyph>
<glyph name="tml_Credit" format="1">
  <advance width="1140"/>
  <unicode hex="0BF7"/>
  <outline>
    <contour>
      <point x="835" y="268" type="line"/>
      <point x="878" y="268"/>
      <point x="909" y="235"/>
      <point x="910" y="197" type="curve"/>
      <point x="910" y="81" type="line" smooth="yes"/>
      <point x="910" y="71"/>
      <point x="896" y="70"/>
      <point x="892" y="69" type="curve"/>
      <point x="892" y="1" type="line"/>
      <point x="1004" y="1" type="line"/>
      <point x="1004" y="69" type="line"/>
      <point x="977" y="69" type="line"/>
      <point x="977" y="197" type="line"/>
      <point x="976" y="259"/>
      <point x="929" y="336"/>
      <point x="835" y="336" type="curve"/>
    </contour>
    <contour>
      <point x="39" y="149" type="line" smooth="yes"/>
      <point x="39" y="96"/>
      <point x="108" y="1"/>
      <point x="210" y="1" type="curve" smooth="yes"/>
      <point x="210" y="123" type="line"/>
      <point x="180" y="123"/>
      <point x="163" y="145"/>
      <point x="163" y="182" type="curve" smooth="yes"/>
      <point x="163" y="218"/>
      <point x="181" y="238"/>
      <point x="210" y="238" type="curve" smooth="yes"/>
      <point x="210" y="360" type="line"/>
      <point x="160" y="360"/>
      <point x="38" y="325"/>
      <point x="39" y="221" type="curve" smooth="yes"/>
    </contour>
    <contour>
      <point x="265" y="1" type="line"/>
      <point x="364" y="1"/>
      <point x="439" y="86"/>
      <point x="439" y="148" type="curve" smooth="yes"/>
      <point x="439" y="220" type="line" smooth="yes"/>
      <point x="439" y="281"/>
      <point x="364" y="360"/>
      <point x="265" y="360" type="curve" smooth="yes"/>
      <point x="265" y="238" type="line"/>
      <point x="305" y="238"/>
      <point x="316" y="216"/>
      <point x="317" y="182" type="curve" smooth="yes"/>
      <point x="318" y="146"/>
      <point x="299" y="123"/>
      <point x="265" y="123" type="curve" smooth="yes"/>
    </contour>
    <contour>
      <point x="662" y="84" type="line" smooth="yes"/>
      <point x="662" y="51"/>
      <point x="701" y="0"/>
      <point x="757" y="0" type="curve" smooth="yes"/>
      <point x="757" y="68" type="line"/>
      <point x="739" y="68"/>
      <point x="731" y="81"/>
      <point x="731" y="100" type="curve" smooth="yes"/>
      <point x="731" y="120"/>
      <point x="741" y="132"/>
      <point x="757" y="132" type="curve" smooth="yes"/>
      <point x="757" y="200" type="line"/>
      <point x="729" y="200"/>
      <point x="662" y="180"/>
      <point x="662" y="122" type="curve" smooth="yes"/>
    </contour>
    <contour>
      <point x="788" y="0" type="line"/>
      <point x="848" y="0"/>
      <point x="881" y="50"/>
      <point x="881" y="85" type="curve" smooth="yes"/>
      <point x="881" y="124" type="line" smooth="yes"/>
      <point x="881" y="153"/>
      <point x="841" y="200"/>
      <point x="788" y="200" type="curve" smooth="yes"/>
      <point x="788" y="132" type="line"/>
      <point x="805" y="132"/>
      <point x="814" y="121"/>
      <point x="814" y="100" type="curve" smooth="yes"/>
      <point x="814" y="79"/>
      <point x="806" y="68"/>
      <point x="788" y="68" type="curve"/>
    </contour>
    <contour>
      <point x="39" y="228" type="line"/>
      <point x="45" y="258"/>
      <point x="165" y="272"/>
      <point x="170" y="329" type="curve" smooth="yes"/>
      <point x="177" y="406"/>
      <point x="217" y="472"/>
      <point x="304" y="472" type="curve"/>
      <point x="304" y="595" type="line"/>
      <point x="101" y="595"/>
      <point x="39" y="396"/>
      <point x="39" y="281" type="curve" smooth="yes"/>
    </contour>
    <contour>
      <point x="662" y="125" type="line"/>
      <point x="737" y="197" type="line" smooth="yes"/>
      <point x="738" y="244"/>
      <point x="770" y="268"/>
      <point x="806" y="268" type="curve"/>
      <point x="806" y="336" type="line"/>
      <point x="690" y="336"/>
      <point x="662" y="240"/>
      <point x="662" y="169" type="curve"/>
    </contour>
    <contour>
      <point x="484" y="0" type="line"/>
      <point x="606" y="0" type="line"/>
      <point x="606" y="577" type="line"/>
      <point x="484" y="577" type="line"/>
    </contour>
    <contour>
      <point x="359" y="472" type="line"/>
      <point x="707" y="472" type="line"/>
      <point x="707" y="595" type="line"/>
      <point x="359" y="595" type="line"/>
    </contour>
    <contour>
      <point x="584" y="132" type="line"/>
      <point x="692" y="132" type="line"/>
      <point x="692" y="199" type="line"/>
      <point x="584" y="199" type="line"/>
    </contour>
    <contour>
      <point x="1034" y="1" type="line"/>
      <point x="1102" y="1" type="line"/>
      <point x="1102" y="330" type="line"/>
      <point x="1034" y="330" type="line"/>
    </contour>
  </outline>
</glyph>
<glyph name="tml_Above" format="1">
  <advance width="1561"/>
  <unicode hex="0BF8"/>
  <outline>
    <contour>
      <point x="208" y="40" type="curve"/>
      <point x="208" y="134" type="line" smooth="yes"/>
      <point x="288" y="134"/>
      <point x="346" y="59"/>
      <point x="346" y="7" type="curve" smooth="yes"/>
      <point x="346" y="-15" type="line" smooth="yes"/>
      <point x="346" y="-82"/>
      <point x="292" y="-148"/>
      <point x="208" y="-148" type="curve"/>
      <point x="208" y="-55" type="line" smooth="yes"/>
      <point x="228" y="-55"/>
      <point x="253" y="-43"/>
      <point x="253" y="-6" type="curve" smooth="yes"/>
      <point x="253" y="23"/>
      <point x="232" y="40"/>
    </contour>
    <contour>
      <point x="39" y="7" type="line" smooth="yes"/>
      <point x="39" y="69"/>
      <point x="104" y="134"/>
      <point x="176" y="134" type="curve"/>
      <point x="176" y="40" type="line" smooth="yes"/>
      <point x="159" y="40"/>
      <point x="133" y="29"/>
      <point x="133" y="-6" type="curve" smooth="yes"/>
      <point x="133" y="-39"/>
      <point x="158" y="-55"/>
      <point x="176" y="-55" type="curve"/>
      <point x="176" y="-148" type="line" smooth="yes"/>
      <point x="106" y="-148"/>
      <point x="39" y="-85"/>
      <point x="39" y="-13" type="curve" smooth="yes"/>
    </contour>
    <contour>
      <point x="39" y="-5" type="line" smooth="yes"/>
      <point x="39" y="142" type="line" smooth="yes"/>
      <point x="39" y="311"/>
      <point x="178" y="359"/>
      <point x="300" y="359" type="curve" smooth="yes"/>
      <point x="514" y="359" type="line"/>
      <point x="514" y="267" type="line"/>
      <point x="300" y="267" type="line" smooth="yes"/>
      <point x="203" y="267"/>
      <point x="133" y="239"/>
      <point x="133" y="141" type="curve" smooth="yes"/>
      <point x="133" y="-6" type="line" smooth="yes"/>
    </contour>
    <contour>
      <point x="569" y="0" type="curve"/>
      <point x="569" y="122" type="line"/>
      <point x="601" y="123"/>
      <point x="617" y="142"/>
      <point x="617" y="180" type="curve" smooth="yes"/>
      <point x="617" y="218"/>
      <point x="600" y="237"/>
      <point x="569" y="237" type="curve"/>
      <point x="569" y="359" type="line" smooth="yes"/>
      <point x="665" y="359"/>
      <point x="738" y="276"/>
      <point x="738" y="224" type="curve" smooth="yes"/>
      <point x="738" y="152" type="line" smooth="yes"/>
      <point x="739" y="89"/>
      <point x="678" y="0"/>
    </contour>
    <contour>
      <point x="343" y="151" type="curve" smooth="yes"/>
      <point x="343" y="220" type="line" smooth="yes"/>
      <point x="342" y="324"/>
      <point x="465" y="359"/>
      <point x="515" y="359" type="curve"/>
      <point x="515" y="237" type="line" smooth="yes"/>
      <point x="486" y="237"/>
      <point x="467" y="218"/>
      <point x="467" y="181" type="curve" smooth="yes"/>
      <point x="467" y="147"/>
      <point x="482" y="122"/>
      <point x="515" y="122" type="curve"/>
      <point x="515" y="0" type="line" smooth="yes"/>
      <point x="413" y="0"/>
      <point x="343" y="91"/>
    </contour>
    <contour>
      <point x="343" y="226" type="line"/>
      <point x="343" y="305" type="line"/>
      <point x="343" y="433"/>
      <point x="394" y="605"/>
      <point x="604" y="605" type="curve"/>
      <point x="604" y="483" type="line"/>
      <point x="540" y="483"/>
      <point x="481" y="439"/>
      <point x="479" y="354" type="curve" smooth="yes"/>
    </contour>
    <contour>
      <point x="654" y="483" type="line"/>
      <point x="731" y="483"/>
      <point x="788" y="424"/>
      <point x="789" y="354" type="curve"/>
      <point x="789" y="146" type="line" smooth="yes"/>
      <point x="789" y="127"/>
      <point x="764" y="124"/>
      <point x="757" y="123" type="curve"/>
      <point x="757" y="0" type="line"/>
      <point x="1152" y="0" type="line"/>
      <point x="1152" y="123" type="line"/>
      <point x="910" y="123" type="line"/>
      <point x="910" y="355" type="line"/>
      <point x="909" y="466"/>
      <point x="823" y="605"/>
      <point x="654" y="605" type="curve"/>
    </contour>
    <contour>
      <point x="1206" y="485" type="line"/>
      <point x="1245" y="485"/>
      <point x="1265" y="486"/>
      <point x="1265" y="413" type="curve" smooth="yes"/>
      <point x="1265" y="158" type="line"/>
      <point x="1387" y="158" type="line"/>
      <point x="1387" y="413" type="line" smooth="yes"/>
      <point x="1387" y="561"/>
      <point x="1309" y="607"/>
      <point x="1206" y="607" type="curve"/>
    </contour>
    <contour>
      <point x="1265" y="123" type="line"/>
      <point x="1265" y="-178" type="line"/>
      <point x="1387" y="-178" type="line"/>
      <point x="1387" y="123" type="line"/>
    </contour>
    <contour>
      <point x="1206" y="158" type="line"/>
      <point x="1522" y="158" type="line"/>
      <point x="1522" y="280" type="line" smooth="yes"/>
      <point x="1206" y="280" type="line"/>
    </contour>
    <contour>
      <point x="972" y="334" type="line" smooth="yes"/>
      <point x="972" y="191"/>
      <point x="1048" y="158"/>
      <point x="1152" y="158" type="curve"/>
      <point x="1152" y="279" type="line"/>
      <point x="1108" y="279"/>
      <point x="1095" y="287"/>
      <point x="1095" y="340" type="curve" smooth="yes"/>
      <point x="1095" y="424" type="line" smooth="yes"/>
      <point x="1095" y="463"/>
      <point x="1107" y="485"/>
      <point x="1152" y="485" type="curve"/>
      <point x="1152" y="607" type="line"/>
      <point x="1048" y="607"/>
      <point x="972" y="570"/>
      <point x="972" y="433" type="curve" smooth="yes"/>
    </contour>
    <contour>
      <point x="1423" y="0" type="line"/>
      <point x="1522" y="0" type="line"/>
      <point x="1522" y="280" type="line"/>
      <point x="1423" y="280" type="line"/>
    </contour>
    <contour>
      <point x="1206" y="1" type="line"/>
      <point x="1522" y="0" type="line"/>
      <point x="1522" y="123" type="line"/>
      <point x="1206" y="123" type="line"/>
    </contour>
  </outline>
</glyph>
<glyph name="tml_Rupee" format="1">
  <advance width="938"/>
  <unicode hex="0BF9"/>
  <outline>
    <contour>
      <point x="386" y="631" type="curve" smooth="yes"/>
      <point x="445" y="631" type="line"/>
      <point x="445" y="708"/>
      <point x="486" y="753"/>
      <point x="521" y="753" type="curve" smooth="yes"/>
      <point x="545" y="753"/>
      <point x="555" y="737"/>
      <point x="555" y="727" type="curve" smooth="yes"/>
      <point x="555" y="686"/>
      <point x="495" y="684"/>
      <point x="495" y="727" type="curve" smooth="yes"/>
      <point x="495" y="753"/>
      <point x="509" y="821"/>
      <point x="573" y="821" type="curve" smooth="yes"/>
      <point x="647" y="821"/>
      <point x="654" y="723"/>
      <point x="648" y="655" type="curve"/>
      <point x="803" y="655" type="line" smooth="yes"/>
      <point x="803" y="715" type="line" smooth="yes"/>
      <point x="705" y="715" type="line" smooth="yes"/>
      <point x="705" y="830"/>
      <point x="648" y="881"/>
      <point x="575" y="881" type="curve" smooth="yes"/>
      <point x="507" y="881"/>
      <point x="444" y="813"/>
      <point x="444" y="724" type="curve" smooth="yes"/>
      <point x="444" y="690"/>
      <point x="462" y="635"/>
      <point x="521" y="635" type="curve" smooth="yes"/>
      <point x="575" y="635"/>
      <point x="614" y="672"/>
      <point x="614" y="719" type="curve" smooth="yes"/>
      <point x="614" y="786"/>
      <point x="575" y="814"/>
      <point x="514" y="814" type="curve" smooth="yes"/>
      <point x="450" y="814"/>
      <point x="386" y="746"/>
    </contour>
    <contour>
      <point x="524" y="473" type="line"/>
      <point x="794" y="473" type="line"/>
      <point x="794" y="595" type="line"/>
      <point x="524" y="595" type="line"/>
    </contour>
    <contour>
      <point x="524" y="-55" type="line"/>
      <point x="524" y="-177" type="line"/>
      <point x="713" y="-178" type="line" smooth="yes"/>
      <point x="839" y="-178"/>
      <point x="899" y="-82"/>
      <point x="899" y="-15" type="curve" smooth="yes"/>
      <point x="899" y="221" type="line" smooth="yes"/>
      <point x="899" y="339"/>
      <point x="797" y="366"/>
      <point x="736" y="372" type="curve"/>
      <point x="736" y="251" type="line"/>
      <point x="757" y="251"/>
      <point x="777" y="237"/>
      <point x="777" y="187" type="curve" smooth="yes"/>
      <point x="777" y="38" type="line" smooth="yes"/>
      <point x="777" y="-5"/>
      <point x="781" y="-55"/>
      <point x="712" y="-55" type="curve" smooth="yes"/>
    </contour>
    <contour>
      <point x="39" y="30" type="line" smooth="yes"/>
      <point x="39" y="-109"/>
      <point x="124" y="-176"/>
      <point x="233" y="-176" type="curve" smooth="yes"/>
      <point x="470" y="-177" type="line"/>
      <point x="470" y="-55" type="line"/>
      <point x="249" y="-55" type="line" smooth="yes"/>
      <point x="185" y="-55"/>
      <point x="162" y="-35"/>
      <point x="162" y="29" type="curve" smooth="yes"/>
      <point x="162" y="529" type="line" smooth="yes"/>
      <point x="162" y="555"/>
      <point x="153" y="615"/>
      <point x="238" y="615" type="curve" smooth="yes"/>
      <point x="451" y="615" type="line" smooth="yes"/>
      <point x="450" y="675" type="line" smooth="yes"/>
      <point x="217" y="675" type="line" smooth="yes"/>
      <point x="111" y="675"/>
      <point x="39" y="660"/>
      <point x="39" y="534" type="curve" smooth="yes"/>
    </contour>
    <contour>
      <point x="558" y="1" type="line"/>
      <point x="681" y="1" type="line"/>
      <point x="683" y="591" type="line"/>
      <point x="558" y="591" type="line"/>
    </contour>
    <contour>
      <point x="276" y="1" type="line"/>
      <point x="276" y="595" type="line"/>
      <point x="398" y="595" type="line"/>
      <point x="398" y="1" type="line"/>
    </contour>
    <contour>
      <point x="278" y="473" type="line"/>
      <point x="278" y="595" type="line"/>
      <point x="471" y="595" type="line"/>
      <point x="471" y="473" type="line"/>
    </contour>
  </outline>
</glyph>
<glyph name="tml_Number" format="1">
  <advance width="0"/>
  <unicode hex="0BFA"/>
  <outline>
    <contour>
      <point x="386" y="586" type="line" smooth="yes"/>
      <point x="386" y="733"/>
      <point x="433" y="808"/>
      <point x="514" y="808" type="curve" smooth="yes"/>
      <point x="575" y="808"/>
      <point x="614" y="779"/>
      <point x="614" y="712" type="curve" smooth="yes"/>
      <point x="614" y="665"/>
      <point x="575" y="628"/>
      <point x="521" y="628" type="curve" smooth="yes"/>
      <point x="462" y="628"/>
      <point x="444" y="683"/>
      <point x="444" y="717" type="curve" smooth="yes"/>
      <point x="444" y="806"/>
      <point x="507" y="874"/>
      <point x="575" y="874" type="curve" smooth="yes"/>
      <point x="648" y="874"/>
      <point x="705" y="823"/>
      <point x="705" y="708" type="curve" smooth="yes"/>
      <point x="803" y="708" type="line" smooth="yes"/>
      <point x="803" y="648" type="line" smooth="yes"/>
      <point x="648" y="648" type="line"/>
      <point x="654" y="716"/>
      <point x="647" y="814"/>
      <point x="573" y="814" type="curve" smooth="yes"/>
      <point x="509" y="814"/>
      <point x="495" y="746"/>
      <point x="495" y="720" type="curve" smooth="yes"/>
      <point x="495" y="677"/>
      <point x="555" y="679"/>
      <point x="555" y="720" type="curve" smooth="yes"/>
      <point x="555" y="730"/>
      <point x="545" y="746"/>
      <point x="521" y="746" type="curve" smooth="yes"/>
      <point x="466" y="746"/>
      <point x="445" y="690"/>
      <point x="445" y="586" type="curve"/>
    </contour>
    <component base="tml_Na"/>
  </outline>
</glyph>
<glyph name="dottedcircle" format="1">
  <advance width="636"/>
  <unicode hex="25CC"/>
  <outline>
    <contour>
      <point x="147.958" y="483.58" type="curve" smooth="yes"/>
      <point x="147.958" y="513.53"/>
      <point x="172.008" y="537.58"/>
      <point x="201.958" y="537.58" type="curve" smooth="yes"/>
      <point x="231.908" y="537.58"/>
      <point x="255.958" y="513.53"/>
      <point x="255.958" y="483.58" type="curve" smooth="yes"/>
      <point x="255.958" y="453.63"/>
      <point x="231.908" y="429.58"/>
      <point x="201.958" y="429.58" type="curve" smooth="yes"/>
      <point x="172.008" y="429.58"/>
      <point x="147.958" y="453.63"/>
    </contour>
    <contour>
      <point x="62.4199" y="398.042" type="curve" smooth="yes"/>
      <point x="62.4199" y="427.992"/>
      <point x="86.4702" y="452.042"/>
      <point x="116.42" y="452.042" type="curve" smooth="yes"/>
      <point x="146.37" y="452.042"/>
      <point x="170.42" y="427.992"/>
      <point x="170.42" y="398.042" type="curve" smooth="yes"/>
      <point x="170.42" y="368.092"/>
      <point x="146.37" y="344.042"/>
      <point x="116.42" y="344.042" type="curve" smooth="yes"/>
      <point x="86.4702" y="344.042"/>
      <point x="62.4199" y="368.092"/>
    </contour>
    <contour>
      <point x="147.958" y="72.4199" type="curve" smooth="yes"/>
      <point x="147.958" y="102.37"/>
      <point x="172.008" y="126.42"/>
      <point x="201.958" y="126.42" type="curve" smooth="yes"/>
      <point x="231.908" y="126.42"/>
      <point x="255.958" y="102.37"/>
      <point x="255.958" y="72.4199" type="curve" smooth="yes"/>
      <point x="255.958" y="42.4702"/>
      <point x="231.908" y="18.4199"/>
      <point x="201.958" y="18.4199" type="curve" smooth="yes"/>
      <point x="172.008" y="18.4199"/>
      <point x="147.958" y="42.4702"/>
    </contour>
    <contour>
      <point x="62.4199" y="157.958" type="curve" smooth="yes"/>
      <point x="62.4199" y="187.908"/>
      <point x="86.4702" y="211.958"/>
      <point x="116.42" y="211.958" type="curve" smooth="yes"/>
      <point x="146.37" y="211.958"/>
      <point x="170.42" y="187.908"/>
      <point x="170.42" y="157.958" type="curve" smooth="yes"/>
      <point x="170.42" y="128.008"/>
      <point x="146.37" y="103.958"/>
      <point x="116.42" y="103.958" type="curve" smooth="yes"/>
      <point x="86.4702" y="103.958"/>
      <point x="62.4199" y="128.008"/>
    </contour>
    <contour>
      <point x="388.042" y="72.4199" type="curve" smooth="yes"/>
      <point x="388.042" y="102.37"/>
      <point x="412.092" y="126.42"/>
      <point x="442.042" y="126.42" type="curve" smooth="yes"/>
      <point x="471.992" y="126.42"/>
      <point x="496.042" y="102.37"/>
      <point x="496.042" y="72.4199" type="curve" smooth="yes"/>
      <point x="496.042" y="42.4702"/>
      <point x="471.992" y="18.4199"/>
      <point x="442.042" y="18.4199" type="curve" smooth="yes"/>
      <point x="412.092" y="18.4199"/>
      <point x="388.042" y="42.4702"/>
    </contour>
    <contour>
      <point x="473.58" y="157.958" type="curve" smooth="yes"/>
      <point x="473.58" y="187.908"/>
      <point x="497.63" y="211.958"/>
      <point x="527.58" y="211.958" type="curve" smooth="yes"/>
      <point x="557.53" y="211.958"/>
      <point x="581.58" y="187.908"/>
      <point x="581.58" y="157.958" type="curve" smooth="yes"/>
      <point x="581.58" y="128.008"/>
      <point x="557.53" y="103.958"/>
      <point x="527.58" y="103.958" type="curve" smooth="yes"/>
      <point x="497.63" y="103.958"/>
      <point x="473.58" y="128.008"/>
    </contour>
    <contour>
      <point x="473.58" y="398.042" type="curve" smooth="yes"/>
      <point x="473.58" y="427.992"/>
      <point x="497.63" y="452.042"/>
      <point x="527.58" y="452.042" type="curve" smooth="yes"/>
      <point x="557.53" y="452.042"/>
      <point x="581.58" y="427.992"/>
      <point x="581.58" y="398.042" type="curve" smooth="yes"/>
      <point x="581.58" y="368.092"/>
      <point x="557.53" y="344.042"/>
      <point x="527.58" y="344.042" type="curve" smooth="yes"/>
      <point x="497.63" y="344.042"/>
      <point x="473.58" y="368.092"/>
    </contour>
    <contour>
      <point x="388.042" y="483.58" type="curve" smooth="yes"/>
      <point x="388.042" y="513.53"/>
      <point x="412.092" y="537.58"/>
      <point x="442.042" y="537.58" type="curve" smooth="yes"/>
      <point x="471.992" y="537.58"/>
      <point x="496.042" y="513.53"/>
      <point x="496.042" y="483.58" type="curve" smooth="yes"/>
      <point x="496.042" y="453.63"/>
      <point x="471.992" y="429.58"/>
      <point x="442.042" y="429.58" type="curve" smooth="yes"/>
      <point x="412.092" y="429.58"/>
      <point x="388.042" y="453.63"/>
    </contour>
    <contour>
      <point x="506" y="278" type="curve" smooth="yes"/>
      <point x="506" y="307.95"/>
      <point x="530.05" y="332"/>
      <point x="560" y="332" type="curve" smooth="yes"/>
      <point x="589.95" y="332"/>
      <point x="614" y="307.95"/>
      <point x="614" y="278" type="curve" smooth="yes"/>
      <point x="614" y="248.05"/>
      <point x="589.95" y="224"/>
      <point x="560" y="224" type="curve" smooth="yes"/>
      <point x="530.05" y="224"/>
      <point x="506" y="248.05"/>
    </contour>
    <contour>
      <point x="268" y="40" type="curve" smooth="yes"/>
      <point x="268" y="69.9497"/>
      <point x="292.05" y="94"/>
      <point x="322" y="94" type="curve" smooth="yes"/>
      <point x="351.95" y="94"/>
      <point x="376" y="69.9497"/>
      <point x="376" y="40" type="curve" smooth="yes"/>
      <point x="376" y="10.0503"/>
      <point x="351.95" y="-14"/>
      <point x="322" y="-14" type="curve" smooth="yes"/>
      <point x="292.05" y="-14"/>
      <point x="268" y="10.0503"/>
    </contour>
    <contour>
      <point x="30" y="278" type="curve" smooth="yes"/>
      <point x="30" y="307.95"/>
      <point x="54.0503" y="332"/>
      <point x="84" y="332" type="curve" smooth="yes"/>
      <point x="113.95" y="332"/>
      <point x="138" y="307.95"/>
      <point x="138" y="278" type="curve" smooth="yes"/>
      <point x="138" y="248.05"/>
      <point x="113.95" y="224"/>
      <point x="84" y="224" type="curve" smooth="yes"/>
      <point x="54.0503" y="224"/>
      <point x="30" y="248.05"/>
    </contour>
    <contour>
      <point x="268" y="516" type="curve" smooth="yes"/>
      <point x="268" y="545.95"/>
      <point x="292.05" y="570"/>
      <point x="322" y="570" type="curve" smooth="yes"/>
      <point x="351.95" y="570"/>
      <point x="376" y="545.95"/>
      <point x="376" y="516" type="curve" smooth="yes"/>
      <point x="376" y="486.05"/>
      <point x="351.95" y="462"/>
      <point x="322" y="462" type="curve" smooth="yes"/>
      <point x="292.05" y="462"/>
      <point x="268" y="486.05"/>
    </contour>
  </outline>
</glyph>
<glyph name="tml_CI.alt" format="1">
  <advance width="972"/>
  <outline>
    <contour>
      <point x="31.0215" y="527" type="line"/>
      <point x="46.1572" y="741.915"/>
      <point x="237.414" y="856.49"/>
      <point x="445.328" y="855" type="curve"/>
      <point x="445.328" y="855" type="line"/>
      <point x="445.328" y="733" type="line" smooth="yes"/>
      <point x="445.328" y="733" type="line"/>
      <point x="313.763" y="723.602"/>
      <point x="167.905" y="685.994"/>
      <point x="156.469" y="527" type="curve" smooth="yes"/>
      <point x="155" y="527"/>
    </contour>
    <contour>
      <point x="156.962" y="463" type="curve" smooth="yes"/>
      <point x="159.83" y="431.559"/>
      <point x="167.637" y="390.374"/>
      <point x="179" y="351" type="curve"/>
      <point x="80" y="258" type="line"/>
      <point x="50.3574" y="330.76"/>
      <point x="30.4619" y="463" type="line"/>
      <point x="158.672" y="462"/>
    </contour>
    <contour>
      <point x="499.328" y="733" type="curve"/>
      <point x="499.328" y="855" type="line"/>
      <point x="699.328" y="855"/>
      <point x="931.328" y="751"/>
      <point x="932.328" y="429" type="curve" smooth="yes"/>
      <point x="932.328" y="68" type="line"/>
      <point x="810.328" y="68" type="line"/>
      <point x="810.328" y="426" type="line" smooth="yes"/>
      <point x="810.328" y="697"/>
      <point x="601.328" y="733"/>
    </contour>
    <component base="tml_Ca" xOffset="24.3284"/>
  </outline>
</glyph>
<glyph name="tml_CI" format="1">
  <advance width="923"/>
  <outline>
    <contour>
      <point x="683" y="686" type="curve"/>
      <point x="683" y="808" type="line"/>
      <point x="830" y="808"/>
      <point x="881" y="691"/>
      <point x="881" y="590" type="curve" smooth="yes"/>
      <point x="881" y="-2" type="line"/>
      <point x="759" y="-2" type="line"/>
      <point x="759" y="587" type="line" smooth="yes"/>
      <point x="759" y="649"/>
      <point x="730" y="686"/>
    </contour>
    <contour>
      <point x="435" y="588" type="line"/>
      <point x="435" y="588" type="line"/>
      <point x="435" y="692"/>
      <point x="482" y="808"/>
      <point x="629" y="808" type="curve" smooth="yes"/>
      <point x="629" y="808" type="line"/>
      <point x="629" y="686" type="line" smooth="yes"/>
      <point x="629" y="686" type="line" smooth="yes"/>
      <point x="582" y="686"/>
      <point x="558" y="649"/>
      <point x="558" y="588" type="curve" smooth="yes"/>
    </contour>
    <component base="tml_Ca" xOffset="18"/>
  </outline>
</glyph>
<glyph name="tml_CIi.alt" format="1">
  <advance width="825"/>
  <outline>
    <contour>
      <point x="96" y="267" type="curve"/>
      <point x="195" y="360" type="line"/>
      <point x="130" y="587"/>
      <point x="173" y="725"/>
      <point x="306" y="791" type="curve" smooth="yes"/>
      <point x="369" y="822"/>
      <point x="475" y="859"/>
      <point x="589" y="828" type="curve" smooth="yes"/>
      <point x="644" y="813"/>
      <point x="652" y="785"/>
      <point x="652" y="770" type="curve" smooth="yes"/>
      <point x="652" y="749"/>
      <point x="641" y="730"/>
      <point x="618" y="730" type="curve" smooth="yes"/>
      <point x="593" y="730"/>
      <point x="584" y="747"/>
      <point x="584" y="763" type="curve" smooth="yes"/>
      <point x="530" y="665" type="line"/>
      <point x="566" y="623"/>
      <point x="606" y="614"/>
      <point x="651" y="614" type="curve" smooth="yes"/>
      <point x="736" y="614"/>
      <point x="787" y="696"/>
      <point x="785" y="770" type="curve" smooth="yes"/>
      <point x="783" y="865"/>
      <point x="704" y="945"/>
      <point x="579" y="960" type="curve"/>
      <point x="442" y="976"/>
      <point x="351" y="957"/>
      <point x="246" y="900" type="curve" smooth="yes"/>
      <point x="88" y="814"/>
      <point x="-37" y="595"/>
    </contour>
    <component base="tml_Ca" xOffset="31.026"/>
  </outline>
</glyph>
<glyph name="tml_CIi" format="1">
  <advance width="829"/>
  <outline>
    <contour>
      <point x="419" y="472.656" type="line"/>
      <point x="419" y="596" type="line" smooth="yes"/>
      <point x="345" y="755"/>
      <point x="416.394" y="943"/>
      <point x="619" y="943" type="curve" smooth="yes"/>
      <point x="847" y="943"/>
      <point x="838.69" y="630"/>
      <point x="640" y="630" type="curve" smooth="yes"/>
      <point x="595" y="630"/>
      <point x="548" y="668"/>
      <point x="538" y="689" type="curve"/>
      <point x="609" y="772" type="line" smooth="yes"/>
      <point x="609" y="756"/>
      <point x="618" y="739"/>
      <point x="643" y="739" type="curve" smooth="yes"/>
      <point x="666" y="739"/>
      <point x="677" y="758"/>
      <point x="677" y="779" type="curve" smooth="yes"/>
      <point x="677" y="794"/>
      <point x="666" y="828"/>
      <point x="609" y="828" type="curve"/>
      <point x="537.677" y="827.57"/>
      <point x="468" y="753"/>
      <point x="543" y="594.727" type="curve" smooth="yes"/>
      <point x="543" y="472.656" type="line"/>
    </contour>
    <component base="tml_Ca" xOffset="1"/>
  </outline>
</glyph>
<glyph name="tml_CU" format="1">
  <advance width="793"/>
  <outline>
    <contour>
      <point x="605" y="0" type="line"/>
      <point x="605" y="311" type="line"/>
      <point x="728" y="311" type="line"/>
      <point x="728" y="0" type="line"/>
    </contour>
    <contour>
      <point x="595" y="249" type="line"/>
      <point x="595" y="371" type="line"/>
      <point x="755" y="371" type="line"/>
      <point x="755" y="249" type="line"/>
    </contour>
    <contour>
      <point x="39" y="157" type="curve" smooth="yes"/>
      <point x="39" y="218" type="line" smooth="yes"/>
      <point x="39" y="326"/>
      <point x="149" y="371"/>
      <point x="235" y="371" type="curve" smooth="yes"/>
      <point x="537" y="371" type="line"/>
      <point x="537" y="249" type="line"/>
      <point x="238" y="249" type="line" smooth="yes"/>
      <point x="174" y="249"/>
      <point x="160" y="239"/>
      <point x="160" y="188" type="curve" smooth="yes"/>
      <point x="160" y="127"/>
      <point x="180" y="122"/>
      <point x="269" y="122" type="curve"/>
      <point x="269" y="-1" type="line"/>
      <point x="111" y="-1"/>
      <point x="39" y="68"/>
    </contour>
    <contour>
      <point x="322" y="-1" type="curve"/>
      <point x="322" y="122" type="line"/>
      <point x="388" y="122"/>
      <point x="419" y="141"/>
      <point x="419" y="187" type="curve" smooth="yes"/>
      <point x="419" y="591" type="line"/>
      <point x="541" y="591" type="line"/>
      <point x="541" y="191" type="line" smooth="yes"/>
      <point x="541" y="95"/>
      <point x="489" y="-1"/>
    </contour>
    <contour>
      <point x="164" y="348" type="line"/>
      <point x="164" y="589" type="line"/>
      <point x="287" y="589" type="line"/>
      <point x="286" y="348" type="line"/>
    </contour>
    <contour>
      <point x="381" y="473" type="line"/>
      <point x="381" y="595" type="line"/>
      <point x="693" y="595" type="line"/>
      <point x="693" y="473" type="line"/>
    </contour>
    <contour>
      <point x="164" y="473" type="line"/>
      <point x="164" y="595" type="line"/>
      <point x="327" y="595" type="line"/>
      <point x="327" y="473" type="line"/>
    </contour>
  </outline>
</glyph>
<glyph name="tml_CUu" format="1">
  <advance width="1149"/>
  <outline>
    <contour>
      <point x="604" y="-56" type="line"/>
      <point x="604" y="-178" type="line"/>
      <point x="924" y="-179" type="line" smooth="yes"/>
      <point x="1050" y="-179"/>
      <point x="1110" y="-82"/>
      <point x="1110" y="-15" type="curve" smooth="yes"/>
      <point x="1110" y="65" type="line" smooth="yes"/>
      <point x="1110" y="183"/>
      <point x="1008" y="209"/>
      <point x="947" y="215" type="curve"/>
      <point x="947" y="94" type="line"/>
      <point x="968" y="94"/>
      <point x="988" y="97"/>
      <point x="988" y="47" type="curve" smooth="yes"/>
      <point x="988" y="6" type="line" smooth="yes"/>
      <point x="988" y="-42"/>
      <point x="959" y="-56"/>
      <point x="923" y="-56" type="curve" smooth="yes"/>
    </contour>
    <contour>
      <point x="39" y="29" type="line" smooth="yes"/>
      <point x="39" y="-110"/>
      <point x="124" y="-177"/>
      <point x="233" y="-177" type="curve" smooth="yes"/>
      <point x="549" y="-178" type="line"/>
      <point x="549" y="-56" type="line"/>
      <point x="249" y="-56" type="line" smooth="yes"/>
      <point x="185" y="-56"/>
      <point x="162" y="-36"/>
      <point x="162" y="28" type="curve" smooth="yes"/>
      <point x="162" y="268" type="line" smooth="yes"/>
      <point x="162" y="304"/>
      <point x="165" y="360"/>
      <point x="239" y="360" type="curve" smooth="yes"/>
      <point x="238" y="482" type="line" smooth="yes"/>
      <point x="153" y="482"/>
      <point x="39" y="435"/>
      <point x="39" y="272" type="curve" smooth="yes"/>
    </contour>
    <contour>
      <point x="771" y="0" type="line"/>
      <point x="771" y="311" type="line"/>
      <point x="894" y="311" type="line"/>
      <point x="894" y="0" type="line"/>
    </contour>
    <contour>
      <point x="703" y="249" type="line"/>
      <point x="703" y="371" type="line"/>
      <point x="954" y="371" type="line"/>
      <point x="954" y="249" type="line"/>
    </contour>
    <contour>
      <point x="205" y="157" type="curve" smooth="yes"/>
      <point x="205" y="218" type="line" smooth="yes"/>
      <point x="205" y="326"/>
      <point x="315" y="371"/>
      <point x="401" y="371" type="curve" smooth="yes"/>
      <point x="703" y="371" type="line"/>
      <point x="703" y="249" type="line"/>
      <point x="404" y="249" type="line" smooth="yes"/>
      <point x="340" y="249"/>
      <point x="326" y="239"/>
      <point x="326" y="188" type="curve" smooth="yes"/>
      <point x="326" y="127"/>
      <point x="346" y="122"/>
      <point x="435" y="122" type="curve"/>
      <point x="435" y="-1" type="line"/>
      <point x="277" y="-1"/>
      <point x="205" y="68"/>
    </contour>
    <contour>
      <point x="488" y="-1" type="curve"/>
      <point x="488" y="122" type="line"/>
      <point x="554" y="122"/>
      <point x="585" y="141"/>
      <point x="585" y="187" type="curve" smooth="yes"/>
      <point x="585" y="591" type="line"/>
      <point x="707" y="591" type="line"/>
      <point x="707" y="191" type="line" smooth="yes"/>
      <point x="707" y="95"/>
      <point x="655" y="-1"/>
    </contour>
    <contour>
      <point x="330" y="348" type="line"/>
      <point x="330" y="589" type="line"/>
      <point x="453" y="589" type="line"/>
      <point x="452" y="348" type="line"/>
    </contour>
    <contour>
      <point x="547" y="473" type="line"/>
      <point x="547" y="595" type="line"/>
      <point x="859" y="595" type="line"/>
      <point x="859" y="473" type="line"/>
    </contour>
    <contour>
      <point x="330" y="473" type="line"/>
      <point x="330" y="595" type="line"/>
      <point x="493" y="595" type="line"/>
      <point x="493" y="473" type="line"/>
    </contour>
  </outline>
</glyph>
<glyph name="tml_HI" format="1">
  <advance width="1550"/>
  <outline>
    <contour>
      <point x="93.0059" y="-256" type="line"/>
      <point x="93.0059" y="-102.975"/>
      <point x="143.399" y="-33"/>
      <point x="299.006" y="-33" type="curve" smooth="yes"/>
      <point x="391.006" y="-33"/>
      <point x="1024.01" y="-33"/>
      <point x="1113.01" y="-33" type="curve" smooth="yes"/>
      <point x="1211.01" y="-33"/>
      <point x="1211.01" y="39"/>
      <point x="1211.01" y="70" type="curve" smooth="yes"/>
      <point x="1211.01" y="446" type="line" smooth="yes"/>
      <point x="1211.01" y="467"/>
      <point x="1183.01" y="482"/>
      <point x="1141.01" y="482" type="curve"/>
      <point x="1104.01" y="482"/>
      <point x="1076.01" y="467"/>
      <point x="1076.01" y="445" type="curve" smooth="yes"/>
      <point x="1079.01" y="0" type="line"/>
      <point x="956.006" y="-1" type="line"/>
      <point x="956.006" y="457" type="line" smooth="yes"/>
      <point x="956.006" y="471"/>
      <point x="943.006" y="481"/>
      <point x="917.006" y="481" type="curve"/>
      <point x="917.006" y="604" type="line"/>
      <point x="963.006" y="604"/>
      <point x="993.006" y="595"/>
      <point x="1017.01" y="574" type="curve"/>
      <point x="1045.01" y="597"/>
      <point x="1102.01" y="604"/>
      <point x="1141.01" y="604" type="curve"/>
      <point x="1283.01" y="604"/>
      <point x="1332.01" y="528"/>
      <point x="1333.01" y="473" type="curve" smooth="yes"/>
      <point x="1333.01" y="70" type="line" smooth="yes"/>
      <point x="1333.01" y="-44"/>
      <point x="1270.01" y="-153"/>
      <point x="1140.01" y="-155" type="curve" smooth="yes"/>
      <point x="273.006" y="-155" type="line" smooth="yes"/>
      <point x="230.424" y="-155"/>
      <point x="215.006" y="-182.725"/>
      <point x="215.006" y="-256" type="curve"/>
    </contour>
    <contour>
      <point x="352.006" y="474" type="curve"/>
      <point x="352.006" y="596" type="line"/>
      <point x="521.183" y="596"/>
      <point x="607.959" y="481.998"/>
      <point x="609.006" y="355" type="curve"/>
      <point x="609.006" y="123" type="line"/>
      <point x="656.006" y="123" type="line"/>
      <point x="656.006" y="0" type="line"/>
      <point x="455.006" y="0" type="line"/>
      <point x="455.006" y="123" type="line"/>
      <point x="462.006" y="124"/>
      <point x="488.006" y="127"/>
      <point x="488.006" y="146" type="curve" smooth="yes"/>
      <point x="488.006" y="354" type="line"/>
      <point x="486.98" y="423.732"/>
      <point x="428.929" y="474"/>
    </contour>
    <contour>
      <point x="40.0059" y="151" type="curve" smooth="yes"/>
      <point x="40.0059" y="193"/>
      <point x="41.0059" y="140"/>
      <point x="40.0059" y="220" type="curve" smooth="yes"/>
      <point x="39.0059" y="324"/>
      <point x="162.006" y="359"/>
      <point x="212.006" y="359" type="curve"/>
      <point x="212.006" y="237" type="line" smooth="yes"/>
      <point x="183.006" y="237"/>
      <point x="165.006" y="210"/>
      <point x="165.006" y="181" type="curve" smooth="yes"/>
      <point x="165.006" y="149"/>
      <point x="179.006" y="122"/>
      <point x="212.006" y="122" type="curve"/>
      <point x="212.006" y="0" type="line" smooth="yes"/>
      <point x="110.006" y="0"/>
      <point x="40.0059" y="91"/>
    </contour>
    <contour>
      <point x="267.006" y="0" type="curve"/>
      <point x="267.006" y="122" type="line" smooth="yes"/>
      <point x="308.006" y="122"/>
      <point x="314.006" y="150"/>
      <point x="313.006" y="181" type="curve" smooth="yes"/>
      <point x="312.006" y="208"/>
      <point x="309.006" y="237"/>
      <point x="267.006" y="237" type="curve"/>
      <point x="267.006" y="359" type="line" smooth="yes"/>
      <point x="363.006" y="359"/>
      <point x="436.006" y="276"/>
      <point x="436.006" y="224" type="curve" smooth="yes"/>
      <point x="436.006" y="152" type="line" smooth="yes"/>
      <point x="437.006" y="89"/>
      <point x="376.006" y="0"/>
    </contour>
    <contour>
      <point x="1081.01" y="596" type="line"/>
      <point x="1081.01" y="596" type="line"/>
      <point x="1081.01" y="700"/>
      <point x="1116.01" y="816"/>
      <point x="1265.01" y="816" type="curve" smooth="yes"/>
      <point x="1265.01" y="816" type="line"/>
      <point x="1265.01" y="694" type="line" smooth="yes"/>
      <point x="1265.01" y="694" type="line" smooth="yes"/>
      <point x="1218.01" y="694"/>
      <point x="1204.01" y="657"/>
      <point x="1204.01" y="596" type="curve" smooth="yes"/>
    </contour>
    <contour>
      <point x="710.006" y="0" type="line"/>
      <point x="710.006" y="477" type="line" smooth="yes"/>
      <point x="710.006" y="527"/>
      <point x="751.006" y="604"/>
      <point x="863.006" y="604" type="curve"/>
      <point x="863.006" y="481" type="line"/>
      <point x="838.006" y="481"/>
      <point x="834.006" y="469"/>
      <point x="834.006" y="456" type="curve" smooth="yes"/>
      <point x="834.006" y="0" type="line"/>
    </contour>
    <contour>
      <point x="1319.01" y="694" type="curve"/>
      <point x="1319.01" y="816" type="line"/>
      <point x="1470.01" y="816"/>
      <point x="1510.01" y="701"/>
      <point x="1510.01" y="598" type="curve" smooth="yes"/>
      <point x="1510.01" y="69" type="line"/>
      <point x="1388.01" y="69" type="line"/>
      <point x="1388.01" y="595" type="line" smooth="yes"/>
      <point x="1388.01" y="657"/>
      <point x="1374.01" y="694"/>
    </contour>
    <contour>
      <point x="40.0059" y="226" type="curve"/>
      <point x="40.0059" y="282" type="line" smooth="yes"/>
      <point x="40.0059" y="374.994"/>
      <point x="70.0117" y="596"/>
      <point x="298.006" y="596" type="curve"/>
      <point x="298.006" y="474" type="line"/>
      <point x="232.895" y="474"/>
      <point x="183.231" y="432.384"/>
      <point x="176.006" y="356" type="curve" smooth="yes"/>
      <point x="171.006" y="299"/>
      <point x="46.0059" y="256"/>
    </contour>
  </outline>
</glyph>
<glyph name="tml_HIi" format="1">
  <advance width="1415"/>
  <outline>
    <contour>
      <point x="974" y="573.656" type="line"/>
      <point x="974" y="653" type="line" smooth="yes"/>
      <point x="900" y="812"/>
      <point x="971.394" y="1000"/>
      <point x="1174" y="1000" type="curve" smooth="yes"/>
      <point x="1402" y="1000"/>
      <point x="1393.69" y="687"/>
      <point x="1195" y="687" type="curve" smooth="yes"/>
      <point x="1150" y="687"/>
      <point x="1103" y="725"/>
      <point x="1093" y="746" type="curve"/>
      <point x="1164" y="829" type="line" smooth="yes"/>
      <point x="1164" y="813"/>
      <point x="1173" y="796"/>
      <point x="1198" y="796" type="curve" smooth="yes"/>
      <point x="1221" y="796"/>
      <point x="1232" y="815"/>
      <point x="1232" y="836" type="curve" smooth="yes"/>
      <point x="1232" y="851"/>
      <point x="1221" y="885"/>
      <point x="1164" y="885" type="curve"/>
      <point x="1092.68" y="884.57"/>
      <point x="1023" y="810"/>
      <point x="1098" y="651.727" type="curve" smooth="yes"/>
      <point x="1098" y="573.656" type="line"/>
    </contour>
    <component base="tml_Ha" xOffset="9"/>
  </outline>
</glyph>
<glyph name="tml_HU" format="1">
  <advance width="1766"/>
  <outline>
    <contour>
      <point x="1168.01" y="482" type="line"/>
      <point x="1515.01" y="482" type="line" smooth="yes"/>
      <point x="1570.97" y="481.326"/>
      <point x="1604.01" y="471"/>
      <point x="1604.01" y="433" type="curve" smooth="yes"/>
      <point x="1604.01" y="415"/>
      <point x="1593.01" y="401"/>
      <point x="1570.01" y="401" type="curve" smooth="yes"/>
      <point x="1548.01" y="401"/>
      <point x="1536.01" y="414"/>
      <point x="1536.01" y="434" type="curve" smooth="yes"/>
      <point x="1414.01" y="434" type="line"/>
      <point x="1414.01" y="349"/>
      <point x="1485.01" y="279"/>
      <point x="1554.01" y="279" type="curve" smooth="yes"/>
      <point x="1583.01" y="279" type="line" smooth="yes"/>
      <point x="1638.01" y="279"/>
      <point x="1726.01" y="330"/>
      <point x="1726.01" y="434" type="curve" smooth="yes"/>
      <point x="1726.01" y="444" type="line" smooth="yes"/>
      <point x="1726.01" y="577"/>
      <point x="1629.94" y="604.676"/>
      <point x="1519.01" y="606" type="curve" smooth="yes"/>
      <point x="1168.01" y="606" type="line"/>
    </contour>
    <contour>
      <point x="93.0059" y="-256" type="curve"/>
      <point x="215.006" y="-256" type="line"/>
      <point x="215.006" y="-182.725"/>
      <point x="230.424" y="-155"/>
      <point x="273.006" y="-155" type="curve" smooth="yes"/>
      <point x="1140.01" y="-155" type="line" smooth="yes"/>
      <point x="1270.01" y="-153"/>
      <point x="1333.01" y="-44"/>
      <point x="1333.01" y="70" type="curve" smooth="yes"/>
      <point x="1333.01" y="473" type="line" smooth="yes"/>
      <point x="1332.01" y="528"/>
      <point x="1281.01" y="604"/>
      <point x="1168.01" y="604" type="curve"/>
      <point x="1168.01" y="482" type="line"/>
      <point x="1190.01" y="482"/>
      <point x="1211.01" y="479"/>
      <point x="1211.01" y="458" type="curve" smooth="yes"/>
      <point x="1211.01" y="70" type="line" smooth="yes"/>
      <point x="1211.01" y="39"/>
      <point x="1211.01" y="-33"/>
      <point x="1113.01" y="-33" type="curve" smooth="yes"/>
      <point x="1024.01" y="-33"/>
      <point x="391.006" y="-33"/>
      <point x="299.006" y="-33" type="curve" smooth="yes"/>
      <point x="143.399" y="-33"/>
      <point x="93.0059" y="-102.975"/>
    </contour>
    <contour>
      <point x="710.006" y="0" type="line"/>
      <point x="710.006" y="477" type="line" smooth="yes"/>
      <point x="710.006" y="527"/>
      <point x="751.006" y="604"/>
      <point x="863.006" y="604" type="curve"/>
      <point x="863.006" y="481" type="line"/>
      <point x="838.006" y="481"/>
      <point x="834.006" y="469"/>
      <point x="834.006" y="456" type="curve" smooth="yes"/>
      <point x="834.006" y="0" type="line"/>
    </contour>
    <contour>
      <point x="917.006" y="481" type="curve"/>
      <point x="917.006" y="604" type="line"/>
      <point x="963.006" y="604"/>
      <point x="993.006" y="595"/>
      <point x="1017.01" y="574" type="curve"/>
      <point x="1045.01" y="597"/>
      <point x="1077.01" y="604"/>
      <point x="1116.01" y="604" type="curve"/>
      <point x="1116.01" y="482" type="line"/>
      <point x="1098.01" y="482"/>
      <point x="1076.01" y="479"/>
      <point x="1076.01" y="457" type="curve" smooth="yes"/>
      <point x="1079.01" y="0" type="line"/>
      <point x="956.006" y="-1" type="line"/>
      <point x="956.006" y="457" type="line" smooth="yes"/>
      <point x="956.006" y="471"/>
      <point x="943.006" y="481"/>
    </contour>
    <contour>
      <point x="267.006" y="0" type="curve"/>
      <point x="267.006" y="122" type="line" smooth="yes"/>
      <point x="308.006" y="122"/>
      <point x="314.006" y="150"/>
      <point x="313.006" y="181" type="curve" smooth="yes"/>
      <point x="312.006" y="208"/>
      <point x="309.006" y="237"/>
      <point x="267.006" y="237" type="curve"/>
      <point x="267.006" y="359" type="line" smooth="yes"/>
      <point x="363.006" y="359"/>
      <point x="436.006" y="276"/>
      <point x="436.006" y="224" type="curve" smooth="yes"/>
      <point x="436.006" y="152" type="line" smooth="yes"/>
      <point x="437.006" y="89"/>
      <point x="376.006" y="0"/>
    </contour>
    <contour>
      <point x="40.0059" y="151" type="curve" smooth="yes"/>
      <point x="40.0059" y="193"/>
      <point x="41.0059" y="140"/>
      <point x="40.0059" y="220" type="curve" smooth="yes"/>
      <point x="39.0059" y="324"/>
      <point x="162.006" y="359"/>
      <point x="212.006" y="359" type="curve"/>
      <point x="212.006" y="237" type="line" smooth="yes"/>
      <point x="183.006" y="237"/>
      <point x="165.006" y="210"/>
      <point x="165.006" y="181" type="curve" smooth="yes"/>
      <point x="165.006" y="149"/>
      <point x="179.006" y="122"/>
      <point x="212.006" y="122" type="curve"/>
      <point x="212.006" y="0" type="line" smooth="yes"/>
      <point x="110.006" y="0"/>
      <point x="40.0059" y="91"/>
    </contour>
    <contour>
      <point x="40.0059" y="226" type="curve"/>
      <point x="40.0059" y="282" type="line" smooth="yes"/>
      <point x="40.0059" y="374.994"/>
      <point x="70.0117" y="596"/>
      <point x="298.006" y="596" type="curve"/>
      <point x="298.006" y="474" type="line"/>
      <point x="232.895" y="474"/>
      <point x="183.231" y="432.384"/>
      <point x="176.006" y="356" type="curve" smooth="yes"/>
      <point x="171.006" y="299"/>
      <point x="46.0059" y="256"/>
    </contour>
    <contour>
      <point x="352.006" y="474" type="line"/>
      <point x="428.929" y="474"/>
      <point x="486.98" y="423.732"/>
      <point x="488.006" y="354" type="curve"/>
      <point x="488.006" y="146" type="line" smooth="yes"/>
      <point x="488.006" y="127"/>
      <point x="462.006" y="124"/>
      <point x="455.006" y="123" type="curve"/>
      <point x="455.006" y="0" type="line"/>
      <point x="656.006" y="0" type="line"/>
      <point x="656.006" y="123" type="line"/>
      <point x="609.006" y="123" type="line"/>
      <point x="609.006" y="355" type="line"/>
      <point x="607.959" y="481.998"/>
      <point x="521.183" y="596"/>
      <point x="352.006" y="596" type="curve"/>
    </contour>
  </outline>
</glyph>
<glyph name="tml_HUu" format="1">
  <advance width="1890"/>
  <outline>
    <contour>
      <point x="1177.01" y="482" type="line"/>
      <point x="1497.01" y="482" type="line" smooth="yes"/>
      <point x="1553.01" y="482"/>
      <point x="1586.01" y="475"/>
      <point x="1586.01" y="437" type="curve" smooth="yes"/>
      <point x="1586.01" y="419"/>
      <point x="1575.01" y="405"/>
      <point x="1552.01" y="405" type="curve" smooth="yes"/>
      <point x="1530.01" y="405"/>
      <point x="1518.01" y="418"/>
      <point x="1518.01" y="438" type="curve" smooth="yes"/>
      <point x="1396.01" y="438" type="line"/>
      <point x="1396.01" y="353"/>
      <point x="1467.01" y="283"/>
      <point x="1536.01" y="283" type="curve" smooth="yes"/>
      <point x="1565.01" y="283" type="line" smooth="yes"/>
      <point x="1620.01" y="283"/>
      <point x="1708.01" y="334"/>
      <point x="1708.01" y="438" type="curve" smooth="yes"/>
      <point x="1708.01" y="448" type="line" smooth="yes"/>
      <point x="1708.01" y="581"/>
      <point x="1612.01" y="604"/>
      <point x="1501.01" y="604" type="curve" smooth="yes"/>
      <point x="1177.01" y="604" type="line"/>
    </contour>
    <contour>
      <point x="1397.01" y="601" type="line" smooth="yes"/>
      <point x="1397.01" y="711"/>
      <point x="1494.01" y="802"/>
      <point x="1626.01" y="802" type="curve" smooth="yes"/>
      <point x="1772.01" y="802"/>
      <point x="1859.01" y="710"/>
      <point x="1859.01" y="605" type="curve" smooth="yes"/>
      <point x="1859.01" y="281" type="line" smooth="yes"/>
      <point x="1859.01" y="176"/>
      <point x="1785.01" y="131"/>
      <point x="1680.01" y="131" type="curve" smooth="yes"/>
      <point x="1621.01" y="131" type="line" smooth="yes"/>
      <point x="1621.01" y="223" type="line" smooth="yes"/>
      <point x="1680.01" y="223" type="line" smooth="yes"/>
      <point x="1718.01" y="223"/>
      <point x="1736.01" y="246"/>
      <point x="1736.01" y="281" type="curve" smooth="yes"/>
      <point x="1736.01" y="605" type="line" smooth="yes"/>
      <point x="1736.01" y="665"/>
      <point x="1665.01" y="680"/>
      <point x="1626.01" y="680" type="curve" smooth="yes"/>
      <point x="1588.01" y="680"/>
      <point x="1519.01" y="667"/>
      <point x="1519.01" y="601" type="curve"/>
    </contour>
    <component base="tml_Ha"/>
  </outline>
</glyph>
<glyph name="tml_JIi" format="1">
  <advance width="1033"/>
  <outline>
    <contour>
      <point x="286" y="-180" type="line"/>
      <point x="164" y="-180"/>
      <point x="55" y="-92"/>
      <point x="55" y="11" type="curve" smooth="yes"/>
      <point x="55" y="83" type="line" smooth="yes"/>
      <point x="55" y="164"/>
      <point x="125" y="280"/>
      <point x="262" y="280" type="curve" smooth="yes"/>
      <point x="718" y="281" type="line" smooth="yes"/>
      <point x="793" y="281"/>
      <point x="786" y="349"/>
      <point x="786" y="409" type="curve" smooth="yes"/>
      <point x="786" y="448" type="line"/>
      <point x="786" y="533"/>
      <point x="740" y="561"/>
      <point x="679" y="561" type="curve"/>
      <point x="618" y="561"/>
      <point x="583" y="517"/>
      <point x="583" y="451" type="curve" smooth="yes"/>
      <point x="583" y="371" type="line"/>
      <point x="461" y="371" type="line"/>
      <point x="461" y="468" type="line" smooth="yes"/>
      <point x="461" y="601"/>
      <point x="560" y="686"/>
      <point x="679" y="686" type="curve"/>
      <point x="826" y="686"/>
      <point x="910" y="597"/>
      <point x="910" y="448" type="curve"/>
      <point x="910" y="387" type="line" smooth="yes"/>
      <point x="908" y="218"/>
      <point x="816" y="158"/>
      <point x="736" y="158" type="curve" smooth="yes"/>
      <point x="255" y="158" type="line" smooth="yes"/>
      <point x="196" y="158"/>
      <point x="177" y="93"/>
      <point x="177" y="46" type="curve" smooth="yes"/>
      <point x="177" y="-19"/>
      <point x="210" y="-58"/>
      <point x="286" y="-58" type="curve"/>
    </contour>
    <contour>
      <point x="40" y="471" type="curve" smooth="yes"/>
      <point x="41" y="496" type="line" smooth="yes"/>
      <point x="41" y="581"/>
      <point x="136" y="674"/>
      <point x="229" y="686" type="curve" smooth="yes"/>
      <point x="342" y="700"/>
      <point x="424" y="588"/>
      <point x="424" y="499" type="curve" smooth="yes"/>
      <point x="424" y="471" type="line" smooth="yes"/>
      <point x="424" y="410"/>
      <point x="342" y="307"/>
      <point x="260" y="307" type="curve"/>
      <point x="260" y="432" type="line"/>
      <point x="282" y="440"/>
      <point x="302" y="467"/>
      <point x="302" y="499" type="curve" smooth="yes"/>
      <point x="302" y="538"/>
      <point x="271" y="569"/>
      <point x="232" y="569" type="curve" smooth="yes"/>
      <point x="193" y="569"/>
      <point x="162" y="538"/>
      <point x="162" y="499" type="curve" smooth="yes"/>
      <point x="162" y="466"/>
      <point x="183" y="439"/>
      <point x="206" y="431" type="curve"/>
      <point x="206" y="307" type="line"/>
      <point x="119" y="307"/>
      <point x="40" y="402"/>
    </contour>
    <contour>
      <point x="623" y="597.656" type="line"/>
      <point x="623" y="677" type="line" smooth="yes"/>
      <point x="549" y="836"/>
      <point x="620.394" y="1024"/>
      <point x="823" y="1024" type="curve" smooth="yes"/>
      <point x="1051" y="1024"/>
      <point x="1042.69" y="711"/>
      <point x="844" y="711" type="curve" smooth="yes"/>
      <point x="799" y="711"/>
      <point x="752" y="749"/>
      <point x="742" y="770" type="curve"/>
      <point x="813" y="853" type="line" smooth="yes"/>
      <point x="813" y="837"/>
      <point x="822" y="820"/>
      <point x="847" y="820" type="curve" smooth="yes"/>
      <point x="870" y="820"/>
      <point x="881" y="839"/>
      <point x="881" y="860" type="curve" smooth="yes"/>
      <point x="881" y="875"/>
      <point x="870" y="909"/>
      <point x="813" y="909" type="curve"/>
      <point x="741.677" y="908.57"/>
      <point x="672" y="834"/>
      <point x="747" y="675.727" type="curve" smooth="yes"/>
      <point x="747" y="597.656" type="line"/>
    </contour>
    <contour>
      <point x="40" y="472" type="line"/>
      <point x="40" y="482" type="line" smooth="yes"/>
      <point x="40" y="537"/>
      <point x="72" y="696"/>
      <point x="301" y="696" type="curve"/>
      <point x="446" y="696"/>
      <point x="583" y="612"/>
      <point x="583" y="408" type="curve" smooth="yes"/>
      <point x="583" y="320" type="line"/>
      <point x="461" y="320" type="line"/>
      <point x="461" y="408" type="line" smooth="yes"/>
      <point x="461" y="543"/>
      <point x="352" y="582"/>
      <point x="304" y="582" type="curve" smooth="yes"/>
      <point x="263" y="582"/>
      <point x="159" y="587"/>
      <point x="159" y="483" type="curve"/>
    </contour>
    <contour>
      <point x="347" y="-55" type="line"/>
      <point x="387" y="-55"/>
      <point x="409" y="-50"/>
      <point x="410" y="-1" type="curve" smooth="yes"/>
      <point x="412" y="90"/>
      <point x="501" y="140"/>
      <point x="598" y="140" type="curve"/>
      <point x="664" y="140" type="line"/>
      <point x="664" y="16" type="line"/>
      <point x="580" y="16" type="line"/>
      <point x="556" y="17"/>
      <point x="531" y="13"/>
      <point x="529" y="-59" type="curve" smooth="yes"/>
      <point x="528" y="-108"/>
      <point x="463" y="-178"/>
      <point x="347" y="-178" type="curve"/>
    </contour>
    <contour>
      <point x="619" y="-55" type="line" smooth="yes"/>
      <point x="682" y="-55"/>
      <point x="782" y="-60"/>
      <point x="782" y="-14" type="curve" smooth="yes"/>
      <point x="782" y="7"/>
      <point x="758" y="15"/>
      <point x="718" y="16" type="curve"/>
      <point x="718" y="140" type="line"/>
      <point x="805" y="140"/>
      <point x="904" y="97"/>
      <point x="904" y="-16" type="curve" smooth="yes"/>
      <point x="904" y="-151"/>
      <point x="774" y="-177"/>
      <point x="619" y="-177" type="curve" smooth="yes"/>
    </contour>
  </outline>
</glyph>
<glyph name="tml_JU" format="1">
  <advance width="1316"/>
  <outline>
    <contour>
      <point x="718" y="560" type="line"/>
      <point x="718" y="684" type="line"/>
      <point x="1069" y="684" type="line" smooth="yes"/>
      <point x="1179.94" y="682.676"/>
      <point x="1276" y="655"/>
      <point x="1276" y="522" type="curve" smooth="yes"/>
      <point x="1276" y="512" type="line" smooth="yes"/>
      <point x="1276" y="408"/>
      <point x="1188" y="357"/>
      <point x="1133" y="357" type="curve" smooth="yes"/>
      <point x="1104" y="357" type="line" smooth="yes"/>
      <point x="1035" y="357"/>
      <point x="964" y="427"/>
      <point x="964" y="512" type="curve"/>
      <point x="1086" y="512" type="line" smooth="yes"/>
      <point x="1086" y="492"/>
      <point x="1098" y="479"/>
      <point x="1120" y="479" type="curve" smooth="yes"/>
      <point x="1143" y="479"/>
      <point x="1154" y="493"/>
      <point x="1154" y="511" type="curve" smooth="yes"/>
      <point x="1154" y="549"/>
      <point x="1120.97" y="559.326"/>
      <point x="1065" y="560" type="curve" smooth="yes"/>
    </contour>
    <component base="tml_Ja"/>
  </outline>
</glyph>
<glyph name="tml_JUu" format="1">
  <advance width="1467"/>
  <outline>
    <contour>
      <point x="1189.13" y="210" type="line" smooth="yes"/>
      <point x="1189.13" y="302" type="line" smooth="yes"/>
      <point x="1248.13" y="302" type="line" smooth="yes"/>
      <point x="1286.13" y="302"/>
      <point x="1304.13" y="325"/>
      <point x="1304.13" y="360" type="curve" smooth="yes"/>
      <point x="1304.13" y="684" type="line" smooth="yes"/>
      <point x="1304.13" y="744"/>
      <point x="1233.13" y="759"/>
      <point x="1194.13" y="759" type="curve" smooth="yes"/>
      <point x="1156.13" y="759"/>
      <point x="1087.13" y="746"/>
      <point x="1087.13" y="680" type="curve"/>
      <point x="965.133" y="680" type="line" smooth="yes"/>
      <point x="965.133" y="790"/>
      <point x="1062.13" y="881"/>
      <point x="1194.13" y="881" type="curve" smooth="yes"/>
      <point x="1340.13" y="881"/>
      <point x="1427.13" y="789"/>
      <point x="1427.13" y="684" type="curve" smooth="yes"/>
      <point x="1427.13" y="360" type="line" smooth="yes"/>
      <point x="1427.13" y="255"/>
      <point x="1353.13" y="210"/>
      <point x="1248.13" y="210" type="curve" smooth="yes"/>
    </contour>
    <contour>
      <point x="1105.13" y="363" type="line" smooth="yes"/>
      <point x="1036.13" y="363"/>
      <point x="965.133" y="433"/>
      <point x="965.133" y="518" type="curve"/>
      <point x="1087.13" y="518" type="line" smooth="yes"/>
      <point x="1087.13" y="498"/>
      <point x="1099.13" y="485"/>
      <point x="1121.13" y="485" type="curve" smooth="yes"/>
      <point x="1144.13" y="485"/>
      <point x="1155.13" y="499"/>
      <point x="1155.13" y="517" type="curve" smooth="yes"/>
      <point x="1155.13" y="555"/>
      <point x="1122.13" y="562"/>
      <point x="1066.13" y="562" type="curve" smooth="yes"/>
      <point x="718.133" y="562" type="line"/>
      <point x="718.133" y="684" type="line"/>
      <point x="1070.13" y="684" type="line" smooth="yes"/>
      <point x="1181.13" y="684"/>
      <point x="1277.13" y="661"/>
      <point x="1277.13" y="528" type="curve" smooth="yes"/>
      <point x="1277.13" y="518" type="line" smooth="yes"/>
      <point x="1277.13" y="414"/>
      <point x="1189.13" y="363"/>
      <point x="1134.13" y="363" type="curve" smooth="yes"/>
    </contour>
    <component base="tml_Ja"/>
  </outline>
</glyph>
<glyph name="tml_KI.alt" format="1">
  <advance width="1014"/>
  <outline>
    <contour>
      <point x="465" y="855" type="line"/>
      <point x="186" y="857"/>
      <point x="-67" y="650"/>
      <point x="87" y="272" type="curve"/>
      <point x="186" y="365" type="line"/>
      <point x="87" y="652"/>
      <point x="297" y="721"/>
      <point x="465" y="733" type="curve"/>
      <point x="465" y="733" type="line" smooth="yes"/>
      <point x="465" y="855" type="line"/>
    </contour>
    <contour>
      <point x="519" y="733" type="line"/>
      <point x="621" y="733"/>
      <point x="853" y="697"/>
      <point x="853" y="426" type="curve" smooth="yes"/>
      <point x="853" y="1" type="line"/>
      <point x="975" y="1" type="line"/>
      <point x="975" y="429" type="line" smooth="yes"/>
      <point x="974" y="751"/>
      <point x="719" y="855"/>
      <point x="519" y="855" type="curve"/>
    </contour>
    <component base="tml_Ka" xOffset="12.702"/>
  </outline>
</glyph>
<glyph name="tml_KI" format="1">
  <advance width="996"/>
  <outline>
    <contour>
      <point x="420" y="588" type="line"/>
      <point x="543" y="588" type="line" smooth="yes"/>
      <point x="543" y="649"/>
      <point x="584" y="686"/>
      <point x="655" y="686" type="curve" smooth="yes"/>
      <point x="655" y="686" type="line" smooth="yes"/>
      <point x="655" y="808" type="line"/>
      <point x="655" y="808" type="line" smooth="yes"/>
      <point x="483" y="808"/>
      <point x="420" y="692"/>
      <point x="420" y="588" type="curve"/>
    </contour>
    <contour>
      <point x="709" y="686" type="line"/>
      <point x="791" y="686"/>
      <point x="834" y="649"/>
      <point x="834" y="587" type="curve" smooth="yes"/>
      <point x="834" y="1" type="line"/>
      <point x="956" y="1" type="line"/>
      <point x="956" y="590" type="line" smooth="yes"/>
      <point x="956" y="691"/>
      <point x="896" y="808"/>
      <point x="709" y="808" type="curve"/>
    </contour>
    <component base="tml_Ka" xOffset="-8"/>
  </outline>
</glyph>
<glyph name="tml_KIi.alt" format="1">
  <advance width="894"/>
  <outline>
    <contour>
      <point x="90" y="272" type="line"/>
      <point x="-42.6523" y="599.51"/>
      <point x="81.7041" y="819.068"/>
      <point x="240" y="905" type="curve" smooth="yes"/>
      <point x="345" y="962"/>
      <point x="436" y="981"/>
      <point x="573" y="965" type="curve"/>
      <point x="698" y="950"/>
      <point x="776.856" y="870.044"/>
      <point x="779" y="775" type="curve" smooth="yes"/>
      <point x="780.663" y="701.283"/>
      <point x="730" y="619"/>
      <point x="645" y="619" type="curve" smooth="yes"/>
      <point x="600" y="619"/>
      <point x="560" y="628"/>
      <point x="524" y="670" type="curve"/>
      <point x="578" y="768" type="line" smooth="yes"/>
      <point x="578" y="752"/>
      <point x="587" y="735"/>
      <point x="612" y="735" type="curve" smooth="yes"/>
      <point x="635" y="735"/>
      <point x="646" y="754"/>
      <point x="646" y="775" type="curve" smooth="yes"/>
      <point x="646" y="790"/>
      <point x="638.002" y="818.043"/>
      <point x="583" y="833" type="curve" smooth="yes"/>
      <point x="469" y="864"/>
      <point x="363.105" y="827.391"/>
      <point x="300" y="796" type="curve" smooth="yes"/>
      <point x="166.657" y="729.671"/>
      <point x="123.483" y="592.023"/>
      <point x="189" y="365" type="curve"/>
    </contour>
    <component base="tml_Ka" xOffset="24"/>
  </outline>
</glyph>
<glyph name="tml_KSsU" format="1">
  <advance width="2032"/>
  <outline>
    <contour>
      <point x="1461" y="486" type="line"/>
      <point x="1781" y="486" type="line" smooth="yes"/>
      <point x="1837" y="486"/>
      <point x="1870" y="479"/>
      <point x="1870" y="441" type="curve" smooth="yes"/>
      <point x="1870" y="423"/>
      <point x="1859" y="409"/>
      <point x="1836" y="409" type="curve" smooth="yes"/>
      <point x="1814" y="409"/>
      <point x="1802" y="422"/>
      <point x="1802" y="442" type="curve" smooth="yes"/>
      <point x="1680" y="442" type="line"/>
      <point x="1680" y="357"/>
      <point x="1751" y="287"/>
      <point x="1820" y="287" type="curve" smooth="yes"/>
      <point x="1849" y="287" type="line" smooth="yes"/>
      <point x="1904" y="287"/>
      <point x="1992" y="338"/>
      <point x="1992" y="442" type="curve" smooth="yes"/>
      <point x="1992" y="452" type="line" smooth="yes"/>
      <point x="1992" y="585"/>
      <point x="1896" y="608"/>
      <point x="1785" y="608" type="curve" smooth="yes"/>
      <point x="1461" y="608" type="line"/>
    </contour>
    <contour>
      <point x="825" y="0" type="curve"/>
      <point x="825" y="122" type="line"/>
      <point x="857" y="123"/>
      <point x="872" y="142"/>
      <point x="872" y="180" type="curve" smooth="yes"/>
      <point x="872" y="218"/>
      <point x="856" y="237"/>
      <point x="825" y="237" type="curve"/>
      <point x="825" y="359" type="line" smooth="yes"/>
      <point x="921" y="359"/>
      <point x="994" y="276"/>
      <point x="994" y="224" type="curve" smooth="yes"/>
      <point x="994" y="152" type="line" smooth="yes"/>
      <point x="995" y="89"/>
      <point x="934" y="0"/>
    </contour>
    <contour>
      <point x="598" y="151" type="curve" smooth="yes"/>
      <point x="598" y="220" type="line" smooth="yes"/>
      <point x="597" y="324"/>
      <point x="720" y="359"/>
      <point x="770" y="359" type="curve"/>
      <point x="770" y="237" type="line" smooth="yes"/>
      <point x="741" y="237"/>
      <point x="723" y="218"/>
      <point x="723" y="181" type="curve" smooth="yes"/>
      <point x="723" y="147"/>
      <point x="737" y="122"/>
      <point x="770" y="122" type="curve"/>
      <point x="770" y="0" type="line" smooth="yes"/>
      <point x="668" y="0"/>
      <point x="598" y="91"/>
    </contour>
    <contour>
      <point x="598" y="226" type="line"/>
      <point x="598" y="268" type="line"/>
      <point x="598" y="340"/>
      <point x="649" y="534"/>
      <point x="859" y="534" type="curve"/>
      <point x="859" y="412" type="line"/>
      <point x="795" y="412"/>
      <point x="765" y="378"/>
      <point x="764" y="357" type="curve" smooth="yes"/>
    </contour>
    <contour>
      <point x="909" y="412" type="line"/>
      <point x="986" y="412"/>
      <point x="1044" y="361"/>
      <point x="1045" y="291" type="curve"/>
      <point x="1045" y="146" type="line" smooth="yes"/>
      <point x="1045" y="127"/>
      <point x="1019" y="124"/>
      <point x="1012" y="123" type="curve"/>
      <point x="1012" y="0" type="line"/>
      <point x="1408" y="0" type="line"/>
      <point x="1408" y="123" type="line"/>
      <point x="1166" y="123" type="line"/>
      <point x="1166" y="292" type="line"/>
      <point x="1165" y="403"/>
      <point x="1078" y="534"/>
      <point x="909" y="534" type="curve"/>
    </contour>
    <contour>
      <point x="1461" y="485" type="line"/>
      <point x="1500" y="485"/>
      <point x="1520" y="486"/>
      <point x="1520" y="413" type="curve" smooth="yes"/>
      <point x="1520" y="158" type="line"/>
      <point x="1642" y="158" type="line"/>
      <point x="1642" y="413" type="line" smooth="yes"/>
      <point x="1642" y="561"/>
      <point x="1564" y="607"/>
      <point x="1461" y="607" type="curve"/>
    </contour>
    <contour>
      <point x="1520" y="123" type="line"/>
      <point x="1520" y="-178" type="line"/>
      <point x="1642" y="-178" type="line"/>
      <point x="1642" y="123" type="line"/>
    </contour>
    <contour>
      <point x="1461" y="158" type="line"/>
      <point x="1778" y="158" type="line"/>
      <point x="1778" y="280" type="line" smooth="yes"/>
      <point x="1461" y="280" type="line"/>
    </contour>
    <contour>
      <point x="1227" y="334" type="line" smooth="yes"/>
      <point x="1227" y="191"/>
      <point x="1304" y="158"/>
      <point x="1408" y="158" type="curve"/>
      <point x="1408" y="279" type="line"/>
      <point x="1364" y="279"/>
      <point x="1350" y="287"/>
      <point x="1350" y="340" type="curve" smooth="yes"/>
      <point x="1350" y="424" type="line" smooth="yes"/>
      <point x="1350" y="463"/>
      <point x="1363" y="485"/>
      <point x="1408" y="485" type="curve"/>
      <point x="1408" y="607" type="line"/>
      <point x="1304" y="607"/>
      <point x="1227" y="570"/>
      <point x="1227" y="433" type="curve" smooth="yes"/>
    </contour>
    <contour>
      <point x="1678" y="0" type="line"/>
      <point x="1778" y="0" type="line"/>
      <point x="1778" y="280" type="line"/>
      <point x="1678" y="280" type="line"/>
    </contour>
    <contour>
      <point x="1461" y="1" type="line"/>
      <point x="1778" y="0" type="line"/>
      <point x="1778" y="123" type="line"/>
      <point x="1461" y="123" type="line"/>
    </contour>
    <contour>
      <point x="40" y="151.656" type="curve" smooth="yes"/>
      <point x="40" y="212.656" type="line" smooth="yes"/>
      <point x="40" y="320.656"/>
      <point x="150" y="365.656"/>
      <point x="236" y="365.656" type="curve" smooth="yes"/>
      <point x="700" y="365.656" type="line"/>
      <point x="700" y="243.656" type="line"/>
      <point x="239" y="243.656" type="line" smooth="yes"/>
      <point x="175" y="243.656"/>
      <point x="161" y="233.656"/>
      <point x="161" y="182.656" type="curve" smooth="yes"/>
      <point x="161" y="121.656"/>
      <point x="181" y="116.656"/>
      <point x="270" y="116.656" type="curve"/>
      <point x="270" y="-6.34375" type="line"/>
      <point x="113" y="-5.34375"/>
      <point x="40" y="62.6562"/>
    </contour>
    <contour>
      <point x="323" y="-6.34375" type="curve"/>
      <point x="323" y="116.656" type="line"/>
      <point x="389" y="116.656"/>
      <point x="420" y="135.656"/>
      <point x="420" y="181.656" type="curve" smooth="yes"/>
      <point x="420" y="663.656" type="line"/>
      <point x="542" y="663.656" type="line"/>
      <point x="542" y="185.656" type="line" smooth="yes"/>
      <point x="542" y="89.6562"/>
      <point x="490" y="-6.34375"/>
    </contour>
    <contour>
      <point x="165" y="342.656" type="line"/>
      <point x="165" y="661.656" type="line"/>
      <point x="288" y="661.656" type="line"/>
      <point x="287" y="342.656" type="line"/>
    </contour>
    <contour>
      <point x="382" y="545.656" type="line"/>
      <point x="382" y="670.656" type="line"/>
      <point x="689" y="670.656" type="line"/>
      <point x="689" y="545.656" type="line"/>
    </contour>
    <contour>
      <point x="165" y="545.656" type="line"/>
      <point x="165" y="670.656" type="line"/>
      <point x="328" y="670.656" type="line"/>
      <point x="328" y="545.656" type="line"/>
    </contour>
  </outline>
</glyph>
<glyph name="tml_KSsUu" format="1">
  <advance width="0"/>
  <outline>
    <contour>
      <point x="1131" y="604" type="curve" smooth="yes"/>
      <point x="1253" y="604" type="line"/>
      <point x="1253" y="670"/>
      <point x="1322" y="683"/>
      <point x="1360" y="683" type="curve" smooth="yes"/>
      <point x="1399" y="683"/>
      <point x="1470" y="668"/>
      <point x="1470" y="608" type="curve" smooth="yes"/>
      <point x="1470" y="284" type="line" smooth="yes"/>
      <point x="1470" y="249"/>
      <point x="1452" y="226"/>
      <point x="1414" y="226" type="curve" smooth="yes"/>
      <point x="1355" y="226" type="line" smooth="yes"/>
      <point x="1355" y="134" type="line" smooth="yes"/>
      <point x="1414" y="134" type="line" smooth="yes"/>
      <point x="1519" y="134"/>
      <point x="1593" y="179"/>
      <point x="1593" y="284" type="curve" smooth="yes"/>
      <point x="1593" y="608" type="line" smooth="yes"/>
      <point x="1593" y="713"/>
      <point x="1506" y="805"/>
      <point x="1360" y="805" type="curve" smooth="yes"/>
      <point x="1228" y="805"/>
      <point x="1131" y="714"/>
    </contour>
    <contour>
      <point x="904" y="486" type="line"/>
      <point x="1232" y="486" type="line" smooth="yes"/>
      <point x="1288" y="486"/>
      <point x="1321" y="479"/>
      <point x="1321" y="441" type="curve" smooth="yes"/>
      <point x="1321" y="423"/>
      <point x="1310" y="409"/>
      <point x="1287" y="409" type="curve" smooth="yes"/>
      <point x="1265" y="409"/>
      <point x="1253" y="422"/>
      <point x="1253" y="442" type="curve" smooth="yes"/>
      <point x="1131" y="442" type="line"/>
      <point x="1131" y="357"/>
      <point x="1202" y="287"/>
      <point x="1271" y="287" type="curve" smooth="yes"/>
      <point x="1300" y="287" type="line" smooth="yes"/>
      <point x="1355" y="287"/>
      <point x="1443" y="338"/>
      <point x="1443" y="442" type="curve" smooth="yes"/>
      <point x="1443" y="452" type="line" smooth="yes"/>
      <point x="1443" y="585"/>
      <point x="1347" y="608"/>
      <point x="1236" y="608" type="curve" smooth="yes"/>
      <point x="904" y="608" type="line"/>
    </contour>
    <contour>
      <point x="267" y="0" type="curve"/>
      <point x="267" y="122" type="line"/>
      <point x="299" y="123"/>
      <point x="314" y="142"/>
      <point x="314" y="180" type="curve" smooth="yes"/>
      <point x="314" y="218"/>
      <point x="298" y="237"/>
      <point x="267" y="237" type="curve"/>
      <point x="267" y="359" type="line" smooth="yes"/>
      <point x="363" y="359"/>
      <point x="436" y="276"/>
      <point x="436" y="224" type="curve" smooth="yes"/>
      <point x="436" y="152" type="line" smooth="yes"/>
      <point x="437" y="89"/>
      <point x="376" y="0"/>
    </contour>
    <contour>
      <point x="40" y="151" type="curve" smooth="yes"/>
      <point x="40" y="220" type="line" smooth="yes"/>
      <point x="39" y="324"/>
      <point x="162" y="359"/>
      <point x="212" y="359" type="curve"/>
      <point x="212" y="237" type="line" smooth="yes"/>
      <point x="183" y="237"/>
      <point x="165" y="218"/>
      <point x="165" y="181" type="curve" smooth="yes"/>
      <point x="165" y="147"/>
      <point x="179" y="122"/>
      <point x="212" y="122" type="curve"/>
      <point x="212" y="0" type="line" smooth="yes"/>
      <point x="110" y="0"/>
      <point x="40" y="91"/>
    </contour>
    <contour>
      <point x="40" y="226" type="line"/>
      <point x="40" y="268" type="line"/>
      <point x="40" y="340"/>
      <point x="91" y="534"/>
      <point x="301" y="534" type="curve"/>
      <point x="301" y="412" type="line"/>
      <point x="237" y="412"/>
      <point x="207" y="378"/>
      <point x="206" y="357" type="curve" smooth="yes"/>
    </contour>
    <contour>
      <point x="351" y="412" type="line"/>
      <point x="428" y="412"/>
      <point x="486" y="361"/>
      <point x="487" y="291" type="curve"/>
      <point x="487" y="146" type="line" smooth="yes"/>
      <point x="487" y="127"/>
      <point x="461" y="124"/>
      <point x="454" y="123" type="curve"/>
      <point x="454" y="0" type="line"/>
      <point x="850" y="0" type="line"/>
      <point x="850" y="123" type="line"/>
      <point x="608" y="123" type="line"/>
      <point x="608" y="292" type="line"/>
      <point x="607" y="403"/>
      <point x="520" y="534"/>
      <point x="351" y="534" type="curve"/>
    </contour>
    <contour>
      <point x="903" y="485" type="line"/>
      <point x="942" y="485"/>
      <point x="962" y="486"/>
      <point x="962" y="413" type="curve" smooth="yes"/>
      <point x="962" y="158" type="line"/>
      <point x="1084" y="158" type="line"/>
      <point x="1084" y="413" type="line" smooth="yes"/>
      <point x="1084" y="561"/>
      <point x="1006" y="607"/>
      <point x="903" y="607" type="curve"/>
    </contour>
    <contour>
      <point x="962" y="123" type="line"/>
      <point x="962" y="-178" type="line"/>
      <point x="1084" y="-178" type="line"/>
      <point x="1084" y="123" type="line"/>
    </contour>
    <contour>
      <point x="903" y="158" type="line"/>
      <point x="1220" y="158" type="line"/>
      <point x="1220" y="280" type="line" smooth="yes"/>
      <point x="903" y="280" type="line"/>
    </contour>
    <contour>
      <point x="669" y="334" type="line" smooth="yes"/>
      <point x="669" y="191"/>
      <point x="746" y="158"/>
      <point x="850" y="158" type="curve"/>
      <point x="850" y="279" type="line"/>
      <point x="806" y="279"/>
      <point x="792" y="287"/>
      <point x="792" y="340" type="curve" smooth="yes"/>
      <point x="792" y="424" type="line" smooth="yes"/>
      <point x="792" y="463"/>
      <point x="805" y="485"/>
      <point x="850" y="485" type="curve"/>
      <point x="850" y="607" type="line"/>
      <point x="746" y="607"/>
      <point x="669" y="570"/>
      <point x="669" y="433" type="curve" smooth="yes"/>
    </contour>
    <contour>
      <point x="1120" y="0" type="line"/>
      <point x="1220" y="0" type="line"/>
      <point x="1220" y="280" type="line"/>
      <point x="1120" y="280" type="line"/>
    </contour>
    <contour>
      <point x="903" y="1" type="line"/>
      <point x="1220" y="0" type="line"/>
      <point x="1220" y="123" type="line"/>
      <point x="903" y="123" type="line"/>
    </contour>
    <contour>
      <point x="-518" y="151.656" type="curve" smooth="yes"/>
      <point x="-518" y="212.656" type="line" smooth="yes"/>
      <point x="-518" y="320.656"/>
      <point x="-408" y="365.656"/>
      <point x="-322" y="365.656" type="curve" smooth="yes"/>
      <point x="142" y="365.656" type="line"/>
      <point x="142" y="243.656" type="line"/>
      <point x="-319" y="243.656" type="line" smooth="yes"/>
      <point x="-383" y="243.656"/>
      <point x="-397" y="233.656"/>
      <point x="-397" y="182.656" type="curve" smooth="yes"/>
      <point x="-397" y="121.656"/>
      <point x="-377" y="116.656"/>
      <point x="-288" y="116.656" type="curve"/>
      <point x="-288" y="-6.34375" type="line"/>
      <point x="-445" y="-5.34375"/>
      <point x="-518" y="62.6562"/>
    </contour>
    <contour>
      <point x="-235" y="-6.34375" type="curve"/>
      <point x="-235" y="116.656" type="line"/>
      <point x="-169" y="116.656"/>
      <point x="-138" y="135.656"/>
      <point x="-138" y="181.656" type="curve" smooth="yes"/>
      <point x="-138" y="663.656" type="line"/>
      <point x="-16" y="663.656" type="line"/>
      <point x="-16" y="185.656" type="line" smooth="yes"/>
      <point x="-16" y="89.6562"/>
      <point x="-68" y="-6.34375"/>
    </contour>
    <contour>
      <point x="-393" y="342.656" type="line"/>
      <point x="-393" y="661.656" type="line"/>
      <point x="-270" y="661.656" type="line"/>
      <point x="-271" y="342.656" type="line"/>
    </contour>
    <contour>
      <point x="-176" y="545.656" type="line"/>
      <point x="-176" y="670.656" type="line"/>
      <point x="131" y="670.656" type="line"/>
      <point x="131" y="545.656" type="line"/>
    </contour>
    <contour>
      <point x="-393" y="545.656" type="line"/>
      <point x="-393" y="670.656" type="line"/>
      <point x="-230" y="670.656" type="line"/>
      <point x="-230" y="545.656" type="line"/>
    </contour>
  </outline>
</glyph>
<glyph name="tml_KU" format="1">
  <advance width="1026"/>
  <outline>
    <contour>
      <point x="382.153" y="156" type="curve" smooth="yes"/>
      <point x="255.253" y="156" type="line" smooth="yes"/>
      <point x="255.253" y="50"/>
      <point x="333.334" y="-1"/>
      <point x="485" y="-1" type="curve"/>
      <point x="485" y="122" type="line"/>
      <point x="406" y="122"/>
      <point x="382.153" y="136"/>
    </contour>
    <contour>
      <point x="376.801" y="206" type="curve"/>
      <point x="255" y="206" type="line"/>
      <point x="255" y="218" type="line" smooth="yes"/>
      <point x="255" y="326"/>
      <point x="366" y="371"/>
      <point x="452" y="371" type="curve" smooth="yes"/>
      <point x="555" y="371"/>
      <point x="654" y="371"/>
      <point x="757" y="371" type="curve"/>
      <point x="757" y="249" type="line"/>
      <point x="454" y="249" type="line" smooth="yes"/>
      <point x="398.383" y="249"/>
      <point x="380.525" y="241.448"/>
    </contour>
    <contour>
      <point x="47" y="30" type="curve" smooth="yes"/>
      <point x="47" y="289" type="line" smooth="yes"/>
      <point x="47" y="452"/>
      <point x="161" y="499"/>
      <point x="246" y="499" type="curve" smooth="yes"/>
      <point x="247" y="377" type="line" smooth="yes"/>
      <point x="173" y="377"/>
      <point x="170" y="320"/>
      <point x="170" y="284" type="curve" smooth="yes"/>
      <point x="170" y="54" type="line" smooth="yes"/>
      <point x="170" y="-10"/>
      <point x="193" y="-88"/>
      <point x="257" y="-88" type="curve" smooth="yes"/>
      <point x="435" y="-88" type="line"/>
      <point x="435" y="-210" type="line"/>
      <point x="241" y="-210" type="line" smooth="yes"/>
      <point x="132" y="-210"/>
      <point x="47" y="-109"/>
    </contour>
    <contour>
      <point x="488" y="-88" type="line"/>
      <point x="787" y="-88" type="line" smooth="yes"/>
      <point x="856" y="-88"/>
      <point x="853" y="-5"/>
      <point x="853" y="38" type="curve" smooth="yes"/>
      <point x="853" y="185" type="line" smooth="yes"/>
      <point x="853" y="235"/>
      <point x="833" y="247"/>
      <point x="811" y="248" type="curve"/>
      <point x="811" y="370" type="line"/>
      <point x="873" y="364"/>
      <point x="975" y="337"/>
      <point x="975" y="219" type="curve" smooth="yes"/>
      <point x="975" y="-47" type="line" smooth="yes"/>
      <point x="975" y="-114"/>
      <point x="914" y="-210"/>
      <point x="788" y="-210" type="curve" smooth="yes"/>
      <point x="488" y="-210" type="line"/>
    </contour>
    <contour>
      <point x="538" y="-1" type="curve"/>
      <point x="538" y="122" type="line"/>
      <point x="604" y="122"/>
      <point x="635" y="141"/>
      <point x="635" y="187" type="curve" smooth="yes"/>
      <point x="635" y="591" type="line"/>
      <point x="757" y="591" type="line"/>
      <point x="757" y="191" type="line" smooth="yes"/>
      <point x="757" y="95"/>
      <point x="705" y="-1"/>
    </contour>
    <contour>
      <point x="380" y="348" type="line"/>
      <point x="380" y="589" type="line"/>
      <point x="503" y="589" type="line"/>
      <point x="502" y="348" type="line"/>
    </contour>
    <contour>
      <point x="380" y="473" type="line"/>
      <point x="380" y="595" type="line"/>
      <point x="542" y="595" type="line"/>
      <point x="542" y="473" type="line"/>
    </contour>
    <contour>
      <point x="597" y="473" type="line"/>
      <point x="597" y="595" type="line"/>
      <point x="889" y="595" type="line"/>
      <point x="889" y="473" type="line"/>
    </contour>
  </outline>
</glyph>
